<svg width="160" height="160" viewBox="0 0 160 160" fill="none" xmlns="http://www.w3.org/2000/svg">
<path d="M119.068 99.837C119.068 100.708 118.39 101.419 117.551 101.419C116.712 101.419 116.034 100.708 116.034 99.837C116.034 98.9623 116.712 98.2553 117.551 98.2553C118.39 98.2553 119.068 98.9623 119.068 99.837Z" fill="#FF671B"/>
<path d="M117.057 103.25C117.057 104.124 116.379 104.831 115.54 104.831C114.701 104.831 114.023 104.124 114.023 103.25C114.023 102.375 114.701 101.668 115.54 101.668C116.379 101.668 117.057 102.375 117.057 103.25Z" fill="#FF671B"/>
<path d="M114.748 106.45C114.748 107.325 114.066 108.036 113.227 108.036C112.388 108.036 111.71 107.325 111.71 106.45C111.71 105.579 112.388 104.868 113.227 104.868C114.066 104.868 114.748 105.579 114.748 106.45Z" fill="#FF671B"/>
<path d="M112.149 109.421C112.149 110.292 111.47 111.003 110.631 111.003C109.793 111.003 109.114 110.292 109.114 109.421C109.114 108.547 109.793 107.84 110.631 107.84C111.47 107.84 112.149 108.547 112.149 109.421Z" fill="#FF671B"/>
<path d="M109.291 112.135C109.291 113.01 108.612 113.717 107.774 113.717C106.935 113.717 106.256 113.01 106.256 112.135C106.256 111.261 106.935 110.553 107.774 110.553C108.612 110.553 109.291 111.261 109.291 112.135Z" fill="#FF671B"/>
<path d="M106.19 114.579C106.19 115.454 105.508 116.161 104.673 116.161C103.834 116.161 103.151 115.454 103.151 114.579C103.151 113.705 103.834 112.998 104.673 112.998C105.508 112.998 106.19 113.705 106.19 114.579Z" fill="#FF671B"/>
<path d="M102.861 116.733C102.861 117.604 102.183 118.315 101.344 118.315C100.505 118.315 99.827 117.604 99.827 116.733C99.827 115.859 100.505 115.152 101.344 115.152C102.183 115.152 102.861 115.859 102.861 116.733Z" fill="#FF671B"/>
<path d="M99.3292 118.573C99.3292 119.447 98.6509 120.154 97.812 120.154C96.973 120.154 96.2948 119.447 96.2948 118.573C96.2948 117.698 96.973 116.991 97.812 116.991C98.6509 116.991 99.3292 117.698 99.3292 118.573Z" fill="#FF671B"/>
<path d="M95.6127 120.085C95.6127 120.959 94.9345 121.666 94.0955 121.666C93.2566 121.666 92.5784 120.959 92.5784 120.085C92.5784 119.21 93.2566 118.503 94.0955 118.503C94.9345 118.503 95.6127 119.21 95.6127 120.085Z" fill="#FF671B"/>
<path d="M91.7277 121.245C91.7277 122.12 91.0494 122.827 90.2105 122.827C89.3715 122.827 88.6933 122.12 88.6933 121.245C88.6933 120.371 89.3715 119.664 90.2105 119.664C91.0494 119.664 91.7277 120.371 91.7277 121.245Z" fill="#FF671B"/>
<path d="M87.6975 122.038C87.6975 122.909 87.0193 123.62 86.1804 123.62C85.3453 123.62 84.6632 122.909 84.6632 122.038C84.6632 121.164 85.3453 120.457 86.1804 120.457C87.0193 120.457 87.6975 121.164 87.6975 122.038Z" fill="#FF671B"/>
<path d="M83.7851 122.41C83.7851 123.285 83.1029 123.992 82.2679 123.992C81.4289 123.992 80.7507 123.285 80.7507 122.41C80.7507 121.536 81.4289 120.829 82.2679 120.829C83.1029 120.829 83.7851 121.536 83.7851 122.41Z" fill="#FF671B"/>
<path d="M79.7158 122.435C79.7158 123.31 79.0376 124.017 78.1986 124.017C77.3636 124.017 76.6815 123.31 76.6815 122.435C76.6815 121.56 77.3636 120.853 78.1986 120.853C79.0376 120.853 79.7158 121.56 79.7158 122.435Z" fill="#FF671B"/>
<path d="M75.5838 122.059C75.5838 122.933 74.9056 123.641 74.0666 123.641C73.2277 123.641 72.5494 122.933 72.5494 122.059C72.5494 121.188 73.2277 120.477 74.0666 120.477C74.9056 120.477 75.5838 121.188 75.5838 122.059Z" fill="#FF671B"/>
<path d="M71.5733 121.299C71.5733 122.173 70.8951 122.884 70.0561 122.884C69.2172 122.884 68.5389 122.173 68.5389 121.299C68.5389 120.428 69.2172 119.717 70.0561 119.717C70.8951 119.717 71.5733 120.428 71.5733 121.299Z" fill="#FF671B"/>
<path d="M67.7039 120.175C67.7039 121.049 67.0257 121.756 66.1867 121.756C65.3478 121.756 64.6696 121.049 64.6696 120.175C64.6696 119.3 65.3478 118.593 66.1867 118.593C67.0257 118.593 67.7039 119.3 67.7039 120.175Z" fill="#FF671B"/>
<path d="M63.9992 118.699C63.9992 119.574 63.321 120.285 62.482 120.285C61.6431 120.285 60.9649 119.574 60.9649 118.699C60.9649 117.829 61.6431 117.117 62.482 117.117C63.321 117.117 63.9992 117.829 63.9992 118.699Z" fill="#FF671B"/>
<path d="M60.4748 116.901C60.4748 117.771 59.7927 118.483 58.9577 118.483C58.1187 118.483 57.4366 117.771 57.4366 116.901C57.4366 116.026 58.1187 115.319 58.9577 115.319C59.7927 115.319 60.4748 116.026 60.4748 116.901Z" fill="#FF671B"/>
<path d="M57.1465 114.788C57.1465 115.662 56.4682 116.37 55.6293 116.37C54.7903 116.37 54.1121 115.662 54.1121 114.788C54.1121 113.913 54.7903 113.206 55.6293 113.206C56.4682 113.206 57.1465 113.913 57.1465 114.788Z" fill="#FF671B"/>
<path d="M54.0416 112.385C54.0416 113.259 53.3594 113.966 52.5244 113.966C51.6854 113.966 51.0072 113.259 51.0072 112.385C51.0072 111.51 51.6854 110.803 52.5244 110.803C53.3594 110.803 54.0416 111.51 54.0416 112.385Z" fill="#FF671B"/>
<path d="M51.1719 109.712C51.1719 110.586 50.4898 111.293 49.6547 111.293C48.8158 111.293 48.1376 110.586 48.1376 109.712C48.1376 108.837 48.8158 108.13 49.6547 108.13C50.4898 108.13 51.1719 108.837 51.1719 109.712Z" fill="#FF671B"/>
<path d="M48.557 106.785C48.557 107.66 47.8788 108.367 47.0399 108.367C46.2009 108.367 45.5227 107.66 45.5227 106.785C45.5227 105.911 46.2009 105.203 47.0399 105.203C47.8788 105.203 48.557 105.911 48.557 106.785Z" fill="#FF671B"/>
<path d="M46.2205 103.626C46.2205 104.5 45.5423 105.208 44.7034 105.208C43.8644 105.208 43.1862 104.5 43.1862 103.626C43.1862 102.751 43.8644 102.044 44.7034 102.044C45.5423 102.044 46.2205 102.751 46.2205 103.626Z" fill="#FF671B"/>
<path d="M44.178 100.254C44.178 101.124 43.4998 101.836 42.6609 101.836C41.8219 101.836 41.1437 101.124 41.1437 100.254C41.1437 99.3792 41.8219 98.6721 42.6609 98.6721C43.4998 98.6721 44.178 99.3792 44.178 100.254Z" fill="#FF671B"/>
<path d="M42.4492 96.6817C42.4492 97.5564 41.7709 98.2675 40.932 98.2675C40.093 98.2675 39.4148 97.5564 39.4148 96.6817C39.4148 95.8111 40.093 95.1 40.932 95.1C41.7709 95.1 42.4492 95.8111 42.4492 96.6817Z" fill="#FF671B"/>
<path d="M41.0535 92.9379C41.0535 93.8125 40.3753 94.5196 39.5364 94.5196C38.6974 94.5196 38.0192 93.8125 38.0192 92.9379C38.0192 92.0632 38.6974 91.3562 39.5364 91.3562C40.3753 91.3562 41.0535 92.0632 41.0535 92.9379Z" fill="#FF671B"/>
<path d="M40.0107 89.0346C40.0107 89.9093 39.3286 90.6164 38.4896 90.6164C37.6546 90.6164 36.9764 89.9093 36.9764 89.0346C36.9764 88.16 37.6546 87.4529 38.4896 87.4529C39.3286 87.4529 40.0107 88.16 40.0107 89.0346Z" fill="#FF671B"/>
<path d="M39.3364 84.9925C39.3364 85.8671 38.6543 86.5742 37.8193 86.5742C36.9803 86.5742 36.2982 85.8671 36.2982 84.9925C36.2982 84.1178 36.9803 83.4107 37.8193 83.4107C38.6543 83.4107 39.3364 84.1178 39.3364 84.9925Z" fill="#FF671B"/>
<path d="M39.0502 80.8317C39.0502 81.7064 38.372 82.4135 37.5331 82.4135C36.6941 82.4135 36.0159 81.7064 36.0159 80.8317C36.0159 79.9571 36.6941 79.25 37.5331 79.25C38.372 79.25 39.0502 79.9571 39.0502 80.8317Z" fill="#FF671B"/>
<path d="M39.1757 76.6996C39.1757 77.5702 38.4975 78.2813 37.6585 78.2813C36.8196 78.2813 36.1414 77.5702 36.1414 76.6996C36.1414 75.825 36.8196 75.1138 37.6585 75.1138C38.4975 75.1138 39.1757 75.825 39.1757 76.6996Z" fill="#FF671B"/>
<path d="M39.6893 72.6002C39.6893 73.4749 39.0111 74.1819 38.1721 74.1819C37.3332 74.1819 36.6549 73.4749 36.6549 72.6002C36.6549 71.7256 37.3332 71.0185 38.1721 71.0185C39.0111 71.0185 39.6893 71.7256 39.6893 72.6002Z" fill="#FF671B"/>
<path d="M40.5831 68.6316C40.5831 69.5062 39.9049 70.2174 39.0659 70.2174C38.227 70.2174 37.5488 69.5062 37.5488 68.6316C37.5488 67.761 38.227 67.0499 39.0659 67.0499C39.9049 67.0499 40.5831 67.761 40.5831 68.6316Z" fill="#FF671B"/>
<path d="M41.8376 64.8183C41.8376 65.6888 41.1594 66.4 40.3204 66.4C39.4854 66.4 38.8033 65.6888 38.8033 64.8183C38.8033 63.9436 39.4854 63.2325 40.3204 63.2325C41.1594 63.2325 41.8376 63.9436 41.8376 64.8183Z" fill="#FF671B"/>
<path d="M43.4371 61.1684C43.4371 62.0431 42.755 62.7502 41.9199 62.7502C41.081 62.7502 40.4028 62.0431 40.4028 61.1684C40.4028 60.2938 41.081 59.5867 41.9199 59.5867C42.755 59.5867 43.4371 60.2938 43.4371 61.1684Z" fill="#FF671B"/>
<path d="M45.3541 57.7107C45.3541 58.5813 44.6759 59.2924 43.837 59.2924C42.998 59.2924 42.3198 58.5813 42.3198 57.7107C42.3198 56.8361 42.998 56.129 43.837 56.129C44.6759 56.129 45.3541 56.8361 45.3541 57.7107Z" fill="#FF671B"/>
<path d="M47.5769 54.4573C47.5769 55.332 46.8987 56.0391 46.0598 56.0391C45.2208 56.0391 44.5426 55.332 44.5426 54.4573C44.5426 53.5827 45.2208 52.8756 46.0598 52.8756C46.8987 52.8756 47.5769 53.5827 47.5769 54.4573Z" fill="#FF671B"/>
<path d="M50.082 51.4288C50.082 52.3034 49.4038 53.0146 48.5649 53.0146C47.7259 53.0146 47.0477 52.3034 47.0477 51.4288C47.0477 50.5582 47.7259 49.8511 48.5649 49.8511C49.4038 49.8511 50.082 50.5582 50.082 51.4288Z" fill="#FF671B"/>
<path d="M52.8537 48.6495C52.8537 49.5241 52.1755 50.2312 51.3365 50.2312C50.4976 50.2312 49.8194 49.5241 49.8194 48.6495C49.8194 47.7748 50.4976 47.0678 51.3365 47.0678C52.1755 47.0678 52.8537 47.7748 52.8537 48.6495Z" fill="#FF671B"/>
<path d="M55.8723 46.1359C55.8723 47.0065 55.1902 47.7176 54.3513 47.7176C53.5162 47.7176 52.838 47.0065 52.838 46.1359C52.838 45.2612 53.5162 44.5501 54.3513 44.5501C55.1902 44.5501 55.8723 45.2612 55.8723 46.1359Z" fill="#FF671B"/>
<path d="M59.1145 43.9002C59.1145 44.7749 58.4363 45.482 57.5973 45.482C56.7584 45.482 56.0801 44.7749 56.0801 43.9002C56.0801 43.0297 56.7584 42.3185 57.5973 42.3185C58.4363 42.3185 59.1145 43.0297 59.1145 43.9002Z" fill="#FF671B"/>
<path d="M62.5644 41.9711C62.5644 42.8416 61.8861 43.5528 61.0472 43.5528C60.2122 43.5528 59.53 42.8416 59.53 41.9711C59.53 41.0964 60.2122 40.3894 61.0472 40.3894C61.8861 40.3894 62.5644 41.0964 62.5644 41.9711Z" fill="#FF671B"/>
<path d="M66.2063 40.3608C66.2063 41.2354 65.5281 41.9425 64.6892 41.9425C63.8502 41.9425 63.172 41.2354 63.172 40.3608C63.172 39.4861 63.8502 38.779 64.6892 38.779C65.5281 38.779 66.2063 39.4861 66.2063 40.3608Z" fill="#FF671B"/>
<path d="M70.0169 39.0937C70.0169 39.9684 69.3348 40.6755 68.4958 40.6755C67.6608 40.6755 66.9786 39.9684 66.9786 39.0937C66.9786 38.2191 67.6608 37.512 68.4958 37.512C69.3348 37.512 70.0169 38.2191 70.0169 39.0937Z" fill="#FF671B"/>
<path d="M73.9764 38.1823C73.9764 39.057 73.2943 39.7681 72.4593 39.7681C71.6203 39.7681 70.9382 39.057 70.9382 38.1823C70.9382 37.3117 71.6203 36.6006 72.4593 36.6006C73.2943 36.6006 73.9764 37.3117 73.9764 38.1823Z" fill="#FF671B"/>
<path d="M78.0653 37.6551C78.0653 38.5297 77.3871 39.2368 76.5481 39.2368C75.7092 39.2368 75.031 38.5297 75.031 37.6551C75.031 36.7804 75.7092 36.0733 76.5481 36.0733C77.3871 36.0733 78.0653 36.7804 78.0653 37.6551Z" fill="#FF671B"/>
<path d="M82.2483 37.5202C82.2483 38.3948 81.5701 39.106 80.7312 39.106C79.8922 39.106 79.214 38.3948 79.214 37.5202C79.214 36.6496 79.8922 35.9384 80.7312 35.9384C81.5701 35.9384 82.2483 36.6496 82.2483 37.5202Z" fill="#FF671B"/>
<path d="M86.3176 37.7818C86.3176 38.6564 85.6355 39.3676 84.8004 39.3676C83.9615 39.3676 83.2833 38.6564 83.2833 37.7818C83.2833 36.9112 83.9615 36.2 84.8004 36.2C85.6355 36.2 86.3176 36.9112 86.3176 37.7818Z" fill="#FF671B"/>
<path d="M90.2732 38.4194C90.2732 39.294 89.5911 40.0011 88.7561 40.0011C87.9171 40.0011 87.2389 39.294 87.2389 38.4194C87.2389 37.5447 87.9171 36.8376 88.7561 36.8376C89.5911 36.8376 90.2732 37.5447 90.2732 38.4194Z" fill="#FF671B"/>
<path d="M94.0916 39.4125C94.0916 40.2872 93.4134 40.9943 92.5744 40.9943C91.7355 40.9943 91.0573 40.2872 91.0573 39.4125C91.0573 38.5379 91.7355 37.8308 92.5744 37.8308C93.4134 37.8308 94.0916 38.5379 94.0916 39.4125Z" fill="#FF671B"/>
<path d="M97.765 40.7409C97.765 41.6114 97.0828 42.3226 96.2478 42.3226C95.4088 42.3226 94.7306 41.6114 94.7306 40.7409C94.7306 39.8662 95.4088 39.1591 96.2478 39.1591C97.0828 39.1591 97.765 39.8662 97.765 40.7409Z" fill="#FF671B"/>
<path d="M101.266 42.388C101.266 43.2585 100.588 43.9697 99.7486 43.9697C98.9097 43.9697 98.2315 43.2585 98.2315 42.388C98.2315 41.5133 98.9097 40.8062 99.7486 40.8062C100.588 40.8062 101.266 41.5133 101.266 42.388Z" fill="#FF671B"/>
<path d="M104.582 44.3335C104.582 45.2081 103.904 45.9152 103.065 45.9152C102.226 45.9152 101.548 45.2081 101.548 44.3335C101.548 43.4588 102.226 42.7517 103.065 42.7517C103.904 42.7517 104.582 43.4588 104.582 44.3335Z" fill="#FF671B"/>
<path d="M123.886 96.0932C123.886 96.8942 123.263 97.5441 122.494 97.5441C121.726 97.5441 121.107 96.8942 121.107 96.0932C121.107 95.2921 121.726 94.6422 122.494 94.6422C123.263 94.6422 123.886 95.2921 123.886 96.0932Z" fill="#FF671B"/>
<path d="M122.185 100.233C122.185 101.035 121.565 101.684 120.797 101.684C120.028 101.684 119.405 101.035 119.405 100.233C119.405 99.4324 120.028 98.7825 120.797 98.7825C121.565 98.7825 122.185 99.4324 122.185 100.233Z" fill="#FF671B"/>
<path d="M120.091 104.153C120.091 104.954 119.468 105.604 118.699 105.604C117.935 105.604 117.312 104.954 117.312 104.153C117.312 103.352 117.935 102.702 118.699 102.702C119.468 102.702 120.091 103.352 120.091 104.153Z" fill="#FF671B"/>
<path d="M117.629 107.836C117.629 108.637 117.006 109.286 116.238 109.286C115.469 109.286 114.846 108.637 114.846 107.836C114.846 107.034 115.469 106.385 116.238 106.385C117.006 106.385 117.629 107.034 117.629 107.836Z" fill="#FF671B"/>
<path d="M114.818 111.248C114.818 112.049 114.195 112.699 113.427 112.699C112.662 112.699 112.039 112.049 112.039 111.248C112.039 110.447 112.662 109.797 113.427 109.797C114.195 109.797 114.818 110.447 114.818 111.248Z" fill="#FF671B"/>
<path d="M111.686 114.371C111.686 115.172 111.063 115.822 110.294 115.822C109.53 115.822 108.907 115.172 108.907 114.371C108.907 113.57 109.53 112.92 110.294 112.92C111.063 112.92 111.686 113.57 111.686 114.371Z" fill="#FF671B"/>
<path d="M108.26 117.183C108.26 117.984 107.636 118.63 106.868 118.63C106.1 118.63 105.476 117.984 105.476 117.183C105.476 116.378 106.1 115.732 106.868 115.732C107.636 115.732 108.26 116.378 108.26 117.183Z" fill="#FF671B"/>
<path d="M104.555 119.652C104.555 120.453 103.932 121.102 103.163 121.102C102.395 121.102 101.775 120.453 101.775 119.652C101.775 118.85 102.395 118.201 103.163 118.201C103.932 118.201 104.555 118.85 104.555 119.652Z" fill="#FF671B"/>
<path d="M100.603 121.76C100.603 122.562 99.9799 123.211 99.2116 123.211C98.4471 123.211 97.8238 122.562 97.8238 121.76C97.8238 120.959 98.4471 120.31 99.2116 120.31C99.9799 120.31 100.603 120.959 100.603 121.76Z" fill="#FF671B"/>
<path d="M96.4281 123.481C96.4281 124.282 95.8048 124.932 95.0364 124.932C94.268 124.932 93.6486 124.282 93.6486 123.481C93.6486 122.68 94.268 122.034 95.0364 122.034C95.8048 122.034 96.4281 122.68 96.4281 123.481Z" fill="#FF671B"/>
<path d="M92.0491 124.793C92.0491 125.594 91.4297 126.244 90.6613 126.244C89.8929 126.244 89.2696 125.594 89.2696 124.793C89.2696 123.992 89.8929 123.342 90.6613 123.342C91.4297 123.342 92.0491 123.992 92.0491 124.793Z" fill="#FF671B"/>
<path d="M87.6975 125.643C87.6975 126.444 87.0742 127.094 86.3058 127.094C85.5374 127.094 84.918 126.444 84.918 125.643C84.918 124.842 85.5374 124.196 86.3058 124.196C87.0742 124.196 87.6975 124.842 87.6975 125.643Z" fill="#FF671B"/>
<path d="M83.1617 126.085C83.1617 126.886 82.5384 127.536 81.77 127.536C81.0016 127.536 80.3783 126.886 80.3783 126.085C80.3783 125.284 81.0016 124.634 81.77 124.634C82.5384 124.634 83.1617 125.284 83.1617 126.085Z" fill="#FF671B"/>
<path d="M78.571 126.056C78.571 126.857 77.9477 127.507 77.1793 127.507C76.4109 127.507 75.7876 126.857 75.7876 126.056C75.7876 125.255 76.4109 124.605 77.1793 124.605C77.9477 124.605 78.571 125.255 78.571 126.056Z" fill="#FF671B"/>
<path d="M74.0392 125.586C74.0392 126.387 73.4158 127.033 72.6474 127.033C71.8791 127.033 71.2596 126.387 71.2596 125.586C71.2596 124.781 71.8791 124.135 72.6474 124.135C73.4158 124.135 74.0392 124.781 74.0392 125.586Z" fill="#FF671B"/>
<path d="M69.5817 124.679C69.5817 125.48 68.9623 126.13 68.19 126.13C67.4216 126.13 66.7983 125.48 66.7983 124.679C66.7983 123.878 67.4216 123.232 68.19 123.232C68.9623 123.232 69.5817 123.878 69.5817 124.679Z" fill="#FF671B"/>
<path d="M65.2341 123.35C65.2341 124.147 64.6108 124.797 63.8424 124.797C63.074 124.797 62.4507 124.147 62.4507 123.35C62.4507 122.545 63.074 121.899 63.8424 121.899C64.6108 121.899 65.2341 122.545 65.2341 123.35Z" fill="#FF671B"/>
<path d="M61.0785 121.609C61.0785 122.41 60.4552 123.056 59.6868 123.056C58.9184 123.056 58.2951 122.41 58.2951 121.609C58.2951 120.808 58.9184 120.158 59.6868 120.158C60.4552 120.158 61.0785 120.808 61.0785 121.609Z" fill="#FF671B"/>
<path d="M57.1386 119.48C57.1386 120.281 56.5153 120.931 55.7469 120.931C54.9785 120.931 54.3591 120.281 54.3591 119.48C54.3591 118.679 54.9785 118.033 55.7469 118.033C56.5153 118.033 57.1386 118.679 57.1386 119.48Z" fill="#FF671B"/>
<path d="M53.4417 116.995C53.4417 117.796 52.8184 118.442 52.05 118.442C51.2816 118.442 50.6622 117.796 50.6622 116.995C50.6622 116.19 51.2816 115.544 52.05 115.544C52.8184 115.544 53.4417 116.19 53.4417 116.995Z" fill="#FF671B"/>
<path d="M50.0115 114.167C50.0115 114.968 49.3881 115.617 48.6197 115.617C47.8514 115.617 47.228 114.968 47.228 114.167C47.228 113.365 47.8514 112.716 48.6197 112.716C49.3881 112.716 50.0115 113.365 50.0115 114.167Z" fill="#FF671B"/>
<path d="M46.8635 111.024C46.8635 111.825 46.2441 112.474 45.4757 112.474C44.7073 112.474 44.084 111.825 44.084 111.024C44.084 110.222 44.7073 109.573 45.4757 109.573C46.2441 109.573 46.8635 110.222 46.8635 111.024Z" fill="#FF671B"/>
<path d="M44.033 107.59C44.033 108.391 43.4096 109.041 42.6413 109.041C41.8729 109.041 41.2495 108.391 41.2495 107.59C41.2495 106.789 41.8729 106.143 42.6413 106.143C43.4096 106.143 44.033 106.789 44.033 107.59Z" fill="#FF671B"/>
<path d="M41.5318 103.891C41.5318 104.693 40.9124 105.342 40.144 105.342C39.3756 105.342 38.7523 104.693 38.7523 103.891C38.7523 103.09 39.3756 102.441 40.144 102.441C40.9124 102.441 41.5318 103.09 41.5318 103.891Z" fill="#FF671B"/>
<path d="M39.3952 99.9473C39.3952 100.744 38.7719 101.394 38.0035 101.394C37.2351 101.394 36.6118 100.744 36.6118 99.9473C36.6118 99.1422 37.2351 98.4964 38.0035 98.4964C38.7719 98.4964 39.3952 99.1422 39.3952 99.9473Z" fill="#FF671B"/>
<path d="M37.635 95.7785C37.635 96.5795 37.0156 97.2294 36.2472 97.2294C35.4788 97.2294 34.8555 96.5795 34.8555 95.7785C34.8555 94.9774 35.4788 94.3275 36.2472 94.3275C37.0156 94.3275 37.635 94.9774 37.635 95.7785Z" fill="#FF671B"/>
<path d="M36.2864 91.4175C36.2864 92.2185 35.6631 92.8684 34.8947 92.8684C34.1263 92.8684 33.503 92.2185 33.503 91.4175C33.503 90.6164 34.1263 89.9665 34.8947 89.9665C35.6631 89.9665 36.2864 90.6164 36.2864 91.4175Z" fill="#FF671B"/>
<path d="M35.3612 86.8807C35.3612 87.6818 34.7379 88.3276 33.9695 88.3276C33.205 88.3276 32.5817 87.6818 32.5817 86.8807C32.5817 86.0756 33.205 85.4298 33.9695 85.4298C34.7379 85.4298 35.3612 86.0756 35.3612 86.8807Z" fill="#FF671B"/>
<path d="M34.8908 82.1928C34.8908 82.9938 34.2714 83.6437 33.503 83.6437C32.7346 83.6437 32.1113 82.9938 32.1113 82.1928C32.1113 81.3917 32.7346 80.7418 33.503 80.7418C34.2714 80.7418 34.8908 81.3917 34.8908 82.1928Z" fill="#FF671B"/>
<path d="M34.8986 77.4844C34.8986 78.2854 34.2753 78.9353 33.5069 78.9353C32.7385 78.9353 32.1191 78.2854 32.1191 77.4844C32.1191 76.6833 32.7385 76.0334 33.5069 76.0334C34.2753 76.0334 34.8986 76.6833 34.8986 77.4844Z" fill="#FF671B"/>
<path d="M35.373 72.8046C35.373 73.6056 34.7496 74.2555 33.9813 74.2555C33.2129 74.2555 32.5895 73.6056 32.5895 72.8046C32.5895 72.0035 33.2129 71.3577 33.9813 71.3577C34.7496 71.3577 35.373 72.0035 35.373 72.8046Z" fill="#FF671B"/>
<path d="M36.2982 68.2637C36.2982 69.0648 35.6749 69.7147 34.9065 69.7147C34.142 69.7147 33.5187 69.0648 33.5187 68.2637C33.5187 67.4627 34.142 66.8128 34.9065 66.8128C35.6749 66.8128 36.2982 67.4627 36.2982 68.2637Z" fill="#FF671B"/>
<path d="M37.6585 63.8905C37.6585 64.6916 37.0352 65.3414 36.2668 65.3414C35.4984 65.3414 34.8751 64.6916 34.8751 63.8905C34.8751 63.0894 35.4984 62.4395 36.2668 62.4395C37.0352 62.4395 37.6585 63.0894 37.6585 63.8905Z" fill="#FF671B"/>
<path d="M39.4227 59.7175C39.4227 60.5186 38.8033 61.1684 38.0349 61.1684C37.2665 61.1684 36.6432 60.5186 36.6432 59.7175C36.6432 58.9164 37.2665 58.2666 38.0349 58.2666C38.8033 58.2666 39.4227 58.9164 39.4227 59.7175Z" fill="#FF671B"/>
<path d="M41.5749 55.7652C41.5749 56.5663 40.9516 57.2121 40.1832 57.2121C39.4187 57.2121 38.7954 56.5663 38.7954 55.7652C38.7954 54.9601 39.4187 54.3143 40.1832 54.3143C40.9516 54.3143 41.5749 54.9601 41.5749 55.7652Z" fill="#FF671B"/>
<path d="M44.0879 52.0541C44.0879 52.8552 43.4645 53.505 42.6962 53.505C41.9278 53.505 41.3044 52.8552 41.3044 52.0541C41.3044 51.253 41.9278 50.6031 42.6962 50.6031C43.4645 50.6031 44.0879 51.253 44.0879 52.0541Z" fill="#FF671B"/>
<path d="M46.934 48.6086C46.934 49.4097 46.3146 50.0596 45.5462 50.0596C44.7778 50.0596 44.1545 49.4097 44.1545 48.6086C44.1545 47.8075 44.7778 47.1577 45.5462 47.1577C46.3146 47.1577 46.934 47.8075 46.934 48.6086Z" fill="#FF671B"/>
<path d="M50.0977 45.4574C50.0977 46.2585 49.4744 46.9084 48.706 46.9084C47.9415 46.9084 47.3182 46.2585 47.3182 45.4574C47.3182 44.6564 47.9415 44.0065 48.706 44.0065C49.4744 44.0065 50.0977 44.6564 50.0977 45.4574Z" fill="#FF671B"/>
<path d="M53.5515 42.6169C53.5515 43.4179 52.9282 44.0678 52.1598 44.0678C51.3914 44.0678 50.7681 43.4179 50.7681 42.6169C50.7681 41.8158 51.3914 41.17 52.1598 41.17C52.9282 41.17 53.5515 41.8158 53.5515 42.6169Z" fill="#FF671B"/>
<path d="M57.268 40.1196C57.268 40.9207 56.6447 41.5705 55.8763 41.5705C55.1079 41.5705 54.4846 40.9207 54.4846 40.1196C54.4846 39.3185 55.1079 38.6687 55.8763 38.6687C56.6447 38.6687 57.268 39.3185 57.268 40.1196Z" fill="#FF671B"/>
<path d="M61.2275 37.9779C61.2275 38.779 60.6081 39.4289 59.8397 39.4289C59.0713 39.4289 58.448 38.779 58.448 37.9779C58.448 37.1769 59.0713 36.527 59.8397 36.527C60.6081 36.527 61.2275 37.1769 61.2275 37.9779Z" fill="#FF671B"/>
<path d="M65.4105 36.2246C65.4105 37.0256 64.7872 37.6755 64.0188 37.6755C63.2504 37.6755 62.6271 37.0256 62.6271 36.2246C62.6271 35.4235 63.2504 34.7736 64.0188 34.7736C64.7872 34.7736 65.4105 35.4235 65.4105 36.2246Z" fill="#FF671B"/>
<path d="M69.7817 34.8799C69.7817 35.681 69.1623 36.3308 68.3939 36.3308C67.6255 36.3308 67.0022 35.681 67.0022 34.8799C67.0022 34.0788 67.6255 33.4289 68.3939 33.4289C69.1623 33.4289 69.7817 34.0788 69.7817 34.8799Z" fill="#FF671B"/>
<path d="M74.3292 33.9684C74.3292 34.7695 73.7059 35.4194 72.9375 35.4194C72.1691 35.4194 71.5458 34.7695 71.5458 33.9684C71.5458 33.1674 72.1691 32.5175 72.9375 32.5175C73.7059 32.5175 74.3292 33.1674 74.3292 33.9684Z" fill="#FF671B"/>
<path d="M79.0101 33.5107C79.0101 34.3118 78.3868 34.9616 77.6184 34.9616C76.85 34.9616 76.2267 34.3118 76.2267 33.5107C76.2267 32.7096 76.85 32.0597 77.6184 32.0597C78.3868 32.0597 79.0101 32.7096 79.0101 33.5107Z" fill="#FF671B"/>
<path d="M83.7263 33.5189C83.7263 34.324 83.1029 34.9698 82.3346 34.9698C81.5662 34.9698 80.9428 34.324 80.9428 33.5189C80.9428 32.7178 81.5662 32.072 82.3346 32.072C83.1029 32.072 83.7263 32.7178 83.7263 33.5189Z" fill="#FF671B"/>
<path d="M88.3052 33.9889C88.3052 34.79 87.6858 35.4398 86.9174 35.4398C86.149 35.4398 85.5257 34.79 85.5257 33.9889C85.5257 33.1878 86.149 32.5379 86.9174 32.5379C87.6858 32.5379 88.3052 33.1878 88.3052 33.9889Z" fill="#FF671B"/>
<path d="M92.7391 34.8921C92.7391 35.6932 92.1158 36.3431 91.3474 36.3431C90.5829 36.3431 89.9596 35.6932 89.9596 34.8921C89.9596 34.0911 90.5829 33.4412 91.3474 33.4412C92.1158 33.4412 92.7391 34.0911 92.7391 34.8921Z" fill="#FF671B"/>
<path d="M97.0044 36.2041C97.0044 37.0052 96.3811 37.6551 95.6127 37.6551C94.8482 37.6551 94.2249 37.0052 94.2249 36.2041C94.2249 35.403 94.8482 34.7532 95.6127 34.7532C96.3811 34.7532 97.0044 35.403 97.0044 36.2041Z" fill="#FF671B"/>
<path d="M101.082 37.9085C101.082 38.7055 100.458 39.3553 99.6859 39.3553C98.9215 39.3553 98.2981 38.7055 98.2981 37.9085C98.2981 37.1074 98.9215 36.4575 99.6859 36.4575C100.458 36.4575 101.082 37.1074 101.082 37.9085Z" fill="#FF671B"/>
<path d="M104.955 39.9725C104.955 40.7776 104.331 41.4234 103.563 41.4234C102.795 41.4234 102.171 40.7776 102.171 39.9725C102.171 39.1755 102.795 38.5256 103.563 38.5256C104.331 38.5256 104.955 39.1755 104.955 39.9725Z" fill="#FF671B"/>
<path d="M108.644 42.3839C108.644 43.185 108.021 43.8348 107.252 43.8348C106.488 43.8348 105.86 43.185 105.86 42.3839C105.86 41.5828 106.488 40.937 107.252 40.937C108.021 40.937 108.644 41.5828 108.644 42.3839Z" fill="#FF671B"/>
<path d="M128.704 92.3534C128.704 93.0809 128.14 93.6695 127.438 93.6695C126.74 93.6695 126.176 93.0809 126.176 92.3534C126.176 91.6259 126.74 91.0333 127.438 91.0333C128.14 91.0333 128.704 91.6259 128.704 92.3534Z" fill="#FF671B"/>
<path d="M127.316 97.2171C127.316 97.9446 126.748 98.5332 126.05 98.5332C125.352 98.5332 124.784 97.9446 124.784 97.2171C124.784 96.4855 125.352 95.897 126.05 95.897C126.748 95.897 127.316 96.4855 127.316 97.2171Z" fill="#FF671B"/>
<path d="M125.439 101.856C125.439 102.584 124.874 103.176 124.176 103.176C123.478 103.176 122.91 102.584 122.91 101.856C122.91 101.129 123.478 100.54 124.176 100.54C124.874 100.54 125.439 101.129 125.439 101.856Z" fill="#FF671B"/>
<path d="M123.106 106.25C123.106 106.977 122.541 107.566 121.844 107.566C121.146 107.566 120.577 106.977 120.577 106.25C120.577 105.522 121.146 104.93 121.844 104.93C122.541 104.93 123.106 105.522 123.106 106.25Z" fill="#FF671B"/>
<path d="M120.346 110.361C120.346 111.089 119.781 111.677 119.08 111.677C118.386 111.677 117.817 111.089 117.817 110.361C117.817 109.634 118.386 109.041 119.08 109.041C119.781 109.041 120.346 109.634 120.346 110.361Z" fill="#FF671B"/>
<path d="M117.186 114.162C117.186 114.89 116.618 115.483 115.92 115.483C115.222 115.483 114.654 114.89 114.654 114.162C114.654 113.435 115.222 112.846 115.92 112.846C116.618 112.846 117.186 113.435 117.186 114.162Z" fill="#FF671B"/>
<path d="M113.654 117.628C113.654 118.36 113.09 118.949 112.392 118.949C111.69 118.949 111.125 118.36 111.125 117.628C111.125 116.901 111.69 116.312 112.392 116.312C113.09 116.312 113.654 116.901 113.654 117.628Z" fill="#FF671B"/>
<path d="M109.781 120.731C109.781 121.458 109.216 122.051 108.518 122.051C107.821 122.051 107.252 121.458 107.252 120.731C107.252 120.003 107.821 119.414 108.518 119.414C109.216 119.414 109.781 120.003 109.781 120.731Z" fill="#FF671B"/>
<path d="M105.598 123.436C105.598 124.164 105.029 124.756 104.331 124.756C103.634 124.756 103.065 124.164 103.065 123.436C103.065 122.709 103.634 122.12 104.331 122.12C105.029 122.12 105.598 122.709 105.598 123.436Z" fill="#FF671B"/>
<path d="M101.129 125.721C101.129 126.448 100.56 127.037 99.8623 127.037C99.1645 127.037 98.5961 126.448 98.5961 125.721C98.5961 124.993 99.1645 124.401 99.8623 124.401C100.56 124.401 101.129 124.993 101.129 125.721Z" fill="#FF671B"/>
<path d="M96.4046 127.552C96.4046 128.279 95.8362 128.868 95.1383 128.868C94.4405 128.868 93.8721 128.279 93.8721 127.552C93.8721 126.82 94.4405 126.232 95.1383 126.232C95.8362 126.232 96.4046 126.82 96.4046 127.552Z" fill="#FF671B"/>
<path d="M91.614 128.88C91.614 129.608 91.0494 130.196 90.3477 130.196C89.6499 130.196 89.0854 129.608 89.0854 128.88C89.0854 128.153 89.6499 127.56 90.3477 127.56C91.0494 127.56 91.614 128.153 91.614 128.88Z" fill="#FF671B"/>
<path d="M86.6038 129.735C86.6038 130.466 86.0393 131.055 85.3375 131.055C84.6397 131.055 84.0713 130.466 84.0713 129.735C84.0713 129.007 84.6397 128.418 85.3375 128.418C86.0393 128.418 86.6038 129.007 86.6038 129.735Z" fill="#FF671B"/>
<path d="M81.5544 130.049C81.5544 130.781 80.9899 131.369 80.2921 131.369C79.5943 131.369 79.0258 130.781 79.0258 130.049C79.0258 129.322 79.5943 128.733 80.2921 128.733C80.9899 128.733 81.5544 129.322 81.5544 130.049Z" fill="#FF671B"/>
<path d="M76.5089 129.869C76.5089 130.597 75.9405 131.185 75.2427 131.185C74.5449 131.185 73.9764 130.597 73.9764 129.869C73.9764 129.138 74.5449 128.549 75.2427 128.549C75.9405 128.549 76.5089 129.138 76.5089 129.869Z" fill="#FF671B"/>
<path d="M71.4596 129.187C71.4596 129.914 70.8951 130.503 70.1933 130.503C69.4955 130.503 68.931 129.914 68.931 129.187C68.931 128.459 69.4955 127.867 70.1933 127.867C70.8951 127.867 71.4596 128.459 71.4596 129.187Z" fill="#FF671B"/>
<path d="M66.469 127.997C66.469 128.725 65.9005 129.314 65.2027 129.314C64.5049 129.314 63.9365 128.725 63.9365 127.997C63.9365 127.27 64.5049 126.677 65.2027 126.677C65.9005 126.677 66.469 127.27 66.469 127.997Z" fill="#FF671B"/>
<path d="M61.6823 126.318C61.6823 127.045 61.1178 127.634 60.416 127.634C59.7182 127.634 59.1537 127.045 59.1537 126.318C59.1537 125.59 59.7182 124.997 60.416 124.997C61.1178 124.997 61.6823 125.59 61.6823 126.318Z" fill="#FF671B"/>
<path d="M57.1308 124.176C57.1308 124.904 56.5663 125.492 55.8684 125.492C55.1667 125.492 54.6022 124.904 54.6022 124.176C54.6022 123.448 55.1667 122.856 55.8684 122.856C56.5663 122.856 57.1308 123.448 57.1308 124.176Z" fill="#FF671B"/>
<path d="M52.8459 121.601C52.8459 122.329 52.2774 122.917 51.5796 122.917C50.8818 122.917 50.3134 122.329 50.3134 121.601C50.3134 120.874 50.8818 120.281 51.5796 120.281C52.2774 120.281 52.8459 120.874 52.8459 121.601Z" fill="#FF671B"/>
<path d="M48.8472 118.622C48.8472 119.349 48.2826 119.938 47.5848 119.938C46.887 119.938 46.3185 119.349 46.3185 118.622C46.3185 117.894 46.887 117.301 47.5848 117.301C48.2826 117.301 48.8472 117.894 48.8472 118.622Z" fill="#FF671B"/>
<path d="M45.1738 115.262C45.1738 115.989 44.6053 116.582 43.9075 116.582C43.2097 116.582 42.6413 115.989 42.6413 115.262C42.6413 114.534 43.2097 113.946 43.9075 113.946C44.6053 113.946 45.1738 114.534 45.1738 115.262Z" fill="#FF671B"/>
<path d="M41.8415 111.555C41.8415 112.286 41.277 112.875 40.5792 112.875C39.8813 112.875 39.3129 112.286 39.3129 111.555C39.3129 110.827 39.8813 110.239 40.5792 110.239C41.277 110.239 41.8415 110.827 41.8415 111.555Z" fill="#FF671B"/>
<path d="M38.8895 107.529C38.8895 108.257 38.3211 108.849 37.6233 108.849C36.9254 108.849 36.357 108.257 36.357 107.529C36.357 106.801 36.9254 106.209 37.6233 106.209C38.3211 106.209 38.8895 106.801 38.8895 107.529Z" fill="#FF671B"/>
<path d="M36.3374 103.209C36.3374 103.936 35.7729 104.525 35.075 104.525C34.3772 104.525 33.8088 103.936 33.8088 103.209C33.8088 102.481 34.3772 101.889 35.075 101.889C35.7729 101.889 36.3374 102.481 36.3374 103.209Z" fill="#FF671B"/>
<path d="M34.2204 98.6231C34.2204 99.3506 33.652 99.9392 32.9541 99.9392C32.2563 99.9392 31.6918 99.3506 31.6918 98.6231C31.6918 97.8915 32.2563 97.303 32.9541 97.303C33.652 97.303 34.2204 97.8915 34.2204 98.6231Z" fill="#FF671B"/>
<path d="M32.5621 93.7962C32.5621 94.5278 31.9976 95.1163 31.2958 95.1163C30.598 95.1163 30.0296 94.5278 30.0296 93.7962C30.0296 93.0687 30.598 92.4801 31.2958 92.4801C31.9976 92.4801 32.5621 93.0687 32.5621 93.7962Z" fill="#FF671B"/>
<path d="M31.3899 88.7649C31.3899 89.4924 30.8254 90.0851 30.1237 90.0851C29.4259 90.0851 28.8613 89.4924 28.8613 88.7649C28.8613 88.0374 29.4259 87.4488 30.1237 87.4488C30.8254 87.4488 31.3899 88.0374 31.3899 88.7649Z" fill="#FF671B"/>
<path d="M30.7352 83.5538C30.7352 84.2813 30.1668 84.8698 29.469 84.8698C28.7711 84.8698 28.2027 84.2813 28.2027 83.5538C28.2027 82.8222 28.7711 82.2336 29.469 82.2336C30.1668 82.2336 30.7352 82.8222 30.7352 83.5538Z" fill="#FF671B"/>
<path d="M30.6215 78.2732C30.6215 79.0007 30.057 79.5892 29.3592 79.5892C28.6614 79.5892 28.0929 79.0007 28.0929 78.2732C28.0929 77.5416 28.6614 76.953 29.3592 76.953C30.057 76.953 30.6215 77.5416 30.6215 78.2732Z" fill="#FF671B"/>
<path d="M31.0567 73.013C31.0567 73.7405 30.4883 74.3291 29.7904 74.3291C29.0926 74.3291 28.5242 73.7405 28.5242 73.013C28.5242 72.2855 29.0926 71.6929 29.7904 71.6929C30.4883 71.6929 31.0567 72.2855 31.0567 73.013Z" fill="#FF671B"/>
<path d="M32.0133 67.8918C32.0133 68.6193 31.4487 69.212 30.7509 69.212C30.0492 69.212 29.4846 68.6193 29.4846 67.8918C29.4846 67.1643 30.0492 66.5717 30.7509 66.5717C31.4487 66.5717 32.0133 67.1643 32.0133 67.8918Z" fill="#FF671B"/>
<path d="M33.4755 62.9668C33.4755 63.6943 32.911 64.2869 32.2132 64.2869C31.5115 64.2869 30.9469 63.6943 30.9469 62.9668C30.9469 62.2393 31.5115 61.6507 32.2132 61.6507C32.911 61.6507 33.4755 62.2393 33.4755 62.9668Z" fill="#FF671B"/>
<path d="M35.4122 58.2666C35.4122 58.9941 34.8477 59.5826 34.1498 59.5826C33.4481 59.5826 32.8836 58.9941 32.8836 58.2666C32.8836 57.539 33.4481 56.9464 34.1498 56.9464C34.8477 56.9464 35.4122 57.539 35.4122 58.2666Z" fill="#FF671B"/>
<path d="M37.7957 53.8157C37.7957 54.5473 37.2312 55.1358 36.5334 55.1358C35.8316 55.1358 35.2671 54.5473 35.2671 53.8157C35.2671 53.0882 35.8316 52.4996 36.5334 52.4996C37.2312 52.4996 37.7957 53.0882 37.7957 53.8157Z" fill="#FF671B"/>
<path d="M40.5988 49.6468C40.5988 50.3784 40.0343 50.9669 39.3325 50.9669C38.6347 50.9669 38.0663 50.3784 38.0663 49.6468C38.0663 48.9193 38.6347 48.3307 39.3325 48.3307C40.0343 48.3307 40.5988 48.9193 40.5988 49.6468Z" fill="#FF671B"/>
<path d="M43.7899 45.7885C43.7899 46.516 43.2254 47.1046 42.5237 47.1046C41.8258 47.1046 41.2574 46.516 41.2574 45.7885C41.2574 45.061 41.8258 44.4683 42.5237 44.4683C43.2254 44.4683 43.7899 45.061 43.7899 45.7885Z" fill="#FF671B"/>
<path d="M47.3417 42.2613C47.3417 42.9929 46.7772 43.5814 46.0794 43.5814C45.3816 43.5814 44.8131 42.9929 44.8131 42.2613C44.8131 41.5338 45.3816 40.9452 46.0794 40.9452C46.7772 40.9452 47.3417 41.5338 47.3417 42.2613Z" fill="#FF671B"/>
<path d="M51.2307 39.1019C51.2307 39.8294 50.6623 40.4221 49.9644 40.4221C49.2666 40.4221 48.7021 39.8294 48.7021 39.1019C48.7021 38.3744 49.2666 37.7858 49.9644 37.7858C50.6623 37.7858 51.2307 38.3744 51.2307 39.1019Z" fill="#FF671B"/>
<path d="M55.4215 36.3349C55.4215 37.0624 54.857 37.6551 54.1592 37.6551C53.4614 37.6551 52.8929 37.0624 52.8929 36.3349C52.8929 35.6074 53.4614 35.0188 54.1592 35.0188C54.857 35.0188 55.4215 35.6074 55.4215 36.3349Z" fill="#FF671B"/>
<path d="M59.8907 33.9889C59.8907 34.7164 59.3262 35.3049 58.6284 35.3049C57.9305 35.3049 57.3621 34.7164 57.3621 33.9889C57.3621 33.2614 57.9305 32.6687 58.6284 32.6687C59.3262 32.6687 59.8907 33.2614 59.8907 33.9889Z" fill="#FF671B"/>
<path d="M64.6108 32.0884C64.6108 32.8159 64.0462 33.4085 63.3484 33.4085C62.6506 33.4085 62.0822 32.8159 62.0822 32.0884C62.0822 31.3608 62.6506 30.7723 63.3484 30.7723C64.0462 30.7723 64.6108 31.3608 64.6108 32.0884Z" fill="#FF671B"/>
<path d="M69.5504 30.6701C69.5504 31.3976 68.9858 31.9862 68.288 31.9862C67.5902 31.9862 67.0218 31.3976 67.0218 30.6701C67.0218 29.9385 67.5902 29.35 68.288 29.35C68.9858 29.35 69.5504 29.9385 69.5504 30.6701Z" fill="#FF671B"/>
<path d="M74.686 29.7505C74.686 30.478 74.1175 31.0707 73.4197 31.0707C72.7219 31.0707 72.1574 30.478 72.1574 29.7505C72.1574 29.023 72.7219 28.4344 73.4197 28.4344C74.1175 28.4344 74.686 29.023 74.686 29.7505Z" fill="#FF671B"/>
<path d="M79.951 29.3663C79.951 30.0938 79.3865 30.6865 78.6887 30.6865C77.9908 30.6865 77.4224 30.0938 77.4224 29.3663C77.4224 28.6388 77.9908 28.0502 78.6887 28.0502C79.3865 28.0502 79.951 28.6388 79.951 29.3663Z" fill="#FF671B"/>
<path d="M85.2042 29.5216C85.2042 30.2491 84.6397 30.8377 83.9419 30.8377C83.2402 30.8377 82.6756 30.2491 82.6756 29.5216C82.6756 28.79 83.2402 28.2015 83.9419 28.2015C84.6397 28.2015 85.2042 28.79 85.2042 29.5216Z" fill="#FF671B"/>
<path d="M90.2968 30.196C90.2968 30.9235 89.7283 31.5121 89.0305 31.5121C88.3327 31.5121 87.7642 30.9235 87.7642 30.196C87.7642 29.4685 88.3327 28.8759 89.0305 28.8759C89.7283 28.8759 90.2968 29.4685 90.2968 30.196Z" fill="#FF671B"/>
<path d="M95.2089 31.3649C95.2089 32.0924 94.6444 32.681 93.9426 32.681C93.2448 32.681 92.6803 32.0924 92.6803 31.3649C92.6803 30.6333 93.2448 30.0448 93.9426 30.0448C94.6444 30.0448 95.2089 30.6333 95.2089 31.3649Z" fill="#FF671B"/>
<path d="M99.9172 32.9998C99.9172 33.7273 99.3527 34.3159 98.651 34.3159C97.9531 34.3159 97.3886 33.7273 97.3886 32.9998C97.3886 32.2723 97.9531 31.6796 98.651 31.6796C99.3527 31.6796 99.9172 32.2723 99.9172 32.9998Z" fill="#FF671B"/>
<path d="M104.394 35.072C104.394 35.8036 103.83 36.3921 103.132 36.3921C102.434 36.3921 101.866 35.8036 101.866 35.072C101.866 34.3445 102.434 33.7559 103.132 33.7559C103.83 33.7559 104.394 34.3445 104.394 35.072Z" fill="#FF671B"/>
<path d="M108.64 37.5611C108.64 38.2927 108.075 38.8812 107.378 38.8812C106.68 38.8812 106.111 38.2927 106.111 37.5611C106.111 36.8335 106.68 36.245 107.378 36.245C108.075 36.245 108.64 36.8335 108.64 37.5611Z" fill="#FF671B"/>
<path d="M112.705 40.4384C112.705 41.1659 112.141 41.7545 111.439 41.7545C110.741 41.7545 110.177 41.1659 110.177 40.4384C110.177 39.7068 110.741 39.1183 111.439 39.1183C112.141 39.1183 112.705 39.7068 112.705 40.4384Z" fill="#FF671B"/>
<path d="M133.522 88.6096C133.522 89.2635 133.013 89.799 132.385 89.799C131.754 89.799 131.245 89.2635 131.245 88.6096C131.245 87.9556 131.754 87.4243 132.385 87.4243C133.013 87.4243 133.522 87.9556 133.522 88.6096Z" fill="#FF671B"/>
<path d="M132.93 93.6041C132.93 94.2621 132.421 94.7935 131.793 94.7935C131.162 94.7935 130.653 94.2621 130.653 93.6041C130.653 92.9502 131.162 92.4188 131.793 92.4188C132.421 92.4188 132.93 92.9502 132.93 93.6041Z" fill="#FF671B"/>
<path d="M131.037 98.8397C131.037 99.4937 130.527 100.025 129.9 100.025C129.273 100.025 128.763 99.4937 128.763 98.8397C128.763 98.1858 129.273 97.6544 129.9 97.6544C130.527 97.6544 131.037 98.1858 131.037 98.8397Z" fill="#FF671B"/>
<path d="M128.587 104.664C128.587 105.318 128.077 105.849 127.446 105.849C126.818 105.849 126.309 105.318 126.309 104.664C126.309 104.006 126.818 103.475 127.446 103.475C128.077 103.475 128.587 104.006 128.587 104.664Z" fill="#FF671B"/>
<path d="M125.874 109.47C125.874 110.128 125.364 110.66 124.737 110.66C124.106 110.66 123.596 110.128 123.596 109.47C123.596 108.816 124.106 108.285 124.737 108.285C125.364 108.285 125.874 108.816 125.874 109.47Z" fill="#FF671B"/>
<path d="M122.683 113.954C122.683 114.612 122.173 115.143 121.546 115.143C120.918 115.143 120.409 114.612 120.409 113.954C120.409 113.3 120.918 112.769 121.546 112.769C122.173 112.769 122.683 113.3 122.683 113.954Z" fill="#FF671B"/>
<path d="M119.052 118.078C119.052 118.736 118.543 119.267 117.912 119.267C117.284 119.267 116.775 118.736 116.775 118.078C116.775 117.424 117.284 116.893 117.912 116.893C118.543 116.893 119.052 117.424 119.052 118.078Z" fill="#FF671B"/>
<path d="M115.007 121.81C115.007 122.463 114.497 122.995 113.87 122.995C113.242 122.995 112.733 122.463 112.733 121.81C112.733 121.156 113.242 120.624 113.87 120.624C114.497 120.624 115.007 121.156 115.007 121.81Z" fill="#FF671B"/>
<path d="M110.588 125.112C110.588 125.77 110.079 126.301 109.451 126.301C108.82 126.301 108.311 125.77 108.311 125.112C108.311 124.458 108.82 123.927 109.451 123.927C110.079 123.927 110.588 124.458 110.588 125.112Z" fill="#FF671B"/>
<path d="M105.825 127.957C105.825 128.611 105.316 129.142 104.688 129.142C104.061 129.142 103.551 128.611 103.551 127.957C103.551 127.303 104.061 126.771 104.688 126.771C105.316 126.771 105.825 127.303 105.825 127.957Z" fill="#FF671B"/>
<path d="M100.756 130.307C100.756 130.961 100.247 131.492 99.6153 131.492C98.9881 131.492 98.4785 130.961 98.4785 130.307C98.4785 129.653 98.9881 129.121 99.6153 129.121C100.247 129.121 100.756 129.653 100.756 130.307Z" fill="#FF671B"/>
<path d="M95.5265 132.113C95.5265 132.767 95.0168 133.303 94.3896 133.303C93.7623 133.303 93.2487 132.767 93.2487 132.113C93.2487 131.459 93.7623 130.928 94.3896 130.928C95.0168 130.928 95.5265 131.459 95.5265 132.113Z" fill="#FF671B"/>
<path d="M90.0458 133.388C90.0458 134.042 89.5362 134.574 88.9089 134.574C88.2778 134.574 87.7681 134.042 87.7681 133.388C87.7681 132.734 88.2778 132.203 88.9089 132.203C89.5362 132.203 90.0458 132.734 90.0458 133.388Z" fill="#FF671B"/>
<path d="M84.5417 134.046C84.5417 134.7 84.032 135.232 83.4048 135.232C82.7736 135.232 82.264 134.7 82.264 134.046C82.264 133.393 82.7736 132.861 83.4048 132.861C84.032 132.861 84.5417 133.393 84.5417 134.046Z" fill="#FF671B"/>
<path d="M78.9749 134.153C78.9749 134.807 78.4652 135.338 77.838 135.338C77.2068 135.338 76.6971 134.807 76.6971 134.153C76.6971 133.495 77.2068 132.963 77.838 132.963C78.4652 132.963 78.9749 133.495 78.9749 134.153Z" fill="#FF671B"/>
<path d="M73.3374 133.691C73.3374 134.345 72.8278 134.876 72.1966 134.876C71.5693 134.876 71.0597 134.345 71.0597 133.691C71.0597 133.037 71.5693 132.506 72.1966 132.506C72.8278 132.506 73.3374 133.037 73.3374 133.691Z" fill="#FF671B"/>
<path d="M67.7 132.645C67.7 133.299 67.1903 133.83 66.5631 133.83C65.9358 133.83 65.4262 133.299 65.4262 132.645C65.4262 131.987 65.9358 131.455 66.5631 131.455C67.1903 131.455 67.7 131.987 67.7 132.645Z" fill="#FF671B"/>
<path d="M62.286 131.026C62.286 131.68 61.7764 132.211 61.1491 132.211C60.5179 132.211 60.0083 131.68 60.0083 131.026C60.0083 130.372 60.5179 129.841 61.1491 129.841C61.7764 129.841 62.286 130.372 62.286 131.026Z" fill="#FF671B"/>
<path d="M57.123 128.868C57.123 129.526 56.6133 130.057 55.9861 130.057C55.3549 130.057 54.8452 129.526 54.8452 128.868C54.8452 128.214 55.3549 127.683 55.9861 127.683C56.6133 127.683 57.123 128.214 57.123 128.868Z" fill="#FF671B"/>
<path d="M52.2461 126.207C52.2461 126.865 51.7364 127.397 51.1092 127.397C50.478 127.397 49.9684 126.865 49.9684 126.207C49.9684 125.553 50.478 125.022 51.1092 125.022C51.7364 125.022 52.2461 125.553 52.2461 126.207Z" fill="#FF671B"/>
<path d="M47.6867 123.077C47.6867 123.73 47.1771 124.262 46.5498 124.262C45.9226 124.262 45.409 123.73 45.409 123.077C45.409 122.419 45.9226 121.887 46.5498 121.887C47.1771 121.887 47.6867 122.419 47.6867 123.077Z" fill="#FF671B"/>
<path d="M43.4802 119.5C43.4802 120.158 42.9706 120.69 42.3394 120.69C41.7122 120.69 41.2025 120.158 41.2025 119.5C41.2025 118.846 41.7122 118.315 42.3394 118.315C42.9706 118.315 43.4802 118.846 43.4802 119.5Z" fill="#FF671B"/>
<path d="M39.654 115.519C39.654 116.177 39.1443 116.709 38.5171 116.709C37.8859 116.709 37.3763 116.177 37.3763 115.519C37.3763 114.865 37.8859 114.334 38.5171 114.334C39.1443 114.334 39.654 114.865 39.654 115.519Z" fill="#FF671B"/>
<path d="M36.2433 111.167C36.2433 111.821 35.7337 112.352 35.1064 112.352C34.4792 112.352 33.9695 111.821 33.9695 111.167C33.9695 110.513 34.4792 109.981 35.1064 109.981C35.7337 109.981 36.2433 110.513 36.2433 111.167Z" fill="#FF671B"/>
<path d="M33.2834 106.47C33.2834 107.124 32.7738 107.656 32.1466 107.656C31.5154 107.656 31.0057 107.124 31.0057 106.47C31.0057 105.812 31.5154 105.281 32.1466 105.281C32.7738 105.281 33.2834 105.812 33.2834 106.47Z" fill="#FF671B"/>
<path d="M30.8019 101.464C30.8019 102.118 30.2922 102.649 29.665 102.649C29.0377 102.649 28.5281 102.118 28.5281 101.464C28.5281 100.81 29.0377 100.278 29.665 100.278C30.2922 100.278 30.8019 100.81 30.8019 101.464Z" fill="#FF671B"/>
<path d="M28.8378 96.179C28.8378 96.8329 28.3282 97.3643 27.7009 97.3643C27.0697 97.3643 26.5601 96.8329 26.5601 96.179C26.5601 95.525 27.0697 94.9937 27.7009 94.9937C28.3282 94.9937 28.8378 95.525 28.8378 96.179Z" fill="#FF671B"/>
<path d="M27.4186 90.6532C27.4186 91.3071 26.909 91.8384 26.2778 91.8384C25.6506 91.8384 25.1409 91.3071 25.1409 90.6532C25.1409 89.9951 25.6506 89.4638 26.2778 89.4638C26.909 89.4638 27.4186 89.9951 27.4186 90.6532Z" fill="#FF671B"/>
<path d="M26.5758 84.9107C26.5758 85.5687 26.0661 86.1001 25.4389 86.1001C24.8077 86.1001 24.2981 85.5687 24.2981 84.9107C24.2981 84.2568 24.8077 83.7254 25.4389 83.7254C26.0661 83.7254 26.5758 84.2568 26.5758 84.9107Z" fill="#FF671B"/>
<path d="M26.3445 79.0579C26.3445 79.7119 25.8348 80.2473 25.2076 80.2473C24.5803 80.2473 24.0707 79.7119 24.0707 79.0579C24.0707 78.404 24.5803 77.8726 25.2076 77.8726C25.8348 77.8726 26.3445 78.404 26.3445 79.0579Z" fill="#FF671B"/>
<path d="M26.7365 73.2174C26.7365 73.8713 26.2269 74.4027 25.5996 74.4027C24.9724 74.4027 24.4588 73.8713 24.4588 73.2174C24.4588 72.5634 24.9724 72.0321 25.5996 72.0321C26.2269 72.0321 26.7365 72.5634 26.7365 73.2174Z" fill="#FF671B"/>
<path d="M27.7283 67.5199C27.7283 68.1779 27.2187 68.7092 26.5914 68.7092C25.9642 68.7092 25.4506 68.1779 25.4506 67.5199C25.4506 66.8659 25.9642 66.3346 26.5914 66.3346C27.2187 66.3346 27.7283 66.8659 27.7283 67.5199Z" fill="#FF671B"/>
<path d="M29.2965 62.0431C29.2965 62.697 28.7868 63.2284 28.1557 63.2284C27.5284 63.2284 27.0188 62.697 27.0188 62.0431C27.0188 61.3891 27.5284 60.8537 28.1557 60.8537C28.7868 60.8537 29.2965 61.3891 29.2965 62.0431Z" fill="#FF671B"/>
<path d="M31.4017 56.8156C31.4017 57.4696 30.8921 58.0009 30.2648 58.0009C29.6336 58.0009 29.124 57.4696 29.124 56.8156C29.124 56.1617 29.6336 55.6304 30.2648 55.6304C30.8921 55.6304 31.4017 56.1617 31.4017 56.8156Z" fill="#FF671B"/>
<path d="M34.0166 51.8702C34.0166 52.5241 33.5069 53.0595 32.8797 53.0595C32.2524 53.0595 31.7428 52.5241 31.7428 51.8702C31.7428 51.2162 32.2524 50.6849 32.8797 50.6849C33.5069 50.6849 34.0166 51.2162 34.0166 51.8702Z" fill="#FF671B"/>
<path d="M37.1097 47.2435C37.1097 47.8975 36.6 48.4288 35.9689 48.4288C35.3416 48.4288 34.832 47.8975 34.832 47.2435C34.832 46.5896 35.3416 46.0582 35.9689 46.0582C36.6 46.0582 37.1097 46.5896 37.1097 47.2435Z" fill="#FF671B"/>
<path d="M40.6419 42.9643C40.6419 43.6223 40.1323 44.1536 39.505 44.1536C38.8778 44.1536 38.3642 43.6223 38.3642 42.9643C38.3642 42.3103 38.8778 41.779 39.505 41.779C40.1323 41.779 40.6419 42.3103 40.6419 42.9643Z" fill="#FF671B"/>
<path d="M44.5857 39.0692C44.5857 39.7232 44.0761 40.2545 43.4488 40.2545C42.8216 40.2545 42.312 39.7232 42.312 39.0692C42.312 38.4153 42.8216 37.8839 43.4488 37.8839C44.0761 37.8839 44.5857 38.4153 44.5857 39.0692Z" fill="#FF671B"/>
<path d="M48.9099 35.587C48.9099 36.2409 48.4002 36.7763 47.773 36.7763C47.1418 36.7763 46.6321 36.2409 46.6321 35.587C46.6321 34.933 47.1418 34.4017 47.773 34.4017C48.4002 34.4017 48.9099 34.933 48.9099 35.587Z" fill="#FF671B"/>
<path d="M53.575 32.5502C53.575 33.2082 53.0654 33.7396 52.4381 33.7396C51.8109 33.7396 51.2973 33.2082 51.2973 32.5502C51.2973 31.8963 51.8109 31.3649 52.4381 31.3649C53.0654 31.3649 53.575 31.8963 53.575 32.5502Z" fill="#FF671B"/>
<path d="M58.5538 29.9957C58.5538 30.6538 58.0481 31.1851 57.417 31.1851C56.7897 31.1851 56.2801 30.6538 56.2801 29.9957C56.2801 29.3418 56.7897 28.8105 57.417 28.8105C58.0481 28.8105 58.5538 29.3418 58.5538 29.9957Z" fill="#FF671B"/>
<path d="M63.8149 27.9522C63.8149 28.6102 63.3053 29.1415 62.678 29.1415C62.0469 29.1415 61.5372 28.6102 61.5372 27.9522C61.5372 27.2982 62.0469 26.7669 62.678 26.7669C63.3053 26.7669 63.8149 27.2982 63.8149 27.9522Z" fill="#FF671B"/>
<path d="M69.3191 26.4563C69.3191 27.1102 68.8094 27.6415 68.1822 27.6415C67.5549 27.6415 67.0414 27.1102 67.0414 26.4563C67.0414 25.7982 67.5549 25.2669 68.1822 25.2669C68.8094 25.2669 69.3191 25.7982 69.3191 26.4563Z" fill="#FF671B"/>
<path d="M75.0388 25.5326C75.0388 26.1906 74.5292 26.7219 73.9019 26.7219C73.2747 26.7219 72.765 26.1906 72.765 25.5326C72.765 24.8786 73.2747 24.3473 73.9019 24.3473C74.5292 24.3473 75.0388 24.8786 75.0388 25.5326Z" fill="#FF671B"/>
<path d="M80.8958 25.2219C80.8958 25.8759 80.3862 26.4072 79.7589 26.4072C79.1277 26.4072 78.6181 25.8759 78.6181 25.2219C78.6181 24.568 79.1277 24.0367 79.7589 24.0367C80.3862 24.0367 80.8958 24.568 80.8958 25.2219Z" fill="#FF671B"/>
<path d="M86.6822 25.5203C86.6822 26.1742 86.1726 26.7056 85.5453 26.7056C84.9181 26.7056 84.4084 26.1742 84.4084 25.5203C84.4084 24.8623 84.9181 24.3309 85.5453 24.3309C86.1726 24.3309 86.6822 24.8623 86.6822 25.5203Z" fill="#FF671B"/>
<path d="M92.2843 26.399C92.2843 27.0571 91.7747 27.5884 91.1474 27.5884C90.5163 27.5884 90.0066 27.0571 90.0066 26.399C90.0066 25.7451 90.5163 25.2138 91.1474 25.2138C91.7747 25.2138 92.2843 25.7451 92.2843 26.399Z" fill="#FF671B"/>
<path d="M97.6748 27.8336C97.6748 28.4917 97.1651 29.023 96.5379 29.023C95.9106 29.023 95.401 28.4917 95.401 27.8336C95.401 27.1797 95.9106 26.6483 96.5379 26.6483C97.1651 26.6483 97.6748 27.1797 97.6748 27.8336Z" fill="#FF671B"/>
<path d="M102.83 29.7914C102.83 30.4453 102.32 30.9766 101.689 30.9766C101.062 30.9766 100.552 30.4453 100.552 29.7914C100.552 29.1374 101.062 28.6061 101.689 28.6061C102.32 28.6061 102.83 29.1374 102.83 29.7914Z" fill="#FF671B"/>
<path d="M107.711 32.2396C107.711 32.8976 107.201 33.4289 106.574 33.4289C105.947 33.4289 105.437 32.8976 105.437 32.2396C105.437 31.5856 105.947 31.0543 106.574 31.0543C107.201 31.0543 107.711 31.5856 107.711 32.2396Z" fill="#FF671B"/>
<path d="M112.329 35.1496C112.329 35.8077 111.815 36.339 111.188 36.339C110.561 36.339 110.051 35.8077 110.051 35.1496C110.051 34.4957 110.561 33.9644 111.188 33.9644C111.815 33.9644 112.329 34.4957 112.329 35.1496Z" fill="#FF671B"/>
<path d="M116.767 38.4888C116.767 39.1428 116.257 39.6741 115.63 39.6741C115.003 39.6741 114.489 39.1428 114.489 38.4888C114.489 37.8308 115.003 37.2995 115.63 37.2995C116.257 37.2995 116.767 37.8308 116.767 38.4888Z" fill="#FF671B"/>
<path d="M138.34 84.8698C138.34 85.4502 137.889 85.9243 137.329 85.9243C136.768 85.9243 136.317 85.4502 136.317 84.8698C136.317 84.2854 136.768 83.8154 137.329 83.8154C137.889 83.8154 138.34 84.2854 138.34 84.8698Z" fill="#FF671B"/>
<path d="M137.889 89.2758C137.889 89.8603 137.435 90.3344 136.878 90.3344C136.317 90.3344 135.867 89.8603 135.867 89.2758C135.867 88.6954 136.317 88.2213 136.878 88.2213C137.435 88.2213 137.889 88.6954 137.889 89.2758Z" fill="#FF671B"/>
<path d="M136.713 94.9079C136.713 95.4923 136.259 95.9624 135.698 95.9624C135.141 95.9624 134.687 95.4923 134.687 94.9079C134.687 94.3275 135.141 93.8534 135.698 93.8534C136.259 93.8534 136.713 94.3275 136.713 94.9079Z" fill="#FF671B"/>
<path d="M134.067 103.078C134.067 103.658 133.612 104.133 133.052 104.133C132.495 104.133 132.04 103.658 132.04 103.078C132.04 102.494 132.495 102.024 133.052 102.024C133.612 102.024 134.067 102.494 134.067 103.078Z" fill="#FF671B"/>
<path d="M135.565 99.0318C135.565 99.6122 135.11 100.086 134.553 100.086C133.993 100.086 133.542 99.6122 133.542 99.0318C133.542 98.4474 133.993 97.9773 134.553 97.9773C135.11 97.9773 135.565 98.4474 135.565 99.0318Z" fill="#FF671B"/>
<path d="M131.401 108.584C131.401 109.168 130.947 109.638 130.39 109.638C129.829 109.638 129.378 109.168 129.378 108.584C129.378 108.003 129.829 107.529 130.39 107.529C130.947 107.529 131.401 108.003 131.401 108.584Z" fill="#FF671B"/>
<path d="M128.183 113.746C128.183 114.33 127.732 114.8 127.171 114.8C126.615 114.8 126.16 114.33 126.16 113.746C126.16 113.165 126.615 112.691 127.171 112.691C127.732 112.691 128.183 113.165 128.183 113.746Z" fill="#FF671B"/>
<path d="M124.451 118.528C124.451 119.112 123.996 119.582 123.435 119.582C122.879 119.582 122.424 119.112 122.424 118.528C122.424 117.947 122.879 117.473 123.435 117.473C123.996 117.473 124.451 117.947 124.451 118.528Z" fill="#FF671B"/>
<path d="M120.236 122.889C120.236 123.473 119.781 123.943 119.225 123.943C118.664 123.943 118.209 123.473 118.209 122.889C118.209 122.304 118.664 121.834 119.225 121.834C119.781 121.834 120.236 122.304 120.236 122.889Z" fill="#FF671B"/>
<path d="M115.583 126.792C115.583 127.372 115.128 127.846 114.567 127.846C114.011 127.846 113.556 127.372 113.556 126.792C113.556 126.207 114.011 125.737 114.567 125.737C115.128 125.737 115.583 126.207 115.583 126.792Z" fill="#FF671B"/>
<path d="M110.526 130.196C110.526 130.777 110.075 131.251 109.514 131.251C108.954 131.251 108.503 130.777 108.503 130.196C108.503 129.612 108.954 129.142 109.514 129.142C110.075 129.142 110.526 129.612 110.526 130.196Z" fill="#FF671B"/>
<path d="M105.108 133.061C105.108 133.646 104.653 134.116 104.096 134.116C103.536 134.116 103.085 133.646 103.085 133.061C103.085 132.481 103.536 132.007 104.096 132.007C104.653 132.007 105.108 132.481 105.108 133.061Z" fill="#FF671B"/>
<path d="M99.4429 135.35C99.4429 135.931 98.992 136.405 98.4314 136.405C97.8708 136.405 97.42 135.931 97.42 135.35C97.42 134.766 97.8708 134.296 98.4314 134.296C98.992 134.296 99.4429 134.766 99.4429 135.35Z" fill="#FF671B"/>
<path d="M93.4879 137.038C93.4879 137.623 93.0331 138.093 92.4764 138.093C91.9198 138.093 91.465 137.623 91.465 137.038C91.465 136.458 91.9198 135.984 92.4764 135.984C93.0331 135.984 93.4879 136.458 93.4879 137.038Z" fill="#FF671B"/>
<path d="M87.529 138.04C87.529 138.624 87.0742 139.094 86.5136 139.094C85.9569 139.094 85.5061 138.624 85.5061 138.04C85.5061 137.459 85.9569 136.985 86.5136 136.985C87.0742 136.985 87.529 137.459 87.529 138.04Z" fill="#FF671B"/>
<path d="M81.4407 138.436C81.4407 139.016 80.9899 139.491 80.4293 139.491C79.8726 139.491 79.4178 139.016 79.4178 138.436C79.4178 137.852 79.8726 137.382 80.4293 137.382C80.9899 137.382 81.4407 137.852 81.4407 138.436Z" fill="#FF671B"/>
<path d="M75.2153 138.199C75.2153 138.779 74.7605 139.254 74.2038 139.254C73.6432 139.254 73.1884 138.779 73.1884 138.199C73.1884 137.615 73.6432 137.145 74.2038 137.145C74.7605 137.145 75.2153 137.615 75.2153 138.199Z" fill="#FF671B"/>
<path d="M68.9349 137.292C68.9349 137.872 68.484 138.346 67.9234 138.346C67.3628 138.346 66.912 137.872 66.912 137.292C66.912 136.707 67.3628 136.237 67.9234 136.237C68.484 136.237 68.9349 136.707 68.9349 137.292Z" fill="#FF671B"/>
<path d="M62.8897 135.734C62.8897 136.319 62.4389 136.789 61.8783 136.789C61.3177 136.789 60.8669 136.319 60.8669 135.734C60.8669 135.15 61.3177 134.68 61.8783 134.68C62.4389 134.68 62.8897 135.15 62.8897 135.734Z" fill="#FF671B"/>
<path d="M57.1151 133.564C57.1151 134.145 56.6643 134.619 56.1037 134.619C55.5431 134.619 55.0922 134.145 55.0922 133.564C55.0922 132.98 55.5431 132.51 56.1037 132.51C56.6643 132.51 57.1151 132.98 57.1151 133.564Z" fill="#FF671B"/>
<path d="M51.6502 130.818C51.6502 131.398 51.1954 131.872 50.6348 131.872C50.0781 131.872 49.6234 131.398 49.6234 130.818C49.6234 130.233 50.0781 129.763 50.6348 129.763C51.1954 129.763 51.6502 130.233 51.6502 130.818Z" fill="#FF671B"/>
<path d="M46.5263 127.527C46.5263 128.112 46.0715 128.582 45.5149 128.582C44.9543 128.582 44.5034 128.112 44.5034 127.527C44.5034 126.947 44.9543 126.473 45.5149 126.473C46.0715 126.473 46.5263 126.947 46.5263 127.527Z" fill="#FF671B"/>
<path d="M41.7866 123.739C41.7866 124.323 41.3319 124.797 40.7752 124.797C40.2146 124.797 39.7637 124.323 39.7637 123.739C39.7637 123.158 40.2146 122.684 40.7752 122.684C41.3319 122.684 41.7866 123.158 41.7866 123.739Z" fill="#FF671B"/>
<path d="M37.4664 119.488C37.4664 120.068 37.0117 120.543 36.4511 120.543C35.8944 120.543 35.4396 120.068 35.4396 119.488C35.4396 118.904 35.8944 118.434 36.4511 118.434C37.0117 118.434 37.4664 118.904 37.4664 119.488Z" fill="#FF671B"/>
<path d="M33.601 114.804C33.601 115.389 33.1462 115.859 32.5895 115.859C32.0289 115.859 31.5781 115.389 31.5781 114.804C31.5781 114.22 32.0289 113.75 32.5895 113.75C33.1462 113.75 33.601 114.22 33.601 114.804Z" fill="#FF671B"/>
<path d="M30.2295 109.732C30.2295 110.312 29.7748 110.786 29.2181 110.786C28.6575 110.786 28.2066 110.312 28.2066 109.732C28.2066 109.148 28.6575 108.678 29.2181 108.678C29.7748 108.678 30.2295 109.148 30.2295 109.732Z" fill="#FF671B"/>
<path d="M27.3873 104.304C27.3873 104.889 26.9364 105.359 26.3758 105.359C25.8152 105.359 25.3644 104.889 25.3644 104.304C25.3644 103.72 25.8152 103.25 26.3758 103.25C26.9364 103.25 27.3873 103.72 27.3873 104.304Z" fill="#FF671B"/>
<path d="M25.1135 98.5618C25.1135 99.1422 24.6627 99.6163 24.1021 99.6163C23.5454 99.6163 23.0906 99.1422 23.0906 98.5618C23.0906 97.9773 23.5454 97.5073 24.1021 97.5073C24.6627 97.5073 25.1135 97.9773 25.1135 98.5618Z" fill="#FF671B"/>
<path d="M23.4434 92.5373C23.4434 93.1218 22.9926 93.5918 22.432 93.5918C21.8753 93.5918 21.4205 93.1218 21.4205 92.5373C21.4205 91.957 21.8753 91.4828 22.432 91.4828C22.9926 91.4828 23.4434 91.957 23.4434 92.5373Z" fill="#FF671B"/>
<path d="M22.4163 86.2717C22.4163 86.8562 21.9655 87.3262 21.4048 87.3262C20.8482 87.3262 20.3934 86.8562 20.3934 86.2717C20.3934 85.6914 20.8482 85.2173 21.4048 85.2173C21.9655 85.2173 22.4163 85.6914 22.4163 86.2717Z" fill="#FF671B"/>
<path d="M22.0713 79.8467C22.0713 80.4271 21.6165 80.9012 21.0599 80.9012C20.4993 80.9012 20.0445 80.4271 20.0445 79.8467C20.0445 79.2623 20.4993 78.7922 21.0599 78.7922C21.6165 78.7922 22.0713 79.2623 22.0713 79.8467Z" fill="#FF671B"/>
<path d="M22.4202 73.4258C22.4202 74.0062 21.9694 74.4803 21.4088 74.4803C20.8521 74.4803 20.3973 74.0062 20.3973 73.4258C20.3973 72.8414 20.8521 72.3713 21.4088 72.3713C21.9694 72.3713 22.4202 72.8414 22.4202 73.4258Z" fill="#FF671B"/>
<path d="M23.4434 67.152C23.4434 67.7324 22.9926 68.2065 22.432 68.2065C21.8753 68.2065 21.4205 67.7324 21.4205 67.152C21.4205 66.5676 21.8753 66.0975 22.432 66.0975C22.9926 66.0975 23.4434 66.5676 23.4434 67.152Z" fill="#FF671B"/>
<path d="M25.1135 61.1153C25.1135 61.6998 24.6627 62.1739 24.1021 62.1739C23.5454 62.1739 23.0906 61.6998 23.0906 61.1153C23.0906 60.5349 23.5454 60.0608 24.1021 60.0608C24.6627 60.0608 25.1135 60.5349 25.1135 61.1153Z" fill="#FF671B"/>
<path d="M27.3912 55.3647C27.3912 55.9451 26.9404 56.4192 26.3798 56.4192C25.8192 56.4192 25.3683 55.9451 25.3683 55.3647C25.3683 54.7802 25.8192 54.3102 26.3798 54.3102C26.9404 54.3102 27.3912 54.7802 27.3912 55.3647Z" fill="#FF671B"/>
<path d="M30.2374 49.9247C30.2374 50.5092 29.7865 50.9792 29.2259 50.9792C28.6692 50.9792 28.2145 50.5092 28.2145 49.9247C28.2145 49.3443 28.6692 48.8702 29.2259 48.8702C29.7865 48.8702 30.2374 49.3443 30.2374 49.9247Z" fill="#FF671B"/>
<path d="M33.6206 44.8403C33.6206 45.4206 33.1658 45.8948 32.6092 45.8948C32.0486 45.8948 31.5977 45.4206 31.5977 44.8403C31.5977 44.2558 32.0486 43.7858 32.6092 43.7858C33.1658 43.7858 33.6206 44.2558 33.6206 44.8403Z" fill="#FF671B"/>
<path d="M37.4978 40.1441C37.4978 40.7286 37.043 41.1986 36.4863 41.1986C35.9257 41.1986 35.471 40.7286 35.471 40.1441C35.471 39.5597 35.9257 39.0896 36.4863 39.0896C37.043 39.0896 37.4978 39.5597 37.4978 40.1441Z" fill="#FF671B"/>
<path d="M41.8337 35.8771C41.8337 36.4575 41.3789 36.9316 40.8183 36.9316C40.2616 36.9316 39.8069 36.4575 39.8069 35.8771C39.8069 35.2927 40.2616 34.8227 40.8183 34.8227C41.3789 34.8227 41.8337 35.2927 41.8337 35.8771Z" fill="#FF671B"/>
<path d="M46.589 32.072C46.589 32.6565 46.1343 33.1265 45.5776 33.1265C45.017 33.1265 44.5661 32.6565 44.5661 32.072C44.5661 31.4875 45.017 31.0175 45.5776 31.0175C46.1343 31.0175 46.589 31.4875 46.589 32.072Z" fill="#FF671B"/>
<path d="M51.7325 28.7696C51.7325 29.354 51.2777 29.8241 50.7171 29.8241C50.1604 29.8241 49.7057 29.354 49.7057 28.7696C49.7057 28.1851 50.1604 27.7151 50.7171 27.7151C51.2777 27.7151 51.7325 28.1851 51.7325 28.7696Z" fill="#FF671B"/>
<path d="M57.221 26.0067C57.221 26.587 56.7662 27.0611 56.2056 27.0611C55.6489 27.0611 55.1942 26.587 55.1942 26.0067C55.1942 25.4222 55.6489 24.9522 56.2056 24.9522C56.7662 24.9522 57.221 25.4222 57.221 26.0067Z" fill="#FF671B"/>
<path d="M63.0191 23.816C63.0191 24.4004 62.5644 24.8745 62.0077 24.8745C61.4471 24.8745 60.9923 24.4004 60.9923 23.816C60.9923 23.2356 61.4471 22.7656 62.0077 22.7656C62.5644 22.7656 63.0191 23.2356 63.0191 23.816Z" fill="#FF671B"/>
<path d="M69.0878 22.2424C69.0878 22.8269 68.6369 23.2969 68.0763 23.2969C67.5196 23.2969 67.0649 22.8269 67.0649 22.2424C67.0649 21.6579 67.5196 21.1879 68.0763 21.1879C68.6369 21.1879 69.0878 21.6579 69.0878 22.2424Z" fill="#FF671B"/>
<path d="M75.3956 21.3187C75.3956 21.8991 74.9408 22.3732 74.3841 22.3732C73.8235 22.3732 73.3727 21.8991 73.3727 21.3187C73.3727 20.7342 73.8235 20.2642 74.3841 20.2642C74.9408 20.2642 75.3956 20.7342 75.3956 21.3187Z" fill="#FF671B"/>
<path d="M81.8406 21.0776C81.8406 21.662 81.3858 22.132 80.8291 22.132C80.2685 22.132 79.8177 21.662 79.8177 21.0776C79.8177 20.4972 80.2685 20.0231 80.8291 20.0231C81.3858 20.0231 81.8406 20.4972 81.8406 21.0776Z" fill="#FF671B"/>
<path d="M88.1602 21.519C88.1602 22.1034 87.7093 22.5734 87.1487 22.5734C86.592 22.5734 86.1373 22.1034 86.1373 21.519C86.1373 20.9345 86.592 20.4645 87.1487 20.4645C87.7093 20.4645 88.1602 20.9345 88.1602 21.519Z" fill="#FF671B"/>
<path d="M94.2719 22.6062C94.2719 23.1865 93.8211 23.6606 93.2605 23.6606C92.7038 23.6606 92.2491 23.1865 92.2491 22.6062C92.2491 22.0217 92.7038 21.5517 93.2605 21.5517C93.8211 21.5517 94.2719 22.0217 94.2719 22.6062Z" fill="#FF671B"/>
<path d="M100.145 24.3064C100.145 24.8909 99.6938 25.3609 99.1331 25.3609C98.5765 25.3609 98.1217 24.8909 98.1217 24.3064C98.1217 23.726 98.5765 23.2519 99.1331 23.2519C99.6938 23.2519 100.145 23.726 100.145 24.3064Z" fill="#FF671B"/>
<path d="M105.743 26.587C105.743 27.1674 105.288 27.6415 104.727 27.6415C104.171 27.6415 103.716 27.1674 103.716 26.587C103.716 26.0026 104.171 25.5326 104.727 25.5326C105.288 25.5326 105.743 26.0026 105.743 26.587Z" fill="#FF671B"/>
<path d="M111.027 29.4072C111.027 29.9916 110.577 30.4617 110.016 30.4617C109.459 30.4617 109.005 29.9916 109.005 29.4072C109.005 28.8268 109.459 28.3527 110.016 28.3527C110.577 28.3527 111.027 28.8268 111.027 29.4072Z" fill="#FF671B"/>
<path d="M116.014 32.7423C116.014 33.3227 115.563 33.7968 115.003 33.7968C114.446 33.7968 113.991 33.3227 113.991 32.7423C113.991 32.1578 114.446 31.6837 115.003 31.6837C115.563 31.6837 116.014 32.1578 116.014 32.7423Z" fill="#FF671B"/>
<path d="M120.828 36.5393C120.828 37.1237 120.373 37.5937 119.817 37.5937C119.256 37.5937 118.805 37.1237 118.805 36.5393C118.805 35.9548 119.256 35.4848 119.817 35.4848C120.373 35.4848 120.828 35.9548 120.828 36.5393Z" fill="#FF671B"/>
<path d="M143.158 81.126C143.158 81.6369 142.762 82.0497 142.272 82.0497C141.782 82.0497 141.386 81.6369 141.386 81.126C141.386 80.6192 141.782 80.2064 142.272 80.2064C142.762 80.2064 143.158 80.6192 143.158 81.126Z" fill="#FF671B"/>
<path d="M143.158 84.8249C143.158 85.3317 142.762 85.7445 142.272 85.7445C141.782 85.7445 141.386 85.3317 141.386 84.8249C141.386 84.314 141.782 83.9012 142.272 83.9012C142.762 83.9012 143.158 84.314 143.158 84.8249Z" fill="#FF671B"/>
<path d="M142.7 89.6886C142.7 90.1995 142.304 90.6123 141.814 90.6123C141.328 90.6123 140.932 90.1995 140.932 89.6886C140.932 89.1777 141.328 88.7649 141.814 88.7649C142.304 88.7649 142.7 89.1777 142.7 89.6886Z" fill="#FF671B"/>
<path d="M141.48 94.9651C141.48 95.476 141.085 95.8888 140.595 95.8888C140.108 95.8888 139.712 95.476 139.712 94.9651C139.712 94.4542 140.108 94.0414 140.595 94.0414C141.085 94.0414 141.48 94.4542 141.48 94.9651Z" fill="#FF671B"/>
<path d="M139.544 101.492C139.544 101.999 139.144 102.412 138.658 102.412C138.168 102.412 137.772 101.999 137.772 101.492C137.772 100.981 138.168 100.569 138.658 100.569C139.144 100.569 139.544 100.981 139.544 101.492Z" fill="#FF671B"/>
<path d="M136.929 107.697C136.929 108.203 136.533 108.62 136.043 108.62C135.553 108.62 135.157 108.203 135.157 107.697C135.157 107.186 135.553 106.773 136.043 106.773C136.533 106.773 136.929 107.186 136.929 107.697Z" fill="#FF671B"/>
<path d="M133.683 113.541C133.683 114.048 133.287 114.461 132.797 114.461C132.307 114.461 131.911 114.048 131.911 113.541C131.911 113.03 132.307 112.618 132.797 112.618C133.287 112.618 133.683 113.03 133.683 113.541Z" fill="#FF671B"/>
<path d="M129.845 118.977C129.845 119.488 129.449 119.901 128.959 119.901C128.473 119.901 128.073 119.488 128.073 118.977C128.073 118.466 128.473 118.053 128.959 118.053C129.449 118.053 129.845 118.466 129.845 118.977Z" fill="#FF671B"/>
<path d="M125.462 123.968C125.462 124.478 125.062 124.891 124.576 124.891C124.086 124.891 123.69 124.478 123.69 123.968C123.69 123.457 124.086 123.044 124.576 123.044C125.062 123.044 125.462 123.457 125.462 123.968Z" fill="#FF671B"/>
<path d="M120.573 128.467C120.573 128.974 120.177 129.391 119.687 129.391C119.197 129.391 118.801 128.974 118.801 128.467C118.801 127.957 119.197 127.544 119.687 127.544C120.177 127.544 120.573 127.957 120.573 128.467Z" fill="#FF671B"/>
<path d="M115.226 132.432C115.226 132.943 114.826 133.356 114.34 133.356C113.85 133.356 113.454 132.943 113.454 132.432C113.454 131.921 113.85 131.508 114.34 131.508C114.826 131.508 115.226 131.921 115.226 132.432Z" fill="#FF671B"/>
<path d="M109.459 135.82C109.459 136.331 109.063 136.744 108.573 136.744C108.083 136.744 107.687 136.331 107.687 135.82C107.687 135.309 108.083 134.897 108.573 134.897C109.063 134.897 109.459 135.309 109.459 135.82Z" fill="#FF671B"/>
<path d="M103.355 138.583C103.355 139.094 102.959 139.507 102.473 139.507C101.983 139.507 101.587 139.094 101.587 138.583C101.587 138.072 101.983 137.66 102.473 137.66C102.959 137.66 103.355 138.072 103.355 138.583Z" fill="#FF671B"/>
<path d="M96.9299 140.688C96.9299 141.199 96.534 141.612 96.0439 141.612C95.5578 141.612 95.1619 141.199 95.1619 140.688C95.1619 140.181 95.5578 139.768 96.0439 139.768C96.534 139.768 96.9299 140.181 96.9299 140.688Z" fill="#FF671B"/>
<path d="M90.5124 142.037C90.5124 142.548 90.1164 142.961 89.6303 142.961C89.1402 142.961 88.7443 142.548 88.7443 142.037C88.7443 141.526 89.1402 141.113 89.6303 141.113C90.1164 141.113 90.5124 141.526 90.5124 142.037Z" fill="#FF671B"/>
<path d="M83.9105 142.719C83.9105 143.226 83.5146 143.643 83.0245 143.643C82.5345 143.643 82.1385 143.226 82.1385 142.719C82.1385 142.209 82.5345 141.796 83.0245 141.796C83.5146 141.796 83.9105 142.209 83.9105 142.719Z" fill="#FF671B"/>
<path d="M77.0892 142.703C77.0892 143.214 76.6932 143.627 76.2071 143.627C75.7171 143.627 75.3211 143.214 75.3211 142.703C75.3211 142.192 75.7171 141.779 76.2071 141.779C76.6932 141.779 77.0892 142.192 77.0892 142.703Z" fill="#FF671B"/>
<path d="M70.1698 141.939C70.1698 142.45 69.7738 142.862 69.2838 142.862C68.7937 142.862 68.3978 142.45 68.3978 141.939C68.3978 141.428 68.7937 141.015 69.2838 141.015C69.7738 141.015 70.1698 141.428 70.1698 141.939Z" fill="#FF671B"/>
<path d="M63.4935 140.443C63.4935 140.954 63.0975 141.367 62.6075 141.367C62.1214 141.367 61.7254 140.954 61.7254 140.443C61.7254 139.932 62.1214 139.519 62.6075 139.519C63.0975 139.519 63.4935 139.932 63.4935 140.443Z" fill="#FF671B"/>
<path d="M57.1073 138.256C57.1073 138.767 56.7113 139.18 56.2213 139.18C55.7351 139.18 55.3353 138.767 55.3353 138.256C55.3353 137.749 55.7351 137.333 56.2213 137.333C56.7113 137.333 57.1073 137.749 57.1073 138.256Z" fill="#FF671B"/>
<path d="M51.0504 135.424C51.0504 135.935 50.6544 136.348 50.1644 136.348C49.6743 136.348 49.2784 135.935 49.2784 135.424C49.2784 134.913 49.6743 134.5 50.1644 134.5C50.6544 134.5 51.0504 134.913 51.0504 135.424Z" fill="#FF671B"/>
<path d="M45.3659 131.982C45.3659 132.493 44.966 132.906 44.4799 132.906C43.9938 132.906 43.5939 132.493 43.5939 131.982C43.5939 131.476 43.9938 131.063 44.4799 131.063C44.966 131.063 45.3659 131.476 45.3659 131.982Z" fill="#FF671B"/>
<path d="M40.0931 127.977C40.0931 128.488 39.6971 128.901 39.2071 128.901C38.7209 128.901 38.3211 128.488 38.3211 127.977C38.3211 127.47 38.7209 127.057 39.2071 127.057C39.6971 127.057 40.0931 127.47 40.0931 127.977Z" fill="#FF671B"/>
<path d="M35.275 123.453C35.275 123.959 34.879 124.372 34.389 124.372C33.9028 124.372 33.5069 123.959 33.5069 123.453C33.5069 122.942 33.9028 122.529 34.389 122.529C34.879 122.529 35.275 122.942 35.275 123.453Z" fill="#FF671B"/>
<path d="M30.9548 118.442C30.9548 118.953 30.5588 119.365 30.0688 119.365C29.5827 119.365 29.1828 118.953 29.1828 118.442C29.1828 117.931 29.5827 117.518 30.0688 117.518C30.5588 117.518 30.9548 117.931 30.9548 118.442Z" fill="#FF671B"/>
<path d="M27.1717 112.994C27.1717 113.504 26.7757 113.917 26.2857 113.917C25.7995 113.917 25.4036 113.504 25.4036 112.994C25.4036 112.483 25.7995 112.07 26.2857 112.07C26.7757 112.07 27.1717 112.483 27.1717 112.994Z" fill="#FF671B"/>
<path d="M23.9687 107.145C23.9687 107.656 23.5728 108.069 23.0867 108.069C22.5966 108.069 22.2007 107.656 22.2007 107.145C22.2007 106.638 22.5966 106.225 23.0867 106.225C23.5728 106.225 23.9687 106.638 23.9687 107.145Z" fill="#FF671B"/>
<path d="M21.3892 100.945C21.3892 101.451 20.9932 101.864 20.5032 101.864C20.0171 101.864 19.6172 101.451 19.6172 100.945C19.6172 100.434 20.0171 100.021 20.5032 100.021C20.9932 100.021 21.3892 100.434 21.3892 100.945Z" fill="#FF671B"/>
<path d="M19.4722 94.4256C19.4722 94.9324 19.0762 95.3493 18.5862 95.3493C18.0961 95.3493 17.7002 94.9324 17.7002 94.4256C17.7002 93.9147 18.0961 93.5019 18.5862 93.5019C19.0762 93.5019 19.4722 93.9147 19.4722 94.4256Z" fill="#FF671B"/>
<path d="M18.2608 87.6328C18.2608 88.1437 17.8609 88.5565 17.3748 88.5565C16.8847 88.5565 16.4888 88.1437 16.4888 87.6328C16.4888 87.126 16.8847 86.7091 17.3748 86.7091C17.8609 86.7091 18.2608 87.126 18.2608 87.6328Z" fill="#FF671B"/>
<path d="M17.7942 80.6315C17.7942 81.1424 17.3983 81.5552 16.9082 81.5552C16.4182 81.5552 16.0222 81.1424 16.0222 80.6315C16.0222 80.1247 16.4182 79.7119 16.9082 79.7119C17.3983 79.7119 17.7942 80.1247 17.7942 80.6315Z" fill="#FF671B"/>
<path d="M18.104 73.6302C18.104 74.1411 17.7041 74.5539 17.218 74.5539C16.7279 74.5539 16.332 74.1411 16.332 73.6302C16.332 73.1193 16.7279 72.7065 17.218 72.7065C17.7041 72.7065 18.104 73.1193 18.104 73.6302Z" fill="#FF671B"/>
<path d="M19.1585 66.7801C19.1585 67.2869 18.7626 67.7038 18.2725 67.7038C17.7864 67.7038 17.3904 67.2869 17.3904 66.7801C17.3904 66.2692 17.7864 65.8564 18.2725 65.8564C18.7626 65.8564 19.1585 66.2692 19.1585 66.7801Z" fill="#FF671B"/>
<path d="M20.9305 60.1916C20.9305 60.7025 20.5346 61.1153 20.0484 61.1153C19.5584 61.1153 19.1624 60.7025 19.1624 60.1916C19.1624 59.6848 19.5584 59.272 20.0484 59.272C20.5346 59.272 20.9305 59.6848 20.9305 60.1916Z" fill="#FF671B"/>
<path d="M23.3807 53.9137C23.3807 54.4206 22.9847 54.8334 22.4947 54.8334C22.0047 54.8334 21.6087 54.4206 21.6087 53.9137C21.6087 53.4029 22.0047 52.9901 22.4947 52.9901C22.9847 52.9901 23.3807 53.4029 23.3807 53.9137Z" fill="#FF671B"/>
<path d="M26.4582 47.9792C26.4582 48.4901 26.0622 48.9029 25.5722 48.9029C25.086 48.9029 24.6901 48.4901 24.6901 47.9792C24.6901 47.4683 25.086 47.0555 25.5722 47.0555C26.0622 47.0555 26.4582 47.4683 26.4582 47.9792Z" fill="#FF671B"/>
<path d="M30.1315 42.437C30.1315 42.9438 29.7316 43.3566 29.2455 43.3566C28.7555 43.3566 28.3595 42.9438 28.3595 42.437C28.3595 41.9261 28.7555 41.5133 29.2455 41.5133C29.7316 41.5133 30.1315 41.9261 30.1315 42.437Z" fill="#FF671B"/>
<path d="M34.3498 37.324C34.3498 37.8308 33.9538 38.2436 33.4638 38.2436C32.9737 38.2436 32.5778 37.8308 32.5778 37.324C32.5778 36.8131 32.9737 36.4003 33.4638 36.4003C33.9538 36.4003 34.3498 36.8131 34.3498 37.324Z" fill="#FF671B"/>
<path d="M39.0777 32.681C39.0777 33.1919 38.6778 33.6047 38.1917 33.6047C37.7016 33.6047 37.3057 33.1919 37.3057 32.681C37.3057 32.1742 37.7016 31.7614 38.1917 31.7614C38.6778 31.7614 39.0777 32.1742 39.0777 32.681Z" fill="#FF671B"/>
<path d="M44.2682 28.5571C44.2682 29.068 43.8722 29.4808 43.3822 29.4808C42.8961 29.4808 42.5001 29.068 42.5001 28.5571C42.5001 28.0462 42.8961 27.6334 43.3822 27.6334C43.8722 27.6334 44.2682 28.0462 44.2682 28.5571Z" fill="#FF671B"/>
<path d="M49.886 24.989C49.886 25.4958 49.4862 25.9086 49 25.9086C48.51 25.9086 48.114 25.4958 48.114 24.989C48.114 24.4781 48.51 24.0653 49 24.0653C49.4862 24.0653 49.886 24.4781 49.886 24.989Z" fill="#FF671B"/>
<path d="M55.8841 22.0135C55.8841 22.5244 55.4842 22.9372 54.9981 22.9372C54.5081 22.9372 54.1121 22.5244 54.1121 22.0135C54.1121 21.5067 54.5081 21.0898 54.9981 21.0898C55.4842 21.0898 55.8841 21.5067 55.8841 22.0135Z" fill="#FF671B"/>
<path d="M62.2194 19.6839C62.2194 20.1907 61.8234 20.6035 61.3334 20.6035C60.8472 20.6035 60.4513 20.1907 60.4513 19.6839C60.4513 19.173 60.8472 18.7602 61.3334 18.7602C61.8234 18.7602 62.2194 19.173 62.2194 19.6839Z" fill="#FF671B"/>
<path d="M68.8565 18.0286C68.8565 18.5395 68.4605 18.9523 67.9705 18.9523C67.4843 18.9523 67.0845 18.5395 67.0845 18.0286C67.0845 17.5218 67.4843 17.1089 67.9705 17.1089C68.4605 17.1089 68.8565 17.5218 68.8565 18.0286Z" fill="#FF671B"/>
<path d="M75.7484 17.1008C75.7484 17.6117 75.3525 18.0245 74.8624 18.0245C74.3763 18.0245 73.9803 17.6117 73.9803 17.1008C73.9803 16.594 74.3763 16.1771 74.8624 16.1771C75.3525 16.1771 75.7484 16.594 75.7484 17.1008Z" fill="#FF671B"/>
<path d="M82.7815 16.9332C82.7815 17.4441 82.3855 17.8569 81.8994 17.8569C81.4094 17.8569 81.0134 17.4441 81.0134 16.9332C81.0134 16.4223 81.4094 16.0095 81.8994 16.0095C82.3855 16.0095 82.7815 16.4223 82.7815 16.9332Z" fill="#FF671B"/>
<path d="M89.6381 17.5177C89.6381 18.0245 89.2422 18.4414 88.756 18.4414C88.266 18.4414 87.8701 18.0245 87.8701 17.5177C87.8701 17.0068 88.266 16.594 88.756 16.594C89.2422 16.594 89.6381 17.0068 89.6381 17.5177Z" fill="#FF671B"/>
<path d="M96.2635 18.8133C96.2635 19.3201 95.8636 19.7329 95.3775 19.7329C94.8874 19.7329 94.4915 19.3201 94.4915 18.8133C94.4915 18.3024 94.8874 17.8896 95.3775 17.8896C95.8636 17.8896 96.2635 18.3024 96.2635 18.8133Z" fill="#FF671B"/>
<path d="M102.614 20.7792C102.614 21.2901 102.215 21.7029 101.728 21.7029C101.238 21.7029 100.842 21.2901 100.842 20.7792C100.842 20.2683 101.238 19.8555 101.728 19.8555C102.215 19.8555 102.614 20.2683 102.614 20.7792Z" fill="#FF671B"/>
<path d="M108.652 23.3786C108.652 23.8895 108.256 24.3023 107.77 24.3023C107.28 24.3023 106.884 23.8895 106.884 23.3786C106.884 22.8677 107.28 22.4549 107.77 22.4549C108.256 22.4549 108.652 22.8677 108.652 23.3786Z" fill="#FF671B"/>
<path d="M114.344 26.5748C114.344 27.0857 113.948 27.4985 113.458 27.4985C112.972 27.4985 112.572 27.0857 112.572 26.5748C112.572 26.0639 112.972 25.6511 113.458 25.6511C113.948 25.6511 114.344 26.0639 114.344 26.5748Z" fill="#FF671B"/>
<path d="M119.703 30.3268C119.703 30.8377 119.307 31.2505 118.817 31.2505C118.327 31.2505 117.931 30.8377 117.931 30.3268C117.931 29.82 118.327 29.4072 118.817 29.4072C119.307 29.4072 119.703 29.82 119.703 30.3268Z" fill="#FF671B"/>
<path d="M124.89 34.5897C124.89 35.1006 124.494 35.5134 124.004 35.5134C123.514 35.5134 123.118 35.1006 123.118 34.5897C123.118 34.0788 123.514 33.666 124.004 33.666C124.494 33.666 124.89 34.0788 124.89 34.5897Z" fill="#FF671B"/>
<path d="M148 76.859C148 77.2964 147.663 77.6519 147.243 77.6519C146.824 77.6519 146.483 77.2964 146.483 76.859C146.483 76.4258 146.824 76.0702 147.243 76.0702C147.663 76.0702 148 76.4258 148 76.859Z" fill="#FF671B"/>
<path d="M147.827 85.1437C147.827 85.581 147.49 85.9366 147.071 85.9366C146.651 85.9366 146.31 85.581 146.31 85.1437C146.31 84.7104 146.651 84.3549 147.071 84.3549C147.49 84.3549 147.827 84.7104 147.827 85.1437Z" fill="#FF671B"/>
<path d="M147.827 80.9789C147.827 81.4121 147.49 81.7677 147.071 81.7677C146.651 81.7677 146.31 81.4121 146.31 80.9789C146.31 80.5416 146.651 80.186 147.071 80.186C147.49 80.186 147.827 80.5416 147.827 80.9789Z" fill="#FF671B"/>
<path d="M146.193 95.5577C146.193 95.9951 145.852 96.3506 145.436 96.3506C145.017 96.3506 144.676 95.9951 144.676 95.5577C144.676 95.1245 145.017 94.7689 145.436 94.7689C145.852 94.7689 146.193 95.1245 146.193 95.5577Z" fill="#FF671B"/>
<path d="M147.228 90.2771C147.228 90.7104 146.891 91.066 146.471 91.066C146.052 91.066 145.711 90.7104 145.711 90.2771C145.711 89.8398 146.052 89.4842 146.471 89.4842C146.891 89.4842 147.228 89.8398 147.228 90.2771Z" fill="#FF671B"/>
<path d="M145.024 99.9024C145.024 100.34 144.683 100.695 144.264 100.695C143.844 100.695 143.503 100.34 143.503 99.9024C143.503 99.4692 143.844 99.1136 144.264 99.1136C144.683 99.1136 145.024 99.4692 145.024 99.9024Z" fill="#FF671B"/>
<path d="M142.457 106.81C142.457 107.243 142.116 107.598 141.696 107.598C141.277 107.598 140.939 107.243 140.939 106.81C140.939 106.372 141.277 106.017 141.696 106.017C142.116 106.017 142.457 106.372 142.457 106.81Z" fill="#FF671B"/>
<path d="M139.179 113.333C139.179 113.766 138.842 114.122 138.423 114.122C138.003 114.122 137.662 113.766 137.662 113.333C137.662 112.895 138.003 112.54 138.423 112.54C138.842 112.54 139.179 112.895 139.179 113.333Z" fill="#FF671B"/>
<path d="M135.243 119.427C135.243 119.864 134.902 120.22 134.483 120.22C134.063 120.22 133.722 119.864 133.722 119.427C133.722 118.989 134.063 118.638 134.483 118.638C134.902 118.638 135.243 118.989 135.243 119.427Z" fill="#FF671B"/>
<path d="M130.688 125.047C130.688 125.484 130.347 125.835 129.931 125.835C129.512 125.835 129.171 125.484 129.171 125.047C129.171 124.609 129.512 124.254 129.931 124.254C130.347 124.254 130.688 124.609 130.688 125.047Z" fill="#FF671B"/>
<path d="M125.564 130.143C125.564 130.581 125.227 130.932 124.807 130.932C124.388 130.932 124.047 130.581 124.047 130.143C124.047 129.706 124.388 129.35 124.807 129.35C125.227 129.35 125.564 129.706 125.564 130.143Z" fill="#FF671B"/>
<path d="M119.923 134.668C119.923 135.105 119.585 135.461 119.166 135.461C118.747 135.461 118.405 135.105 118.405 134.668C118.405 134.234 118.747 133.879 119.166 133.879C119.585 133.879 119.923 134.234 119.923 134.668Z" fill="#FF671B"/>
<path d="M113.811 138.575C113.811 139.012 113.47 139.368 113.05 139.368C112.631 139.368 112.294 139.012 112.294 138.575C112.294 138.138 112.631 137.786 113.05 137.786C113.47 137.786 113.811 138.138 113.811 138.575Z" fill="#FF671B"/>
<path d="M107.272 141.82C107.272 142.253 106.931 142.609 106.511 142.609C106.096 142.609 105.755 142.253 105.755 141.82C105.755 141.383 106.096 141.027 106.511 141.027C106.931 141.027 107.272 141.383 107.272 141.82Z" fill="#FF671B"/>
<path d="M100.372 144.342C100.372 144.779 100.035 145.131 99.6153 145.131C99.1959 145.131 98.8548 144.779 98.8548 144.342C98.8548 143.905 99.1959 143.549 99.6153 143.549C100.035 143.549 100.372 143.905 100.372 144.342Z" fill="#FF671B"/>
<path d="M93.4996 146.034C93.4996 146.467 93.1586 146.823 92.743 146.823C92.3236 146.823 91.9825 146.467 91.9825 146.034C91.9825 145.597 92.3236 145.241 92.743 145.241C93.1586 145.241 93.4996 145.597 93.4996 146.034Z" fill="#FF671B"/>
<path d="M86.3764 147.003C86.3764 147.44 86.0354 147.792 85.6198 147.792C85.2003 147.792 84.8593 147.44 84.8593 147.003C84.8593 146.565 85.2003 146.21 85.6198 146.21C86.0354 146.21 86.3764 146.565 86.3764 147.003Z" fill="#FF671B"/>
<path d="M78.967 147.207C78.967 147.644 78.6298 148 78.2104 148C77.7909 148 77.4498 147.644 77.4498 147.207C77.4498 146.774 77.7909 146.418 78.2104 146.418C78.6298 146.418 78.967 146.774 78.967 147.207Z" fill="#FF671B"/>
<path d="M71.4047 146.586C71.4047 147.023 71.0636 147.379 70.6441 147.379C70.2247 147.379 69.8875 147.023 69.8875 146.586C69.8875 146.149 70.2247 145.797 70.6441 145.797C71.0636 145.797 71.4047 146.149 71.4047 146.586Z" fill="#FF671B"/>
<path d="M64.0972 145.151C64.0972 145.589 63.7601 145.944 63.3406 145.944C62.9211 145.944 62.58 145.589 62.58 145.151C62.58 144.714 62.9211 144.362 63.3406 144.362C63.7601 144.362 64.0972 144.714 64.0972 145.151Z" fill="#FF671B"/>
<path d="M57.0994 142.952C57.0994 143.386 56.7583 143.741 56.3389 143.741C55.9233 143.741 55.5822 143.386 55.5822 142.952C55.5822 142.515 55.9233 142.159 56.3389 142.159C56.7583 142.159 57.0994 142.515 57.0994 142.952Z" fill="#FF671B"/>
<path d="M50.4505 140.03C50.4505 140.467 50.1134 140.823 49.6939 140.823C49.2744 140.823 48.9334 140.467 48.9334 140.03C48.9334 139.597 49.2744 139.241 49.6939 139.241C50.1134 139.241 50.4505 139.597 50.4505 140.03Z" fill="#FF671B"/>
<path d="M44.2055 136.437C44.2055 136.875 43.8644 137.23 43.4449 137.23C43.0255 137.23 42.6844 136.875 42.6844 136.437C42.6844 136 43.0255 135.649 43.4449 135.649C43.8644 135.649 44.2055 136 44.2055 136.437Z" fill="#FF671B"/>
<path d="M38.3995 132.22C38.3995 132.653 38.0584 133.008 37.6428 133.008C37.2234 133.008 36.8823 132.653 36.8823 132.22C36.8823 131.782 37.2234 131.427 37.6428 131.427C38.0584 131.427 38.3995 131.782 38.3995 132.22Z" fill="#FF671B"/>
<path d="M33.0874 127.417C33.0874 127.854 32.7463 128.206 32.3269 128.206C31.9074 128.206 31.5703 127.854 31.5703 127.417C31.5703 126.98 31.9074 126.624 32.3269 126.624C32.7463 126.624 33.0874 126.98 33.0874 127.417Z" fill="#FF671B"/>
<path d="M28.3085 122.079C28.3085 122.517 27.9714 122.872 27.5519 122.872C27.1324 122.872 26.7914 122.517 26.7914 122.079C26.7914 121.642 27.1324 121.29 27.5519 121.29C27.9714 121.29 28.3085 121.642 28.3085 122.079Z" fill="#FF671B"/>
<path d="M24.1177 116.255C24.1177 116.692 23.7767 117.048 23.3572 117.048C22.9377 117.048 22.6006 116.692 22.6006 116.255C22.6006 115.818 22.9377 115.466 23.3572 115.466C23.7767 115.466 24.1177 115.818 24.1177 116.255Z" fill="#FF671B"/>
<path d="M20.5542 109.989C20.5542 110.423 20.2131 110.778 19.7936 110.778C19.3741 110.778 19.037 110.423 19.037 109.989C19.037 109.552 19.3741 109.197 19.7936 109.197C20.2131 109.197 20.5542 109.552 20.5542 109.989Z" fill="#FF671B"/>
<path d="M17.6649 103.323C17.6649 103.761 17.3277 104.116 16.9082 104.116C16.4888 104.116 16.1477 103.761 16.1477 103.323C16.1477 102.89 16.4888 102.535 16.9082 102.535C17.3277 102.535 17.6649 102.89 17.6649 103.323Z" fill="#FF671B"/>
<path d="M15.5008 96.3098C15.5008 96.7471 15.1598 97.1027 14.7403 97.1027C14.3208 97.1027 13.9837 96.7471 13.9837 96.3098C13.9837 95.8765 14.3208 95.521 14.7403 95.521C15.1598 95.521 15.5008 95.8765 15.5008 96.3098Z" fill="#FF671B"/>
<path d="M14.1013 88.9938C14.1013 89.4311 13.7602 89.7867 13.3408 89.7867C12.9213 89.7867 12.5841 89.4311 12.5841 88.9938C12.5841 88.5565 12.9213 88.205 13.3408 88.205C13.7602 88.205 14.1013 88.5565 14.1013 88.9938Z" fill="#FF671B"/>
<path d="M13.5172 81.4203C13.5172 81.8576 13.1761 82.2091 12.7566 82.2091C12.3411 82.2091 12 81.8576 12 81.4203C12 80.983 12.3411 80.6274 12.7566 80.6274C13.1761 80.6274 13.5172 80.983 13.5172 81.4203Z" fill="#FF671B"/>
<path d="M13.7837 73.8345C13.7837 74.2719 13.4466 74.6274 13.0271 74.6274C12.6076 74.6274 12.2666 74.2719 12.2666 73.8345C12.2666 73.4013 12.6076 73.0457 13.0271 73.0457C13.4466 73.0457 13.7837 73.4013 13.7837 73.8345Z" fill="#FF671B"/>
<path d="M14.8736 66.4082C14.8736 66.8455 14.5325 67.2011 14.117 67.2011C13.6975 67.2011 13.3564 66.8455 13.3564 66.4082C13.3564 65.9708 13.6975 65.6194 14.117 65.6194C14.5325 65.6194 14.8736 65.9708 14.8736 66.4082Z" fill="#FF671B"/>
<path d="M16.7514 59.2679C16.7514 59.7052 16.4104 60.0608 15.9909 60.0608C15.5714 60.0608 15.2343 59.7052 15.2343 59.2679C15.2343 58.8306 15.5714 58.4791 15.9909 58.4791C16.4104 58.4791 16.7514 58.8306 16.7514 59.2679Z" fill="#FF671B"/>
<path d="M19.3663 52.4628C19.3663 52.8961 19.0291 53.2516 18.6097 53.2516C18.1902 53.2516 17.8491 52.8961 17.8491 52.4628C17.8491 52.0255 18.1902 51.6699 18.6097 51.6699C19.0291 51.6699 19.3663 52.0255 19.3663 52.4628Z" fill="#FF671B"/>
<path d="M22.679 46.0337C22.679 46.471 22.3418 46.8266 21.9223 46.8266C21.5029 46.8266 21.1618 46.471 21.1618 46.0337C21.1618 45.5964 21.5029 45.2408 21.9223 45.2408C22.3418 45.2408 22.679 45.5964 22.679 46.0337Z" fill="#FF671B"/>
<path d="M26.6424 40.0297C26.6424 40.467 26.3014 40.8226 25.8819 40.8226C25.4624 40.8226 25.1213 40.467 25.1213 40.0297C25.1213 39.5965 25.4624 39.2409 25.8819 39.2409C26.3014 39.2409 26.6424 39.5965 26.6424 40.0297Z" fill="#FF671B"/>
<path d="M31.2018 34.4998C31.2018 34.9371 30.8646 35.2927 30.4451 35.2927C30.0257 35.2927 29.6846 34.9371 29.6846 34.4998C29.6846 34.0665 30.0257 33.711 30.4451 33.711C30.8646 33.711 31.2018 34.0665 31.2018 34.4998Z" fill="#FF671B"/>
<path d="M36.3217 29.4889C36.3217 29.9262 35.9806 30.2818 35.5612 30.2818C35.1417 30.2818 34.8045 29.9262 34.8045 29.4889C34.8045 29.0516 35.1417 28.7001 35.5612 28.7001C35.9806 28.7001 36.3217 29.0516 36.3217 29.4889Z" fill="#FF671B"/>
<path d="M41.9474 25.0421C41.9474 25.4794 41.6102 25.8309 41.1907 25.8309C40.7713 25.8309 40.4302 25.4794 40.4302 25.0421C40.4302 24.6048 40.7713 24.2492 41.1907 24.2492C41.6102 24.2492 41.9474 24.6048 41.9474 25.0421Z" fill="#FF671B"/>
<path d="M48.0396 21.2043C48.0396 21.6416 47.6985 21.9931 47.279 21.9931C46.8595 21.9931 46.5224 21.6416 46.5224 21.2043C46.5224 20.7669 46.8595 20.4113 47.279 20.4113C47.6985 20.4113 48.0396 20.7669 48.0396 21.2043Z" fill="#FF671B"/>
<path d="M54.5473 18.0245C54.5473 18.4618 54.2062 18.8133 53.7868 18.8133C53.3673 18.8133 53.0262 18.4618 53.0262 18.0245C53.0262 17.5871 53.3673 17.2316 53.7868 17.2316C54.2062 17.2316 54.5473 17.5871 54.5473 18.0245Z" fill="#FF671B"/>
<path d="M61.4235 15.5476C61.4235 15.9809 61.0825 16.3365 60.663 16.3365C60.2435 16.3365 59.9064 15.9809 59.9064 15.5476C59.9064 15.1103 60.2435 14.7547 60.663 14.7547C61.0825 14.7547 61.4235 15.1103 61.4235 15.5476Z" fill="#FF671B"/>
<path d="M68.6252 13.8188C68.6252 14.2561 68.2841 14.6076 67.8646 14.6076C67.4451 14.6076 67.108 14.2561 67.108 13.8188C67.108 13.3815 67.4451 13.0259 67.8646 13.0259C68.2841 13.0259 68.6252 13.3815 68.6252 13.8188Z" fill="#FF671B"/>
<path d="M76.1051 12.8828C76.1051 13.3201 75.7641 13.6757 75.3446 13.6757C74.9251 13.6757 74.588 13.3201 74.588 12.8828C74.588 12.4496 74.9251 12.094 75.3446 12.094C75.7641 12.094 76.1051 12.4496 76.1051 12.8828Z" fill="#FF671B"/>
<path d="M83.7263 12.7888C83.7263 13.2261 83.3891 13.5817 82.9696 13.5817C82.5502 13.5817 82.2091 13.2261 82.2091 12.7888C82.2091 12.3556 82.5502 12 82.9696 12C83.3891 12 83.7263 12.3556 83.7263 12.7888Z" fill="#FF671B"/>
<path d="M91.12 13.5163C91.12 13.9537 90.7789 14.3092 90.3595 14.3092C89.94 14.3092 89.5989 13.9537 89.5989 13.5163C89.5989 13.079 89.94 12.7234 90.3595 12.7234C90.7789 12.7234 91.12 13.079 91.12 13.5163Z" fill="#FF671B"/>
<path d="M98.2511 15.0163C98.2511 15.4537 97.91 15.8092 97.4905 15.8092C97.075 15.8092 96.7339 15.4537 96.7339 15.0163C96.7339 14.579 97.075 14.2275 97.4905 14.2275C97.91 14.2275 98.2511 14.579 98.2511 15.0163Z" fill="#FF671B"/>
<path d="M105.08 17.2479C105.08 17.6852 104.743 18.0408 104.324 18.0408C103.904 18.0408 103.563 17.6852 103.563 17.2479C103.563 16.8147 103.904 16.4591 104.324 16.4591C104.743 16.4591 105.08 16.8147 105.08 17.2479Z" fill="#FF671B"/>
<path d="M111.564 20.1702C111.564 20.6076 111.227 20.9631 110.808 20.9631C110.388 20.9631 110.047 20.6076 110.047 20.1702C110.047 19.737 110.388 19.3814 110.808 19.3814C111.227 19.3814 111.564 19.737 111.564 20.1702Z" fill="#FF671B"/>
<path d="M117.661 23.7424C117.661 24.1797 117.32 24.5312 116.9 24.5312C116.485 24.5312 116.143 24.1797 116.143 23.7424C116.143 23.3051 116.485 22.9495 116.9 22.9495C117.32 22.9495 117.661 23.3051 117.661 23.7424Z" fill="#FF671B"/>
<path d="M123.388 27.9154C123.388 28.3527 123.051 28.7083 122.632 28.7083C122.212 28.7083 121.871 28.3527 121.871 27.9154C121.871 27.4821 122.212 27.1266 122.632 27.1266C123.051 27.1266 123.388 27.4821 123.388 27.9154Z" fill="#FF671B"/>
<path d="M128.951 32.6401C128.951 33.0774 128.61 33.433 128.191 33.433C127.771 33.433 127.434 33.0774 127.434 32.6401C127.434 32.2069 127.771 31.8513 128.191 31.8513C128.61 31.8513 128.951 32.2069 128.951 32.6401Z" fill="#FF671B"/>
<path d="M119.746 95.9011C119.746 96.6858 119.135 97.3234 118.378 97.3234C117.625 97.3234 117.014 96.6858 117.014 95.9011C117.014 95.1163 117.625 94.4787 118.378 94.4787C119.135 94.4787 119.746 95.1163 119.746 95.9011Z" fill="#FF671B"/>
<path d="M119.966 92.0959C119.966 92.8807 119.358 93.5183 118.601 93.5183C117.849 93.5183 117.237 92.8807 117.237 92.0959C117.237 91.3071 117.849 90.6695 118.601 90.6695C119.358 90.6695 119.966 91.3071 119.966 92.0959Z" fill="#FF671B"/>
<path d="M114.924 92.0959C114.924 92.8807 114.313 93.5183 113.556 93.5183C112.803 93.5183 112.192 92.8807 112.192 92.0959C112.192 91.3071 112.803 90.6695 113.556 90.6695C114.313 90.6695 114.924 91.3071 114.924 92.0959Z" fill="#FF671B"/>
<path d="M110.561 92.0959C110.561 92.8807 109.949 93.5183 109.197 93.5183C108.44 93.5183 107.828 92.8807 107.828 92.0959C107.828 91.3071 108.44 90.6695 109.197 90.6695C109.949 90.6695 110.561 91.3071 110.561 92.0959Z" fill="#FF671B"/>
<path d="M119.966 88.2908C119.966 89.0755 119.358 89.7131 118.601 89.7131C117.849 89.7131 117.237 89.0755 117.237 88.2908C117.237 87.502 117.849 86.8644 118.601 86.8644C119.358 86.8644 119.966 87.502 119.966 88.2908Z" fill="#FF671B"/>
<path d="M115.026 88.2908C115.026 89.0755 114.415 89.7131 113.662 89.7131C112.905 89.7131 112.294 89.0755 112.294 88.2908C112.294 87.502 112.905 86.8644 113.662 86.8644C114.415 86.8644 115.026 87.502 115.026 88.2908Z" fill="#FF671B"/>
<path d="M110.467 88.2908C110.467 89.0755 109.855 89.7131 109.103 89.7131C108.35 89.7131 107.734 89.0755 107.734 88.2908C107.734 87.502 108.35 86.8644 109.103 86.8644C109.855 86.8644 110.467 87.502 110.467 88.2908Z" fill="#FF671B"/>
<path d="M119.966 84.4816C119.966 85.2704 119.358 85.908 118.601 85.908C117.849 85.908 117.237 85.2704 117.237 84.4816C117.237 83.6968 117.849 83.0592 118.601 83.0592C119.358 83.0592 119.966 83.6968 119.966 84.4816Z" fill="#FF671B"/>
<path d="M115.136 84.5633C115.136 85.3521 114.524 85.9897 113.772 85.9897C113.019 85.9897 112.407 85.3521 112.407 84.5633C112.407 83.7786 113.019 83.141 113.772 83.141C114.524 83.141 115.136 83.7786 115.136 84.5633Z" fill="#FF671B"/>
<path d="M110.459 84.5633C110.459 85.3521 109.847 85.9897 109.095 85.9897C108.338 85.9897 107.73 85.3521 107.73 84.5633C107.73 83.7786 108.338 83.141 109.095 83.141C109.847 83.141 110.459 83.7786 110.459 84.5633Z" fill="#FF671B"/>
<path d="M119.966 80.6764C119.966 81.4611 119.358 82.1028 118.601 82.1028C117.849 82.1028 117.237 81.4611 117.237 80.6764C117.237 79.8917 117.849 79.2541 118.601 79.2541C119.358 79.2541 119.966 79.8917 119.966 80.6764Z" fill="#FF671B"/>
<path d="M115.093 80.6764C115.093 81.4611 114.481 82.1028 113.729 82.1028C112.972 82.1028 112.36 81.4611 112.36 80.6764C112.36 79.8917 112.972 79.2541 113.729 79.2541C114.481 79.2541 115.093 79.8917 115.093 80.6764Z" fill="#FF671B"/>
<path d="M110.455 80.6764C110.455 81.4611 109.843 82.1028 109.091 82.1028C108.334 82.1028 107.723 81.4611 107.723 80.6764C107.723 79.8917 108.334 79.2541 109.091 79.2541C109.843 79.2541 110.455 79.8917 110.455 80.6764Z" fill="#FF671B"/>
<path d="M119.966 76.8713C119.966 77.656 119.358 78.2936 118.601 78.2936C117.849 78.2936 117.237 77.656 117.237 76.8713C117.237 76.0866 117.849 75.449 118.601 75.449C119.358 75.449 119.966 76.0866 119.966 76.8713Z" fill="#FF671B"/>
<path d="M115.148 76.8713C115.148 77.656 114.536 78.2936 113.783 78.2936C113.027 78.2936 112.415 77.656 112.415 76.8713C112.415 76.0866 113.027 75.449 113.783 75.449C114.536 75.449 115.148 76.0866 115.148 76.8713Z" fill="#FF671B"/>
<path d="M110.588 76.8713C110.588 77.656 109.977 78.2936 109.22 78.2936C108.467 78.2936 107.856 77.656 107.856 76.8713C107.856 76.0866 108.467 75.449 109.22 75.449C109.977 75.449 110.588 76.0866 110.588 76.8713Z" fill="#FF671B"/>
<path d="M124.635 76.8713C124.635 77.5988 124.07 78.1873 123.373 78.1873C122.675 78.1873 122.11 77.5988 122.11 76.8713C122.11 76.1438 122.675 75.5552 123.373 75.5552C124.07 75.5552 124.635 76.1438 124.635 76.8713Z" fill="#FF671B"/>
<path d="M124.635 80.8399C124.635 81.5674 124.07 82.1601 123.373 82.1601C122.675 82.1601 122.11 81.5674 122.11 80.8399C122.11 80.1165 122.675 79.5238 123.373 79.5238C124.07 79.5238 124.635 80.1165 124.635 80.8399Z" fill="#FF671B"/>
<path d="M124.635 84.6124C124.635 85.3399 124.07 85.9284 123.373 85.9284C122.675 85.9284 122.11 85.3399 122.11 84.6124C122.11 83.8848 122.675 83.2963 123.373 83.2963C124.07 83.2963 124.635 83.8848 124.635 84.6124Z" fill="#FF671B"/>
<path d="M124.635 88.2867C124.635 89.0142 124.07 89.6028 123.373 89.6028C122.675 89.6028 122.11 89.0142 122.11 88.2867C122.11 87.5592 122.675 86.9706 123.373 86.9706C124.07 86.9706 124.635 87.5592 124.635 88.2867Z" fill="#FF671B"/>
<path d="M124.635 91.8589C124.635 92.5864 124.07 93.1749 123.373 93.1749C122.675 93.1749 122.11 92.5864 122.11 91.8589C122.11 91.1314 122.675 90.5428 123.373 90.5428C124.07 90.5428 124.635 91.1314 124.635 91.8589Z" fill="#FF671B"/>
<path d="M129.304 76.8713C129.304 77.5416 128.783 78.0811 128.144 78.0811C127.505 78.0811 126.983 77.5416 126.983 76.8713C126.983 76.2051 127.505 75.6615 128.144 75.6615C128.783 75.6615 129.304 76.2051 129.304 76.8713Z" fill="#FF671B"/>
<path d="M129.304 81.0892C129.304 81.7595 128.783 82.299 128.144 82.299C127.505 82.299 126.983 81.7595 126.983 81.0892C126.983 80.423 127.505 79.8794 128.144 79.8794C128.783 79.8794 129.304 80.423 129.304 81.0892Z" fill="#FF671B"/>
<path d="M129.304 84.7145C129.304 85.3807 128.783 85.9243 128.144 85.9243C127.505 85.9243 126.983 85.3807 126.983 84.7145C126.983 84.0442 127.505 83.5047 128.144 83.5047C128.783 83.5047 129.304 84.0442 129.304 84.7145Z" fill="#FF671B"/>
<path d="M129.304 88.0864C129.304 88.7567 128.783 89.2962 128.144 89.2962C127.505 89.2962 126.983 88.7567 126.983 88.0864C126.983 87.4202 127.505 86.8807 128.144 86.8807C128.783 86.8807 129.304 87.4202 129.304 88.0864Z" fill="#FF671B"/>
<path d="M133.973 76.8754C133.973 77.4844 133.499 77.9748 132.915 77.9748C132.33 77.9748 131.856 77.4844 131.856 76.8754C131.856 76.2623 132.33 75.7718 132.915 75.7718C133.499 75.7718 133.973 76.2623 133.973 76.8754Z" fill="#FF671B"/>
<path d="M133.973 81.2404C133.973 81.8494 133.499 82.344 132.915 82.344C132.33 82.344 131.856 81.8494 131.856 81.2404C131.856 80.6315 132.33 80.1369 132.915 80.1369C133.499 80.1369 133.973 80.6315 133.973 81.2404Z" fill="#FF671B"/>
<path d="M133.973 84.8617C133.973 85.4747 133.499 85.9652 132.915 85.9652C132.33 85.9652 131.856 85.4747 131.856 84.8617C131.856 84.2527 132.33 83.7581 132.915 83.7581C133.499 83.7581 133.973 84.2527 133.973 84.8617Z" fill="#FF671B"/>
<path d="M138.638 76.8754C138.638 77.4231 138.211 77.8686 137.686 77.8686C137.156 77.8686 136.729 77.4231 136.729 76.8754C136.729 76.3236 137.156 75.8781 137.686 75.8781C138.211 75.8781 138.638 76.3236 138.638 76.8754Z" fill="#FF671B"/>
<path d="M138.638 81.0933C138.638 81.641 138.211 82.0906 137.686 82.0906C137.156 82.0906 136.729 81.641 136.729 81.0933C136.729 80.5415 137.156 80.096 137.686 80.096C138.211 80.096 138.638 80.5415 138.638 81.0933Z" fill="#FF671B"/>
<path d="M143.307 76.8754C143.307 77.3658 142.927 77.7664 142.457 77.7664C141.986 77.7664 141.602 77.3658 141.602 76.8754C141.602 76.3849 141.986 75.9844 142.457 75.9844C142.927 75.9844 143.307 76.3849 143.307 76.8754Z" fill="#FF671B"/>
<path d="M147.976 76.8754C147.976 77.3086 147.639 77.6601 147.224 77.6601C146.812 77.6601 146.475 77.3086 146.475 76.8754C146.475 76.4421 146.812 76.0947 147.224 76.0947C147.639 76.0947 147.976 76.4421 147.976 76.8754Z" fill="#FF671B"/>
</svg>
