<svg width="136" height="136" viewBox="0 0 136 136" fill="none" xmlns="http://www.w3.org/2000/svg">
<path d="M107.068 87.837C107.068 88.7076 106.39 89.4187 105.551 89.4187C104.712 89.4187 104.034 88.7076 104.034 87.837C104.034 86.9623 104.712 86.2553 105.551 86.2553C106.39 86.2553 107.068 86.9623 107.068 87.837Z" fill="#FF671B"/>
<path d="M105.057 91.2498C105.057 92.1244 104.379 92.8315 103.54 92.8315C102.701 92.8315 102.023 92.1244 102.023 91.2498C102.023 90.3751 102.701 89.668 103.54 89.668C104.379 89.668 105.057 90.3751 105.057 91.2498Z" fill="#FF671B"/>
<path d="M102.748 94.45C102.748 95.3247 102.066 96.0358 101.227 96.0358C100.388 96.0358 99.7095 95.3247 99.7095 94.45C99.7095 93.5795 100.388 92.8683 101.227 92.8683C102.066 92.8683 102.748 93.5795 102.748 94.45Z" fill="#FF671B"/>
<path d="M100.149 97.4214C100.149 98.2919 99.4704 99.0031 98.6315 99.0031C97.7925 99.0031 97.1143 98.2919 97.1143 97.4214C97.1143 96.5467 97.7925 95.8396 98.6315 95.8396C99.4704 95.8396 100.149 96.5467 100.149 97.4214Z" fill="#FF671B"/>
<path d="M97.2907 100.135C97.2907 101.01 96.6125 101.717 95.7735 101.717C94.9346 101.717 94.2564 101.01 94.2564 100.135C94.2564 99.2606 94.9346 98.5535 95.7735 98.5535C96.6125 98.5535 97.2907 99.2606 97.2907 100.135Z" fill="#FF671B"/>
<path d="M94.1897 102.579C94.1897 103.454 93.5076 104.161 92.6726 104.161C91.8336 104.161 91.1515 103.454 91.1515 102.579C91.1515 101.705 91.8336 100.998 92.6726 100.998C93.5076 100.998 94.1897 101.705 94.1897 102.579Z" fill="#FF671B"/>
<path d="M90.8614 104.733C90.8614 105.604 90.1832 106.315 89.3442 106.315C88.5053 106.315 87.827 105.604 87.827 104.733C87.827 103.859 88.5053 103.152 89.3442 103.152C90.1832 103.152 90.8614 103.859 90.8614 104.733Z" fill="#FF671B"/>
<path d="M87.3292 106.573C87.3292 107.447 86.6509 108.154 85.812 108.154C84.973 108.154 84.2948 107.447 84.2948 106.573C84.2948 105.698 84.973 104.991 85.812 104.991C86.6509 104.991 87.3292 105.698 87.3292 106.573Z" fill="#FF671B"/>
<path d="M83.6127 108.085C83.6127 108.959 82.9345 109.666 82.0955 109.666C81.2566 109.666 80.5784 108.959 80.5784 108.085C80.5784 107.21 81.2566 106.503 82.0955 106.503C82.9345 106.503 83.6127 107.21 83.6127 108.085Z" fill="#FF671B"/>
<path d="M79.7277 109.245C79.7277 110.12 79.0494 110.827 78.2105 110.827C77.3715 110.827 76.6933 110.12 76.6933 109.245C76.6933 108.371 77.3715 107.664 78.2105 107.664C79.0494 107.664 79.7277 108.371 79.7277 109.245Z" fill="#FF671B"/>
<path d="M75.6975 110.038C75.6975 110.909 75.0193 111.62 74.1804 111.62C73.3453 111.62 72.6632 110.909 72.6632 110.038C72.6632 109.164 73.3453 108.457 74.1804 108.457C75.0193 108.457 75.6975 109.164 75.6975 110.038Z" fill="#FF671B"/>
<path d="M71.7851 110.41C71.7851 111.285 71.1029 111.992 70.2679 111.992C69.4289 111.992 68.7507 111.285 68.7507 110.41C68.7507 109.536 69.4289 108.829 70.2679 108.829C71.1029 108.829 71.7851 109.536 71.7851 110.41Z" fill="#FF671B"/>
<path d="M67.7158 110.435C67.7158 111.31 67.0376 112.017 66.1986 112.017C65.3636 112.017 64.6815 111.31 64.6815 110.435C64.6815 109.56 65.3636 108.853 66.1986 108.853C67.0376 108.853 67.7158 109.56 67.7158 110.435Z" fill="#FF671B"/>
<path d="M63.5838 110.059C63.5838 110.933 62.9056 111.641 62.0666 111.641C61.2277 111.641 60.5494 110.933 60.5494 110.059C60.5494 109.188 61.2277 108.477 62.0666 108.477C62.9056 108.477 63.5838 109.188 63.5838 110.059Z" fill="#FF671B"/>
<path d="M59.5733 109.299C59.5733 110.173 58.8951 110.884 58.0561 110.884C57.2172 110.884 56.5389 110.173 56.5389 109.299C56.5389 108.428 57.2172 107.717 58.0561 107.717C58.8951 107.717 59.5733 108.428 59.5733 109.299Z" fill="#FF671B"/>
<path d="M55.7039 108.175C55.7039 109.049 55.0257 109.756 54.1867 109.756C53.3478 109.756 52.6696 109.049 52.6696 108.175C52.6696 107.3 53.3478 106.593 54.1867 106.593C55.0257 106.593 55.7039 107.3 55.7039 108.175Z" fill="#FF671B"/>
<path d="M51.9992 106.699C51.9992 107.574 51.321 108.285 50.482 108.285C49.6431 108.285 48.9649 107.574 48.9649 106.699C48.9649 105.829 49.6431 105.117 50.482 105.117C51.321 105.117 51.9992 105.829 51.9992 106.699Z" fill="#FF671B"/>
<path d="M48.4748 104.901C48.4748 105.771 47.7927 106.483 46.9577 106.483C46.1187 106.483 45.4366 105.771 45.4366 104.901C45.4366 104.026 46.1187 103.319 46.9577 103.319C47.7927 103.319 48.4748 104.026 48.4748 104.901Z" fill="#FF671B"/>
<path d="M45.1465 102.788C45.1465 103.662 44.4682 104.37 43.6293 104.37C42.7903 104.37 42.1121 103.662 42.1121 102.788C42.1121 101.913 42.7903 101.206 43.6293 101.206C44.4682 101.206 45.1465 101.913 45.1465 102.788Z" fill="#FF671B"/>
<path d="M42.0416 100.385C42.0416 101.259 41.3594 101.966 40.5244 101.966C39.6854 101.966 39.0072 101.259 39.0072 100.385C39.0072 99.5099 39.6854 98.8028 40.5244 98.8028C41.3594 98.8028 42.0416 99.5099 42.0416 100.385Z" fill="#FF671B"/>
<path d="M39.1719 97.7115C39.1719 98.5862 38.4898 99.2933 37.6547 99.2933C36.8158 99.2933 36.1376 98.5862 36.1376 97.7115C36.1376 96.8369 36.8158 96.1298 37.6547 96.1298C38.4898 96.1298 39.1719 96.8369 39.1719 97.7115Z" fill="#FF671B"/>
<path d="M36.557 94.7852C36.557 95.6598 35.8788 96.3669 35.0399 96.3669C34.2009 96.3669 33.5227 95.6598 33.5227 94.7852C33.5227 93.9105 34.2009 93.2034 35.0399 93.2034C35.8788 93.2034 36.557 93.9105 36.557 94.7852Z" fill="#FF671B"/>
<path d="M34.2205 91.6258C34.2205 92.5004 33.5423 93.2075 32.7034 93.2075C31.8644 93.2075 31.1862 92.5004 31.1862 91.6258C31.1862 90.7511 31.8644 90.0441 32.7034 90.0441C33.5423 90.0441 34.2205 90.7511 34.2205 91.6258Z" fill="#FF671B"/>
<path d="M32.178 88.2539C32.178 89.1244 31.4998 89.8356 30.6609 89.8356C29.8219 89.8356 29.1437 89.1244 29.1437 88.2539C29.1437 87.3792 29.8219 86.6721 30.6609 86.6721C31.4998 86.6721 32.178 87.3792 32.178 88.2539Z" fill="#FF671B"/>
<path d="M30.4492 84.6817C30.4492 85.5564 29.7709 86.2675 28.932 86.2675C28.093 86.2675 27.4148 85.5564 27.4148 84.6817C27.4148 83.8111 28.093 83.1 28.932 83.1C29.7709 83.1 30.4492 83.8111 30.4492 84.6817Z" fill="#FF671B"/>
<path d="M29.0535 80.9379C29.0535 81.8125 28.3753 82.5196 27.5364 82.5196C26.6974 82.5196 26.0192 81.8125 26.0192 80.9379C26.0192 80.0632 26.6974 79.3562 27.5364 79.3562C28.3753 79.3562 29.0535 80.0632 29.0535 80.9379Z" fill="#FF671B"/>
<path d="M28.0107 77.0346C28.0107 77.9093 27.3286 78.6164 26.4896 78.6164C25.6546 78.6164 24.9764 77.9093 24.9764 77.0346C24.9764 76.16 25.6546 75.4529 26.4896 75.4529C27.3286 75.4529 28.0107 76.16 28.0107 77.0346Z" fill="#FF671B"/>
<path d="M27.3364 72.9925C27.3364 73.8671 26.6543 74.5742 25.8193 74.5742C24.9803 74.5742 24.2982 73.8671 24.2982 72.9925C24.2982 72.1178 24.9803 71.4107 25.8193 71.4107C26.6543 71.4107 27.3364 72.1178 27.3364 72.9925Z" fill="#FF671B"/>
<path d="M27.0502 68.8317C27.0502 69.7064 26.372 70.4135 25.5331 70.4135C24.6941 70.4135 24.0159 69.7064 24.0159 68.8317C24.0159 67.9571 24.6941 67.25 25.5331 67.25C26.372 67.25 27.0502 67.9571 27.0502 68.8317Z" fill="#FF671B"/>
<path d="M27.1757 64.6996C27.1757 65.5702 26.4975 66.2813 25.6585 66.2813C24.8196 66.2813 24.1414 65.5702 24.1414 64.6996C24.1414 63.825 24.8196 63.1138 25.6585 63.1138C26.4975 63.1138 27.1757 63.825 27.1757 64.6996Z" fill="#FF671B"/>
<path d="M27.6893 60.6002C27.6893 61.4749 27.0111 62.1819 26.1721 62.1819C25.3332 62.1819 24.6549 61.4749 24.6549 60.6002C24.6549 59.7256 25.3332 59.0185 26.1721 59.0185C27.0111 59.0185 27.6893 59.7256 27.6893 60.6002Z" fill="#FF671B"/>
<path d="M28.5831 56.6316C28.5831 57.5062 27.9049 58.2174 27.0659 58.2174C26.227 58.2174 25.5488 57.5062 25.5488 56.6316C25.5488 55.761 26.227 55.0499 27.0659 55.0499C27.9049 55.0499 28.5831 55.761 28.5831 56.6316Z" fill="#FF671B"/>
<path d="M29.8376 52.8183C29.8376 53.6888 29.1594 54.4 28.3204 54.4C27.4854 54.4 26.8033 53.6888 26.8033 52.8183C26.8033 51.9436 27.4854 51.2325 28.3204 51.2325C29.1594 51.2325 29.8376 51.9436 29.8376 52.8183Z" fill="#FF671B"/>
<path d="M31.4371 49.1684C31.4371 50.0431 30.755 50.7502 29.9199 50.7502C29.081 50.7502 28.4028 50.0431 28.4028 49.1684C28.4028 48.2938 29.081 47.5867 29.9199 47.5867C30.755 47.5867 31.4371 48.2938 31.4371 49.1684Z" fill="#FF671B"/>
<path d="M33.3541 45.7107C33.3541 46.5813 32.6759 47.2924 31.837 47.2924C30.998 47.2924 30.3198 46.5813 30.3198 45.7107C30.3198 44.8361 30.998 44.129 31.837 44.129C32.6759 44.129 33.3541 44.8361 33.3541 45.7107Z" fill="#FF671B"/>
<path d="M35.5769 42.4573C35.5769 43.332 34.8987 44.0391 34.0598 44.0391C33.2208 44.0391 32.5426 43.332 32.5426 42.4573C32.5426 41.5827 33.2208 40.8756 34.0598 40.8756C34.8987 40.8756 35.5769 41.5827 35.5769 42.4573Z" fill="#FF671B"/>
<path d="M38.082 39.4288C38.082 40.3034 37.4038 41.0146 36.5649 41.0146C35.7259 41.0146 35.0477 40.3034 35.0477 39.4288C35.0477 38.5582 35.7259 37.8511 36.5649 37.8511C37.4038 37.8511 38.082 38.5582 38.082 39.4288Z" fill="#FF671B"/>
<path d="M40.8537 36.6495C40.8537 37.5241 40.1755 38.2312 39.3365 38.2312C38.4976 38.2312 37.8194 37.5241 37.8194 36.6495C37.8194 35.7748 38.4976 35.0678 39.3365 35.0678C40.1755 35.0678 40.8537 35.7748 40.8537 36.6495Z" fill="#FF671B"/>
<path d="M43.8723 34.1359C43.8723 35.0065 43.1902 35.7176 42.3513 35.7176C41.5162 35.7176 40.838 35.0065 40.838 34.1359C40.838 33.2612 41.5162 32.5501 42.3513 32.5501C43.1902 32.5501 43.8723 33.2612 43.8723 34.1359Z" fill="#FF671B"/>
<path d="M47.1145 31.9002C47.1145 32.7749 46.4363 33.482 45.5973 33.482C44.7584 33.482 44.0801 32.7749 44.0801 31.9002C44.0801 31.0297 44.7584 30.3185 45.5973 30.3185C46.4363 30.3185 47.1145 31.0297 47.1145 31.9002Z" fill="#FF671B"/>
<path d="M50.5644 29.9711C50.5644 30.8416 49.8861 31.5528 49.0472 31.5528C48.2122 31.5528 47.53 30.8416 47.53 29.9711C47.53 29.0964 48.2122 28.3894 49.0472 28.3894C49.8861 28.3894 50.5644 29.0964 50.5644 29.9711Z" fill="#FF671B"/>
<path d="M54.2063 28.3608C54.2063 29.2354 53.5281 29.9425 52.6892 29.9425C51.8502 29.9425 51.172 29.2354 51.172 28.3608C51.172 27.4861 51.8502 26.779 52.6892 26.779C53.5281 26.779 54.2063 27.4861 54.2063 28.3608Z" fill="#FF671B"/>
<path d="M58.0169 27.0937C58.0169 27.9684 57.3348 28.6755 56.4958 28.6755C55.6608 28.6755 54.9786 27.9684 54.9786 27.0937C54.9786 26.2191 55.6608 25.512 56.4958 25.512C57.3348 25.512 58.0169 26.2191 58.0169 27.0937Z" fill="#FF671B"/>
<path d="M61.9764 26.1823C61.9764 27.057 61.2943 27.7681 60.4593 27.7681C59.6203 27.7681 58.9382 27.057 58.9382 26.1823C58.9382 25.3117 59.6203 24.6006 60.4593 24.6006C61.2943 24.6006 61.9764 25.3117 61.9764 26.1823Z" fill="#FF671B"/>
<path d="M66.0653 25.6551C66.0653 26.5297 65.3871 27.2368 64.5481 27.2368C63.7092 27.2368 63.031 26.5297 63.031 25.6551C63.031 24.7804 63.7092 24.0733 64.5481 24.0733C65.3871 24.0733 66.0653 24.7804 66.0653 25.6551Z" fill="#FF671B"/>
<path d="M70.2483 25.5202C70.2483 26.3948 69.5701 27.106 68.7312 27.106C67.8922 27.106 67.214 26.3948 67.214 25.5202C67.214 24.6496 67.8922 23.9384 68.7312 23.9384C69.5701 23.9384 70.2483 24.6496 70.2483 25.5202Z" fill="#FF671B"/>
<path d="M74.3176 25.7818C74.3176 26.6564 73.6355 27.3676 72.8004 27.3676C71.9615 27.3676 71.2833 26.6564 71.2833 25.7818C71.2833 24.9112 71.9615 24.2 72.8004 24.2C73.6355 24.2 74.3176 24.9112 74.3176 25.7818Z" fill="#FF671B"/>
<path d="M78.2732 26.4194C78.2732 27.294 77.5911 28.0011 76.7561 28.0011C75.9171 28.0011 75.2389 27.294 75.2389 26.4194C75.2389 25.5447 75.9171 24.8376 76.7561 24.8376C77.5911 24.8376 78.2732 25.5447 78.2732 26.4194Z" fill="#FF671B"/>
<path d="M82.0916 27.4125C82.0916 28.2872 81.4134 28.9943 80.5744 28.9943C79.7355 28.9943 79.0573 28.2872 79.0573 27.4125C79.0573 26.5379 79.7355 25.8308 80.5744 25.8308C81.4134 25.8308 82.0916 26.5379 82.0916 27.4125Z" fill="#FF671B"/>
<path d="M85.765 28.7409C85.765 29.6114 85.0828 30.3226 84.2478 30.3226C83.4088 30.3226 82.7306 29.6114 82.7306 28.7409C82.7306 27.8662 83.4088 27.1591 84.2478 27.1591C85.0828 27.1591 85.765 27.8662 85.765 28.7409Z" fill="#FF671B"/>
<path d="M89.2658 30.388C89.2658 31.2585 88.5876 31.9697 87.7486 31.9697C86.9097 31.9697 86.2315 31.2585 86.2315 30.388C86.2315 29.5133 86.9097 28.8062 87.7486 28.8062C88.5876 28.8062 89.2658 29.5133 89.2658 30.388Z" fill="#FF671B"/>
<path d="M92.5824 32.3335C92.5824 33.2081 91.9042 33.9152 91.0652 33.9152C90.2263 33.9152 89.5481 33.2081 89.5481 32.3335C89.5481 31.4588 90.2263 30.7517 91.0652 30.7517C91.9042 30.7517 92.5824 31.4588 92.5824 32.3335Z" fill="#FF671B"/>
<path d="M111.886 84.0932C111.886 84.8942 111.263 85.5441 110.494 85.5441C109.726 85.5441 109.107 84.8942 109.107 84.0932C109.107 83.2921 109.726 82.6422 110.494 82.6422C111.263 82.6422 111.886 83.2921 111.886 84.0932Z" fill="#FF671B"/>
<path d="M110.185 88.2334C110.185 89.0345 109.565 89.6844 108.797 89.6844C108.028 89.6844 107.405 89.0345 107.405 88.2334C107.405 87.4324 108.028 86.7825 108.797 86.7825C109.565 86.7825 110.185 87.4324 110.185 88.2334Z" fill="#FF671B"/>
<path d="M108.091 92.153C108.091 92.9541 107.468 93.604 106.699 93.604C105.935 93.604 105.312 92.9541 105.312 92.153C105.312 91.3519 105.935 90.7021 106.699 90.7021C107.468 90.7021 108.091 91.3519 108.091 92.153Z" fill="#FF671B"/>
<path d="M105.629 95.8356C105.629 96.6366 105.006 97.2865 104.238 97.2865C103.469 97.2865 102.846 96.6366 102.846 95.8356C102.846 95.0345 103.469 94.3846 104.238 94.3846C105.006 94.3846 105.629 95.0345 105.629 95.8356Z" fill="#FF671B"/>
<path d="M102.818 99.2483C102.818 100.049 102.195 100.699 101.427 100.699C100.662 100.699 100.039 100.049 100.039 99.2483C100.039 98.4473 100.662 97.7974 101.427 97.7974C102.195 97.7974 102.818 98.4473 102.818 99.2483Z" fill="#FF671B"/>
<path d="M99.686 102.371C99.686 103.172 99.0627 103.822 98.2943 103.822C97.5299 103.822 96.9065 103.172 96.9065 102.371C96.9065 101.57 97.5299 100.92 98.2943 100.92C99.0627 100.92 99.686 101.57 99.686 102.371Z" fill="#FF671B"/>
<path d="M96.2597 105.183C96.2597 105.984 95.6363 106.63 94.8679 106.63C94.0996 106.63 93.4762 105.984 93.4762 105.183C93.4762 104.378 94.0996 103.732 94.8679 103.732C95.6363 103.732 96.2597 104.378 96.2597 105.183Z" fill="#FF671B"/>
<path d="M92.555 107.652C92.555 108.453 91.9316 109.102 91.1632 109.102C90.3949 109.102 89.7755 108.453 89.7755 107.652C89.7755 106.85 90.3949 106.201 91.1632 106.201C91.9316 106.201 92.555 106.85 92.555 107.652Z" fill="#FF671B"/>
<path d="M88.6033 109.76C88.6033 110.562 87.9799 111.211 87.2116 111.211C86.4471 111.211 85.8238 110.562 85.8238 109.76C85.8238 108.959 86.4471 108.31 87.2116 108.31C87.9799 108.31 88.6033 108.959 88.6033 109.76Z" fill="#FF671B"/>
<path d="M84.4281 111.481C84.4281 112.282 83.8048 112.932 83.0364 112.932C82.268 112.932 81.6486 112.282 81.6486 111.481C81.6486 110.68 82.268 110.034 83.0364 110.034C83.8048 110.034 84.4281 110.68 84.4281 111.481Z" fill="#FF671B"/>
<path d="M80.0491 112.793C80.0491 113.594 79.4297 114.244 78.6613 114.244C77.8929 114.244 77.2696 113.594 77.2696 112.793C77.2696 111.992 77.8929 111.342 78.6613 111.342C79.4297 111.342 80.0491 111.992 80.0491 112.793Z" fill="#FF671B"/>
<path d="M75.6975 113.643C75.6975 114.444 75.0742 115.094 74.3058 115.094C73.5374 115.094 72.918 114.444 72.918 113.643C72.918 112.842 73.5374 112.196 74.3058 112.196C75.0742 112.196 75.6975 112.842 75.6975 113.643Z" fill="#FF671B"/>
<path d="M71.1617 114.085C71.1617 114.886 70.5384 115.536 69.77 115.536C69.0016 115.536 68.3783 114.886 68.3783 114.085C68.3783 113.284 69.0016 112.634 69.77 112.634C70.5384 112.634 71.1617 113.284 71.1617 114.085Z" fill="#FF671B"/>
<path d="M66.571 114.056C66.571 114.857 65.9477 115.507 65.1793 115.507C64.4109 115.507 63.7876 114.857 63.7876 114.056C63.7876 113.255 64.4109 112.605 65.1793 112.605C65.9477 112.605 66.571 113.255 66.571 114.056Z" fill="#FF671B"/>
<path d="M62.0392 113.586C62.0392 114.387 61.4158 115.033 60.6474 115.033C59.8791 115.033 59.2596 114.387 59.2596 113.586C59.2596 112.781 59.8791 112.135 60.6474 112.135C61.4158 112.135 62.0392 112.781 62.0392 113.586Z" fill="#FF671B"/>
<path d="M57.5817 112.679C57.5817 113.48 56.9623 114.13 56.19 114.13C55.4216 114.13 54.7983 113.48 54.7983 112.679C54.7983 111.878 55.4216 111.232 56.19 111.232C56.9623 111.232 57.5817 111.878 57.5817 112.679Z" fill="#FF671B"/>
<path d="M53.2341 111.35C53.2341 112.147 52.6108 112.797 51.8424 112.797C51.074 112.797 50.4507 112.147 50.4507 111.35C50.4507 110.545 51.074 109.899 51.8424 109.899C52.6108 109.899 53.2341 110.545 53.2341 111.35Z" fill="#FF671B"/>
<path d="M49.0785 109.609C49.0785 110.41 48.4552 111.056 47.6868 111.056C46.9184 111.056 46.2951 110.41 46.2951 109.609C46.2951 108.808 46.9184 108.158 47.6868 108.158C48.4552 108.158 49.0785 108.808 49.0785 109.609Z" fill="#FF671B"/>
<path d="M45.1386 107.48C45.1386 108.281 44.5153 108.931 43.7469 108.931C42.9785 108.931 42.3591 108.281 42.3591 107.48C42.3591 106.679 42.9785 106.033 43.7469 106.033C44.5153 106.033 45.1386 106.679 45.1386 107.48Z" fill="#FF671B"/>
<path d="M41.4417 104.995C41.4417 105.796 40.8184 106.442 40.05 106.442C39.2816 106.442 38.6622 105.796 38.6622 104.995C38.6622 104.19 39.2816 103.544 40.05 103.544C40.8184 103.544 41.4417 104.19 41.4417 104.995Z" fill="#FF671B"/>
<path d="M38.0115 102.167C38.0115 102.968 37.3881 103.617 36.6197 103.617C35.8514 103.617 35.228 102.968 35.228 102.167C35.228 101.365 35.8514 100.716 36.6197 100.716C37.3881 100.716 38.0115 101.365 38.0115 102.167Z" fill="#FF671B"/>
<path d="M34.8635 99.0235C34.8635 99.8246 34.2441 100.474 33.4757 100.474C32.7073 100.474 32.084 99.8246 32.084 99.0235C32.084 98.2225 32.7073 97.5726 33.4757 97.5726C34.2441 97.5726 34.8635 98.2225 34.8635 99.0235Z" fill="#FF671B"/>
<path d="M32.033 95.5903C32.033 96.3914 31.4096 97.0413 30.6413 97.0413C29.8729 97.0413 29.2495 96.3914 29.2495 95.5903C29.2495 94.7892 29.8729 94.1435 30.6413 94.1435C31.4096 94.1435 32.033 94.7892 32.033 95.5903Z" fill="#FF671B"/>
<path d="M29.5318 91.8915C29.5318 92.6925 28.9124 93.3424 28.144 93.3424C27.3756 93.3424 26.7523 92.6925 26.7523 91.8915C26.7523 91.0904 27.3756 90.4405 28.144 90.4405C28.9124 90.4405 29.5318 91.0904 29.5318 91.8915Z" fill="#FF671B"/>
<path d="M27.3952 87.9473C27.3952 88.7443 26.7719 89.3942 26.0035 89.3942C25.2351 89.3942 24.6118 88.7443 24.6118 87.9473C24.6118 87.1422 25.2351 86.4964 26.0035 86.4964C26.7719 86.4964 27.3952 87.1422 27.3952 87.9473Z" fill="#FF671B"/>
<path d="M25.635 83.7785C25.635 84.5795 25.0156 85.2294 24.2472 85.2294C23.4788 85.2294 22.8555 84.5795 22.8555 83.7785C22.8555 82.9774 23.4788 82.3275 24.2472 82.3275C25.0156 82.3275 25.635 82.9774 25.635 83.7785Z" fill="#FF671B"/>
<path d="M24.2864 79.4175C24.2864 80.2185 23.6631 80.8684 22.8947 80.8684C22.1263 80.8684 21.503 80.2185 21.503 79.4175C21.503 78.6164 22.1263 77.9665 22.8947 77.9665C23.6631 77.9665 24.2864 78.6164 24.2864 79.4175Z" fill="#FF671B"/>
<path d="M23.3612 74.8807C23.3612 75.6818 22.7379 76.3276 21.9695 76.3276C21.205 76.3276 20.5817 75.6818 20.5817 74.8807C20.5817 74.0756 21.205 73.4298 21.9695 73.4298C22.7379 73.4298 23.3612 74.0756 23.3612 74.8807Z" fill="#FF671B"/>
<path d="M22.8908 70.1928C22.8908 70.9938 22.2714 71.6437 21.503 71.6437C20.7346 71.6437 20.1113 70.9938 20.1113 70.1928C20.1113 69.3917 20.7346 68.7418 21.503 68.7418C22.2714 68.7418 22.8908 69.3917 22.8908 70.1928Z" fill="#FF671B"/>
<path d="M22.8986 65.4844C22.8986 66.2854 22.2753 66.9353 21.5069 66.9353C20.7385 66.9353 20.1191 66.2854 20.1191 65.4844C20.1191 64.6833 20.7385 64.0334 21.5069 64.0334C22.2753 64.0334 22.8986 64.6833 22.8986 65.4844Z" fill="#FF671B"/>
<path d="M23.373 60.8046C23.373 61.6056 22.7496 62.2555 21.9813 62.2555C21.2129 62.2555 20.5895 61.6056 20.5895 60.8046C20.5895 60.0035 21.2129 59.3577 21.9813 59.3577C22.7496 59.3577 23.373 60.0035 23.373 60.8046Z" fill="#FF671B"/>
<path d="M24.2982 56.2637C24.2982 57.0648 23.6749 57.7147 22.9065 57.7147C22.142 57.7147 21.5187 57.0648 21.5187 56.2637C21.5187 55.4627 22.142 54.8128 22.9065 54.8128C23.6749 54.8128 24.2982 55.4627 24.2982 56.2637Z" fill="#FF671B"/>
<path d="M25.6585 51.8905C25.6585 52.6916 25.0352 53.3414 24.2668 53.3414C23.4984 53.3414 22.8751 52.6916 22.8751 51.8905C22.8751 51.0894 23.4984 50.4395 24.2668 50.4395C25.0352 50.4395 25.6585 51.0894 25.6585 51.8905Z" fill="#FF671B"/>
<path d="M27.4227 47.7175C27.4227 48.5186 26.8033 49.1684 26.0349 49.1684C25.2665 49.1684 24.6432 48.5186 24.6432 47.7175C24.6432 46.9164 25.2665 46.2666 26.0349 46.2666C26.8033 46.2666 27.4227 46.9164 27.4227 47.7175Z" fill="#FF671B"/>
<path d="M29.5749 43.7652C29.5749 44.5663 28.9516 45.2121 28.1832 45.2121C27.4187 45.2121 26.7954 44.5663 26.7954 43.7652C26.7954 42.9601 27.4187 42.3143 28.1832 42.3143C28.9516 42.3143 29.5749 42.9601 29.5749 43.7652Z" fill="#FF671B"/>
<path d="M32.0879 40.0541C32.0879 40.8552 31.4645 41.505 30.6962 41.505C29.9278 41.505 29.3044 40.8552 29.3044 40.0541C29.3044 39.253 29.9278 38.6031 30.6962 38.6031C31.4645 38.6031 32.0879 39.253 32.0879 40.0541Z" fill="#FF671B"/>
<path d="M34.934 36.6086C34.934 37.4097 34.3146 38.0596 33.5462 38.0596C32.7778 38.0596 32.1545 37.4097 32.1545 36.6086C32.1545 35.8075 32.7778 35.1577 33.5462 35.1577C34.3146 35.1577 34.934 35.8075 34.934 36.6086Z" fill="#FF671B"/>
<path d="M38.0977 33.4574C38.0977 34.2585 37.4744 34.9084 36.706 34.9084C35.9415 34.9084 35.3182 34.2585 35.3182 33.4574C35.3182 32.6564 35.9415 32.0065 36.706 32.0065C37.4744 32.0065 38.0977 32.6564 38.0977 33.4574Z" fill="#FF671B"/>
<path d="M41.5515 30.6169C41.5515 31.4179 40.9282 32.0678 40.1598 32.0678C39.3914 32.0678 38.7681 31.4179 38.7681 30.6169C38.7681 29.8158 39.3914 29.17 40.1598 29.17C40.9282 29.17 41.5515 29.8158 41.5515 30.6169Z" fill="#FF671B"/>
<path d="M45.268 28.1196C45.268 28.9207 44.6447 29.5705 43.8763 29.5705C43.1079 29.5705 42.4846 28.9207 42.4846 28.1196C42.4846 27.3185 43.1079 26.6687 43.8763 26.6687C44.6447 26.6687 45.268 27.3185 45.268 28.1196Z" fill="#FF671B"/>
<path d="M49.2275 25.9779C49.2275 26.779 48.6081 27.4289 47.8397 27.4289C47.0713 27.4289 46.448 26.779 46.448 25.9779C46.448 25.1769 47.0713 24.527 47.8397 24.527C48.6081 24.527 49.2275 25.1769 49.2275 25.9779Z" fill="#FF671B"/>
<path d="M53.4105 24.2246C53.4105 25.0256 52.7872 25.6755 52.0188 25.6755C51.2504 25.6755 50.6271 25.0256 50.6271 24.2246C50.6271 23.4235 51.2504 22.7736 52.0188 22.7736C52.7872 22.7736 53.4105 23.4235 53.4105 24.2246Z" fill="#FF671B"/>
<path d="M57.7817 22.8799C57.7817 23.681 57.1623 24.3308 56.3939 24.3308C55.6255 24.3308 55.0022 23.681 55.0022 22.8799C55.0022 22.0788 55.6255 21.4289 56.3939 21.4289C57.1623 21.4289 57.7817 22.0788 57.7817 22.8799Z" fill="#FF671B"/>
<path d="M62.3292 21.9684C62.3292 22.7695 61.7059 23.4194 60.9375 23.4194C60.1691 23.4194 59.5458 22.7695 59.5458 21.9684C59.5458 21.1674 60.1691 20.5175 60.9375 20.5175C61.7059 20.5175 62.3292 21.1674 62.3292 21.9684Z" fill="#FF671B"/>
<path d="M67.0101 21.5107C67.0101 22.3118 66.3868 22.9616 65.6184 22.9616C64.85 22.9616 64.2267 22.3118 64.2267 21.5107C64.2267 20.7096 64.85 20.0597 65.6184 20.0597C66.3868 20.0597 67.0101 20.7096 67.0101 21.5107Z" fill="#FF671B"/>
<path d="M71.7263 21.5189C71.7263 22.324 71.1029 22.9698 70.3346 22.9698C69.5662 22.9698 68.9428 22.324 68.9428 21.5189C68.9428 20.7178 69.5662 20.072 70.3346 20.072C71.1029 20.072 71.7263 20.7178 71.7263 21.5189Z" fill="#FF671B"/>
<path d="M76.3052 21.9889C76.3052 22.79 75.6858 23.4398 74.9174 23.4398C74.149 23.4398 73.5257 22.79 73.5257 21.9889C73.5257 21.1878 74.149 20.5379 74.9174 20.5379C75.6858 20.5379 76.3052 21.1878 76.3052 21.9889Z" fill="#FF671B"/>
<path d="M80.7391 22.8921C80.7391 23.6932 80.1158 24.3431 79.3474 24.3431C78.5829 24.3431 77.9596 23.6932 77.9596 22.8921C77.9596 22.0911 78.5829 21.4412 79.3474 21.4412C80.1158 21.4412 80.7391 22.0911 80.7391 22.8921Z" fill="#FF671B"/>
<path d="M85.0044 24.2041C85.0044 25.0052 84.3811 25.6551 83.6127 25.6551C82.8482 25.6551 82.2249 25.0052 82.2249 24.2041C82.2249 23.403 82.8482 22.7532 83.6127 22.7532C84.3811 22.7532 85.0044 23.403 85.0044 24.2041Z" fill="#FF671B"/>
<path d="M89.0816 25.9085C89.0816 26.7055 88.4582 27.3553 87.6859 27.3553C86.9215 27.3553 86.2981 26.7055 86.2981 25.9085C86.2981 25.1074 86.9215 24.4575 87.6859 24.4575C88.4582 24.4575 89.0816 25.1074 89.0816 25.9085Z" fill="#FF671B"/>
<path d="M92.9548 27.9725C92.9548 28.7776 92.3315 29.4234 91.5631 29.4234C90.7947 29.4234 90.1714 28.7776 90.1714 27.9725C90.1714 27.1755 90.7947 26.5256 91.5631 26.5256C92.3315 26.5256 92.9548 27.1755 92.9548 27.9725Z" fill="#FF671B"/>
<path d="M96.6439 30.3839C96.6439 31.185 96.0205 31.8348 95.2521 31.8348C94.4877 31.8348 93.8604 31.185 93.8604 30.3839C93.8604 29.5828 94.4877 28.937 95.2521 28.937C96.0205 28.937 96.6439 29.5828 96.6439 30.3839Z" fill="#FF671B"/>
<path d="M116.704 80.3534C116.704 81.0809 116.14 81.6695 115.438 81.6695C114.74 81.6695 114.176 81.0809 114.176 80.3534C114.176 79.6259 114.74 79.0333 115.438 79.0333C116.14 79.0333 116.704 79.6259 116.704 80.3534Z" fill="#FF671B"/>
<path d="M115.316 85.2171C115.316 85.9446 114.748 86.5332 114.05 86.5332C113.352 86.5332 112.784 85.9446 112.784 85.2171C112.784 84.4855 113.352 83.897 114.05 83.897C114.748 83.897 115.316 84.4855 115.316 85.2171Z" fill="#FF671B"/>
<path d="M113.439 89.856C113.439 90.5836 112.874 91.1762 112.176 91.1762C111.478 91.1762 110.91 90.5836 110.91 89.856C110.91 89.1285 111.478 88.54 112.176 88.54C112.874 88.54 113.439 89.1285 113.439 89.856Z" fill="#FF671B"/>
<path d="M111.106 94.2497C111.106 94.9773 110.541 95.5658 109.844 95.5658C109.146 95.5658 108.577 94.9773 108.577 94.2497C108.577 93.5222 109.146 92.9296 109.844 92.9296C110.541 92.9296 111.106 93.5222 111.106 94.2497Z" fill="#FF671B"/>
<path d="M108.346 98.3614C108.346 99.0889 107.781 99.6775 107.08 99.6775C106.386 99.6775 105.817 99.0889 105.817 98.3614C105.817 97.6339 106.386 97.0413 107.08 97.0413C107.781 97.0413 108.346 97.6339 108.346 98.3614Z" fill="#FF671B"/>
<path d="M105.186 102.162C105.186 102.89 104.618 103.483 103.92 103.483C103.222 103.483 102.654 102.89 102.654 102.162C102.654 101.435 103.222 100.846 103.92 100.846C104.618 100.846 105.186 101.435 105.186 102.162Z" fill="#FF671B"/>
<path d="M101.654 105.628C101.654 106.36 101.09 106.949 100.392 106.949C99.69 106.949 99.1254 106.36 99.1254 105.628C99.1254 104.901 99.69 104.312 100.392 104.312C101.09 104.312 101.654 104.901 101.654 105.628Z" fill="#FF671B"/>
<path d="M97.7807 108.731C97.7807 109.458 97.2162 110.051 96.5184 110.051C95.8206 110.051 95.2521 109.458 95.2521 108.731C95.2521 108.003 95.8206 107.414 96.5184 107.414C97.2162 107.414 97.7807 108.003 97.7807 108.731Z" fill="#FF671B"/>
<path d="M93.5978 111.436C93.5978 112.164 93.0293 112.756 92.3315 112.756C91.6337 112.756 91.0652 112.164 91.0652 111.436C91.0652 110.709 91.6337 110.12 92.3315 110.12C93.0293 110.12 93.5978 110.709 93.5978 111.436Z" fill="#FF671B"/>
<path d="M89.1286 113.721C89.1286 114.448 88.5602 115.037 87.8623 115.037C87.1645 115.037 86.5961 114.448 86.5961 113.721C86.5961 112.993 87.1645 112.401 87.8623 112.401C88.5602 112.401 89.1286 112.993 89.1286 113.721Z" fill="#FF671B"/>
<path d="M84.4046 115.552C84.4046 116.279 83.8362 116.868 83.1383 116.868C82.4405 116.868 81.8721 116.279 81.8721 115.552C81.8721 114.82 82.4405 114.232 83.1383 114.232C83.8362 114.232 84.4046 114.82 84.4046 115.552Z" fill="#FF671B"/>
<path d="M79.614 116.88C79.614 117.608 79.0494 118.196 78.3477 118.196C77.6499 118.196 77.0854 117.608 77.0854 116.88C77.0854 116.153 77.6499 115.56 78.3477 115.56C79.0494 115.56 79.614 116.153 79.614 116.88Z" fill="#FF671B"/>
<path d="M74.6038 117.735C74.6038 118.466 74.0393 119.055 73.3375 119.055C72.6397 119.055 72.0713 118.466 72.0713 117.735C72.0713 117.007 72.6397 116.418 73.3375 116.418C74.0393 116.418 74.6038 117.007 74.6038 117.735Z" fill="#FF671B"/>
<path d="M69.5544 118.049C69.5544 118.781 68.9899 119.369 68.2921 119.369C67.5943 119.369 67.0258 118.781 67.0258 118.049C67.0258 117.322 67.5943 116.733 68.2921 116.733C68.9899 116.733 69.5544 117.322 69.5544 118.049Z" fill="#FF671B"/>
<path d="M64.5089 117.869C64.5089 118.597 63.9405 119.185 63.2427 119.185C62.5449 119.185 61.9764 118.597 61.9764 117.869C61.9764 117.138 62.5449 116.549 63.2427 116.549C63.9405 116.549 64.5089 117.138 64.5089 117.869Z" fill="#FF671B"/>
<path d="M59.4596 117.187C59.4596 117.914 58.8951 118.503 58.1933 118.503C57.4955 118.503 56.931 117.914 56.931 117.187C56.931 116.459 57.4955 115.867 58.1933 115.867C58.8951 115.867 59.4596 116.459 59.4596 117.187Z" fill="#FF671B"/>
<path d="M54.469 115.997C54.469 116.725 53.9005 117.314 53.2027 117.314C52.5049 117.314 51.9365 116.725 51.9365 115.997C51.9365 115.27 52.5049 114.677 53.2027 114.677C53.9005 114.677 54.469 115.27 54.469 115.997Z" fill="#FF671B"/>
<path d="M49.6823 114.318C49.6823 115.045 49.1178 115.634 48.416 115.634C47.7182 115.634 47.1537 115.045 47.1537 114.318C47.1537 113.59 47.7182 112.997 48.416 112.997C49.1178 112.997 49.6823 113.59 49.6823 114.318Z" fill="#FF671B"/>
<path d="M45.1308 112.176C45.1308 112.904 44.5663 113.492 43.8684 113.492C43.1667 113.492 42.6022 112.904 42.6022 112.176C42.6022 111.448 43.1667 110.856 43.8684 110.856C44.5663 110.856 45.1308 111.448 45.1308 112.176Z" fill="#FF671B"/>
<path d="M40.8459 109.601C40.8459 110.329 40.2774 110.917 39.5796 110.917C38.8818 110.917 38.3134 110.329 38.3134 109.601C38.3134 108.874 38.8818 108.281 39.5796 108.281C40.2774 108.281 40.8459 108.874 40.8459 109.601Z" fill="#FF671B"/>
<path d="M36.8472 106.622C36.8472 107.349 36.2826 107.938 35.5848 107.938C34.887 107.938 34.3185 107.349 34.3185 106.622C34.3185 105.894 34.887 105.301 35.5848 105.301C36.2826 105.301 36.8472 105.894 36.8472 106.622Z" fill="#FF671B"/>
<path d="M33.1738 103.262C33.1738 103.989 32.6053 104.582 31.9075 104.582C31.2097 104.582 30.6413 103.989 30.6413 103.262C30.6413 102.534 31.2097 101.946 31.9075 101.946C32.6053 101.946 33.1738 102.534 33.1738 103.262Z" fill="#FF671B"/>
<path d="M29.8415 99.5549C29.8415 100.286 29.277 100.875 28.5792 100.875C27.8813 100.875 27.3129 100.286 27.3129 99.5549C27.3129 98.8273 27.8813 98.2388 28.5792 98.2388C29.277 98.2388 29.8415 98.8273 29.8415 99.5549Z" fill="#FF671B"/>
<path d="M26.8895 95.529C26.8895 96.2565 26.3211 96.8492 25.6233 96.8492C24.9254 96.8492 24.357 96.2565 24.357 95.529C24.357 94.8015 24.9254 94.2089 25.6233 94.2089C26.3211 94.2089 26.8895 94.8015 26.8895 95.529Z" fill="#FF671B"/>
<path d="M24.3374 91.2089C24.3374 91.9364 23.7729 92.525 23.075 92.525C22.3772 92.525 21.8088 91.9364 21.8088 91.2089C21.8088 90.4814 22.3772 89.8887 23.075 89.8887C23.7729 89.8887 24.3374 90.4814 24.3374 91.2089Z" fill="#FF671B"/>
<path d="M22.2204 86.6231C22.2204 87.3506 21.652 87.9392 20.9541 87.9392C20.2563 87.9392 19.6918 87.3506 19.6918 86.6231C19.6918 85.8915 20.2563 85.303 20.9541 85.303C21.652 85.303 22.2204 85.8915 22.2204 86.6231Z" fill="#FF671B"/>
<path d="M20.5621 81.7962C20.5621 82.5278 19.9976 83.1163 19.2958 83.1163C18.598 83.1163 18.0296 82.5278 18.0296 81.7962C18.0296 81.0687 18.598 80.4801 19.2958 80.4801C19.9976 80.4801 20.5621 81.0687 20.5621 81.7962Z" fill="#FF671B"/>
<path d="M19.3899 76.7649C19.3899 77.4924 18.8254 78.0851 18.1237 78.0851C17.4259 78.0851 16.8613 77.4924 16.8613 76.7649C16.8613 76.0374 17.4259 75.4488 18.1237 75.4488C18.8254 75.4488 19.3899 76.0374 19.3899 76.7649Z" fill="#FF671B"/>
<path d="M18.7352 71.5538C18.7352 72.2813 18.1668 72.8698 17.469 72.8698C16.7711 72.8698 16.2027 72.2813 16.2027 71.5538C16.2027 70.8222 16.7711 70.2336 17.469 70.2336C18.1668 70.2336 18.7352 70.8222 18.7352 71.5538Z" fill="#FF671B"/>
<path d="M18.6215 66.2732C18.6215 67.0007 18.057 67.5892 17.3592 67.5892C16.6614 67.5892 16.0929 67.0007 16.0929 66.2732C16.0929 65.5416 16.6614 64.953 17.3592 64.953C18.057 64.953 18.6215 65.5416 18.6215 66.2732Z" fill="#FF671B"/>
<path d="M19.0567 61.013C19.0567 61.7405 18.4883 62.3291 17.7904 62.3291C17.0926 62.3291 16.5242 61.7405 16.5242 61.013C16.5242 60.2855 17.0926 59.6929 17.7904 59.6929C18.4883 59.6929 19.0567 60.2855 19.0567 61.013Z" fill="#FF671B"/>
<path d="M20.0133 55.8918C20.0133 56.6193 19.4487 57.212 18.7509 57.212C18.0492 57.212 17.4846 56.6193 17.4846 55.8918C17.4846 55.1643 18.0492 54.5717 18.7509 54.5717C19.4487 54.5717 20.0133 55.1643 20.0133 55.8918Z" fill="#FF671B"/>
<path d="M21.4755 50.9668C21.4755 51.6943 20.911 52.2869 20.2132 52.2869C19.5115 52.2869 18.9469 51.6943 18.9469 50.9668C18.9469 50.2393 19.5115 49.6507 20.2132 49.6507C20.911 49.6507 21.4755 50.2393 21.4755 50.9668Z" fill="#FF671B"/>
<path d="M23.4122 46.2666C23.4122 46.9941 22.8477 47.5826 22.1498 47.5826C21.4481 47.5826 20.8836 46.9941 20.8836 46.2666C20.8836 45.539 21.4481 44.9464 22.1498 44.9464C22.8477 44.9464 23.4122 45.539 23.4122 46.2666Z" fill="#FF671B"/>
<path d="M25.7957 41.8157C25.7957 42.5473 25.2312 43.1358 24.5334 43.1358C23.8316 43.1358 23.2671 42.5473 23.2671 41.8157C23.2671 41.0882 23.8316 40.4996 24.5334 40.4996C25.2312 40.4996 25.7957 41.0882 25.7957 41.8157Z" fill="#FF671B"/>
<path d="M28.5988 37.6468C28.5988 38.3784 28.0343 38.9669 27.3325 38.9669C26.6347 38.9669 26.0663 38.3784 26.0663 37.6468C26.0663 36.9193 26.6347 36.3307 27.3325 36.3307C28.0343 36.3307 28.5988 36.9193 28.5988 37.6468Z" fill="#FF671B"/>
<path d="M31.7899 33.7885C31.7899 34.516 31.2254 35.1046 30.5237 35.1046C29.8258 35.1046 29.2574 34.516 29.2574 33.7885C29.2574 33.061 29.8258 32.4683 30.5237 32.4683C31.2254 32.4683 31.7899 33.061 31.7899 33.7885Z" fill="#FF671B"/>
<path d="M35.3417 30.2613C35.3417 30.9929 34.7772 31.5814 34.0794 31.5814C33.3816 31.5814 32.8131 30.9929 32.8131 30.2613C32.8131 29.5338 33.3816 28.9452 34.0794 28.9452C34.7772 28.9452 35.3417 29.5338 35.3417 30.2613Z" fill="#FF671B"/>
<path d="M39.2307 27.1019C39.2307 27.8294 38.6623 28.4221 37.9644 28.4221C37.2666 28.4221 36.7021 27.8294 36.7021 27.1019C36.7021 26.3744 37.2666 25.7858 37.9644 25.7858C38.6623 25.7858 39.2307 26.3744 39.2307 27.1019Z" fill="#FF671B"/>
<path d="M43.4215 24.3349C43.4215 25.0624 42.857 25.6551 42.1592 25.6551C41.4614 25.6551 40.8929 25.0624 40.8929 24.3349C40.8929 23.6074 41.4614 23.0188 42.1592 23.0188C42.857 23.0188 43.4215 23.6074 43.4215 24.3349Z" fill="#FF671B"/>
<path d="M47.8907 21.9889C47.8907 22.7164 47.3262 23.3049 46.6284 23.3049C45.9305 23.3049 45.3621 22.7164 45.3621 21.9889C45.3621 21.2614 45.9305 20.6687 46.6284 20.6687C47.3262 20.6687 47.8907 21.2614 47.8907 21.9889Z" fill="#FF671B"/>
<path d="M52.6108 20.0884C52.6108 20.8159 52.0462 21.4085 51.3484 21.4085C50.6506 21.4085 50.0822 20.8159 50.0822 20.0884C50.0822 19.3608 50.6506 18.7723 51.3484 18.7723C52.0462 18.7723 52.6108 19.3608 52.6108 20.0884Z" fill="#FF671B"/>
<path d="M57.5504 18.6701C57.5504 19.3976 56.9858 19.9862 56.288 19.9862C55.5902 19.9862 55.0218 19.3976 55.0218 18.6701C55.0218 17.9385 55.5902 17.35 56.288 17.35C56.9858 17.35 57.5504 17.9385 57.5504 18.6701Z" fill="#FF671B"/>
<path d="M62.686 17.7505C62.686 18.478 62.1175 19.0707 61.4197 19.0707C60.7219 19.0707 60.1574 18.478 60.1574 17.7505C60.1574 17.023 60.7219 16.4344 61.4197 16.4344C62.1175 16.4344 62.686 17.023 62.686 17.7505Z" fill="#FF671B"/>
<path d="M67.951 17.3663C67.951 18.0938 67.3865 18.6865 66.6887 18.6865C65.9908 18.6865 65.4224 18.0938 65.4224 17.3663C65.4224 16.6388 65.9908 16.0502 66.6887 16.0502C67.3865 16.0502 67.951 16.6388 67.951 17.3663Z" fill="#FF671B"/>
<path d="M73.2042 17.5216C73.2042 18.2491 72.6397 18.8377 71.9419 18.8377C71.2402 18.8377 70.6756 18.2491 70.6756 17.5216C70.6756 16.79 71.2402 16.2015 71.9419 16.2015C72.6397 16.2015 73.2042 16.79 73.2042 17.5216Z" fill="#FF671B"/>
<path d="M78.2968 18.196C78.2968 18.9235 77.7283 19.5121 77.0305 19.5121C76.3327 19.5121 75.7642 18.9235 75.7642 18.196C75.7642 17.4685 76.3327 16.8759 77.0305 16.8759C77.7283 16.8759 78.2968 17.4685 78.2968 18.196Z" fill="#FF671B"/>
<path d="M83.2089 19.3649C83.2089 20.0924 82.6444 20.681 81.9426 20.681C81.2448 20.681 80.6803 20.0924 80.6803 19.3649C80.6803 18.6333 81.2448 18.0448 81.9426 18.0448C82.6444 18.0448 83.2089 18.6333 83.2089 19.3649Z" fill="#FF671B"/>
<path d="M87.9172 20.9998C87.9172 21.7273 87.3527 22.3159 86.651 22.3159C85.9531 22.3159 85.3886 21.7273 85.3886 20.9998C85.3886 20.2723 85.9531 19.6796 86.651 19.6796C87.3527 19.6796 87.9172 20.2723 87.9172 20.9998Z" fill="#FF671B"/>
<path d="M92.3942 23.072C92.3942 23.8036 91.8297 24.3921 91.1319 24.3921C90.4341 24.3921 89.8656 23.8036 89.8656 23.072C89.8656 22.3445 90.4341 21.7559 91.1319 21.7559C91.8297 21.7559 92.3942 22.3445 92.3942 23.072Z" fill="#FF671B"/>
<path d="M96.6399 25.5611C96.6399 26.2927 96.0754 26.8812 95.3776 26.8812C94.6798 26.8812 94.1113 26.2927 94.1113 25.5611C94.1113 24.8335 94.6798 24.245 95.3776 24.245C96.0754 24.245 96.6399 24.8335 96.6399 25.5611Z" fill="#FF671B"/>
<path d="M100.705 28.4384C100.705 29.1659 100.141 29.7545 99.439 29.7545C98.7412 29.7545 98.1767 29.1659 98.1767 28.4384C98.1767 27.7068 98.7412 27.1183 99.439 27.1183C100.141 27.1183 100.705 27.7068 100.705 28.4384Z" fill="#FF671B"/>
<path d="M121.522 76.6096C121.522 77.2635 121.013 77.799 120.385 77.799C119.754 77.799 119.245 77.2635 119.245 76.6096C119.245 75.9556 119.754 75.4243 120.385 75.4243C121.013 75.4243 121.522 75.9556 121.522 76.6096Z" fill="#FF671B"/>
<path d="M120.93 81.6041C120.93 82.2621 120.421 82.7935 119.793 82.7935C119.162 82.7935 118.653 82.2621 118.653 81.6041C118.653 80.9502 119.162 80.4188 119.793 80.4188C120.421 80.4188 120.93 80.9502 120.93 81.6041Z" fill="#FF671B"/>
<path d="M119.037 86.8397C119.037 87.4937 118.527 88.025 117.9 88.025C117.273 88.025 116.763 87.4937 116.763 86.8397C116.763 86.1858 117.273 85.6544 117.9 85.6544C118.527 85.6544 119.037 86.1858 119.037 86.8397Z" fill="#FF671B"/>
<path d="M116.587 92.6639C116.587 93.3179 116.077 93.8492 115.446 93.8492C114.818 93.8492 114.309 93.3179 114.309 92.6639C114.309 92.0059 114.818 91.4746 115.446 91.4746C116.077 91.4746 116.587 92.0059 116.587 92.6639Z" fill="#FF671B"/>
<path d="M113.874 97.4704C113.874 98.1284 113.364 98.6598 112.737 98.6598C112.106 98.6598 111.596 98.1284 111.596 97.4704C111.596 96.8165 112.106 96.2851 112.737 96.2851C113.364 96.2851 113.874 96.8165 113.874 97.4704Z" fill="#FF671B"/>
<path d="M110.683 101.954C110.683 102.612 110.173 103.143 109.546 103.143C108.918 103.143 108.409 102.612 108.409 101.954C108.409 101.3 108.918 100.769 109.546 100.769C110.173 100.769 110.683 101.3 110.683 101.954Z" fill="#FF671B"/>
<path d="M107.052 106.078C107.052 106.736 106.543 107.267 105.912 107.267C105.284 107.267 104.775 106.736 104.775 106.078C104.775 105.424 105.284 104.893 105.912 104.893C106.543 104.893 107.052 105.424 107.052 106.078Z" fill="#FF671B"/>
<path d="M103.007 109.81C103.007 110.463 102.497 110.995 101.87 110.995C101.242 110.995 100.733 110.463 100.733 109.81C100.733 109.156 101.242 108.624 101.87 108.624C102.497 108.624 103.007 109.156 103.007 109.81Z" fill="#FF671B"/>
<path d="M98.5883 113.112C98.5883 113.77 98.0787 114.301 97.4515 114.301C96.8203 114.301 96.3106 113.77 96.3106 113.112C96.3106 112.458 96.8203 111.927 97.4515 111.927C98.0787 111.927 98.5883 112.458 98.5883 113.112Z" fill="#FF671B"/>
<path d="M93.8251 115.957C93.8251 116.611 93.3155 117.142 92.6883 117.142C92.061 117.142 91.5514 116.611 91.5514 115.957C91.5514 115.303 92.061 114.771 92.6883 114.771C93.3155 114.771 93.8251 115.303 93.8251 115.957Z" fill="#FF671B"/>
<path d="M88.7562 118.307C88.7562 118.961 88.2465 119.492 87.6153 119.492C86.9881 119.492 86.4785 118.961 86.4785 118.307C86.4785 117.653 86.9881 117.121 87.6153 117.121C88.2465 117.121 88.7562 117.653 88.7562 118.307Z" fill="#FF671B"/>
<path d="M83.5265 120.113C83.5265 120.767 83.0168 121.303 82.3896 121.303C81.7623 121.303 81.2487 120.767 81.2487 120.113C81.2487 119.459 81.7623 118.928 82.3896 118.928C83.0168 118.928 83.5265 119.459 83.5265 120.113Z" fill="#FF671B"/>
<path d="M78.0458 121.388C78.0458 122.042 77.5362 122.574 76.9089 122.574C76.2778 122.574 75.7681 122.042 75.7681 121.388C75.7681 120.734 76.2778 120.203 76.9089 120.203C77.5362 120.203 78.0458 120.734 78.0458 121.388Z" fill="#FF671B"/>
<path d="M72.5417 122.046C72.5417 122.7 72.032 123.232 71.4048 123.232C70.7736 123.232 70.264 122.7 70.264 122.046C70.264 121.393 70.7736 120.861 71.4048 120.861C72.032 120.861 72.5417 121.393 72.5417 122.046Z" fill="#FF671B"/>
<path d="M66.9749 122.153C66.9749 122.807 66.4652 123.338 65.838 123.338C65.2068 123.338 64.6971 122.807 64.6971 122.153C64.6971 121.495 65.2068 120.963 65.838 120.963C66.4652 120.963 66.9749 121.495 66.9749 122.153Z" fill="#FF671B"/>
<path d="M61.3374 121.691C61.3374 122.345 60.8278 122.876 60.1966 122.876C59.5693 122.876 59.0597 122.345 59.0597 121.691C59.0597 121.037 59.5693 120.506 60.1966 120.506C60.8278 120.506 61.3374 121.037 61.3374 121.691Z" fill="#FF671B"/>
<path d="M55.7 120.645C55.7 121.299 55.1903 121.83 54.5631 121.83C53.9358 121.83 53.4262 121.299 53.4262 120.645C53.4262 119.987 53.9358 119.455 54.5631 119.455C55.1903 119.455 55.7 119.987 55.7 120.645Z" fill="#FF671B"/>
<path d="M50.286 119.026C50.286 119.68 49.7764 120.211 49.1491 120.211C48.5179 120.211 48.0083 119.68 48.0083 119.026C48.0083 118.372 48.5179 117.841 49.1491 117.841C49.7764 117.841 50.286 118.372 50.286 119.026Z" fill="#FF671B"/>
<path d="M45.123 116.868C45.123 117.526 44.6133 118.057 43.9861 118.057C43.3549 118.057 42.8452 117.526 42.8452 116.868C42.8452 116.214 43.3549 115.683 43.9861 115.683C44.6133 115.683 45.123 116.214 45.123 116.868Z" fill="#FF671B"/>
<path d="M40.2461 114.207C40.2461 114.865 39.7364 115.397 39.1092 115.397C38.478 115.397 37.9684 114.865 37.9684 114.207C37.9684 113.553 38.478 113.022 39.1092 113.022C39.7364 113.022 40.2461 113.553 40.2461 114.207Z" fill="#FF671B"/>
<path d="M35.6867 111.077C35.6867 111.73 35.1771 112.262 34.5498 112.262C33.9226 112.262 33.409 111.73 33.409 111.077C33.409 110.419 33.9226 109.887 34.5498 109.887C35.1771 109.887 35.6867 110.419 35.6867 111.077Z" fill="#FF671B"/>
<path d="M31.4802 107.5C31.4802 108.158 30.9706 108.69 30.3394 108.69C29.7122 108.69 29.2025 108.158 29.2025 107.5C29.2025 106.846 29.7122 106.315 30.3394 106.315C30.9706 106.315 31.4802 106.846 31.4802 107.5Z" fill="#FF671B"/>
<path d="M27.654 103.519C27.654 104.177 27.1443 104.709 26.5171 104.709C25.8859 104.709 25.3763 104.177 25.3763 103.519C25.3763 102.865 25.8859 102.334 26.5171 102.334C27.1443 102.334 27.654 102.865 27.654 103.519Z" fill="#FF671B"/>
<path d="M24.2433 99.1666C24.2433 99.8205 23.7337 100.352 23.1064 100.352C22.4792 100.352 21.9695 99.8205 21.9695 99.1666C21.9695 98.5126 22.4792 97.9813 23.1064 97.9813C23.7337 97.9813 24.2433 98.5126 24.2433 99.1666Z" fill="#FF671B"/>
<path d="M21.2834 94.4704C21.2834 95.1244 20.7738 95.6557 20.1466 95.6557C19.5154 95.6557 19.0057 95.1244 19.0057 94.4704C19.0057 93.8124 19.5154 93.2811 20.1466 93.2811C20.7738 93.2811 21.2834 93.8124 21.2834 94.4704Z" fill="#FF671B"/>
<path d="M18.8019 89.4637C18.8019 90.1176 18.2922 90.649 17.665 90.649C17.0377 90.649 16.5281 90.1176 16.5281 89.4637C16.5281 88.8097 17.0377 88.2784 17.665 88.2784C18.2922 88.2784 18.8019 88.8097 18.8019 89.4637Z" fill="#FF671B"/>
<path d="M16.8378 84.179C16.8378 84.8329 16.3282 85.3643 15.7009 85.3643C15.0697 85.3643 14.5601 84.8329 14.5601 84.179C14.5601 83.525 15.0697 82.9937 15.7009 82.9937C16.3282 82.9937 16.8378 83.525 16.8378 84.179Z" fill="#FF671B"/>
<path d="M15.4186 78.6532C15.4186 79.3071 14.909 79.8384 14.2778 79.8384C13.6506 79.8384 13.1409 79.3071 13.1409 78.6532C13.1409 77.9951 13.6506 77.4638 14.2778 77.4638C14.909 77.4638 15.4186 77.9951 15.4186 78.6532Z" fill="#FF671B"/>
<path d="M14.5758 72.9107C14.5758 73.5687 14.0661 74.1001 13.4389 74.1001C12.8077 74.1001 12.2981 73.5687 12.2981 72.9107C12.2981 72.2568 12.8077 71.7254 13.4389 71.7254C14.0661 71.7254 14.5758 72.2568 14.5758 72.9107Z" fill="#FF671B"/>
<path d="M14.3445 67.0579C14.3445 67.7119 13.8348 68.2473 13.2076 68.2473C12.5803 68.2473 12.0707 67.7119 12.0707 67.0579C12.0707 66.404 12.5803 65.8726 13.2076 65.8726C13.8348 65.8726 14.3445 66.404 14.3445 67.0579Z" fill="#FF671B"/>
<path d="M14.7365 61.2174C14.7365 61.8713 14.2269 62.4027 13.5996 62.4027C12.9724 62.4027 12.4588 61.8713 12.4588 61.2174C12.4588 60.5634 12.9724 60.0321 13.5996 60.0321C14.2269 60.0321 14.7365 60.5634 14.7365 61.2174Z" fill="#FF671B"/>
<path d="M15.7283 55.5199C15.7283 56.1779 15.2187 56.7092 14.5914 56.7092C13.9642 56.7092 13.4506 56.1779 13.4506 55.5199C13.4506 54.8659 13.9642 54.3346 14.5914 54.3346C15.2187 54.3346 15.7283 54.8659 15.7283 55.5199Z" fill="#FF671B"/>
<path d="M17.2965 50.0431C17.2965 50.697 16.7868 51.2284 16.1557 51.2284C15.5284 51.2284 15.0188 50.697 15.0188 50.0431C15.0188 49.3891 15.5284 48.8537 16.1557 48.8537C16.7868 48.8537 17.2965 49.3891 17.2965 50.0431Z" fill="#FF671B"/>
<path d="M19.4017 44.8156C19.4017 45.4696 18.8921 46.0009 18.2648 46.0009C17.6336 46.0009 17.124 45.4696 17.124 44.8156C17.124 44.1617 17.6336 43.6304 18.2648 43.6304C18.8921 43.6304 19.4017 44.1617 19.4017 44.8156Z" fill="#FF671B"/>
<path d="M22.0166 39.8702C22.0166 40.5241 21.5069 41.0595 20.8797 41.0595C20.2524 41.0595 19.7428 40.5241 19.7428 39.8702C19.7428 39.2162 20.2524 38.6849 20.8797 38.6849C21.5069 38.6849 22.0166 39.2162 22.0166 39.8702Z" fill="#FF671B"/>
<path d="M25.1097 35.2435C25.1097 35.8975 24.6 36.4288 23.9689 36.4288C23.3416 36.4288 22.832 35.8975 22.832 35.2435C22.832 34.5896 23.3416 34.0582 23.9689 34.0582C24.6 34.0582 25.1097 34.5896 25.1097 35.2435Z" fill="#FF671B"/>
<path d="M28.6419 30.9643C28.6419 31.6223 28.1323 32.1536 27.505 32.1536C26.8778 32.1536 26.3642 31.6223 26.3642 30.9643C26.3642 30.3103 26.8778 29.779 27.505 29.779C28.1323 29.779 28.6419 30.3103 28.6419 30.9643Z" fill="#FF671B"/>
<path d="M32.5857 27.0692C32.5857 27.7232 32.0761 28.2545 31.4488 28.2545C30.8216 28.2545 30.312 27.7232 30.312 27.0692C30.312 26.4153 30.8216 25.8839 31.4488 25.8839C32.0761 25.8839 32.5857 26.4153 32.5857 27.0692Z" fill="#FF671B"/>
<path d="M36.9099 23.587C36.9099 24.2409 36.4002 24.7763 35.773 24.7763C35.1418 24.7763 34.6321 24.2409 34.6321 23.587C34.6321 22.933 35.1418 22.4017 35.773 22.4017C36.4002 22.4017 36.9099 22.933 36.9099 23.587Z" fill="#FF671B"/>
<path d="M41.575 20.5502C41.575 21.2082 41.0654 21.7396 40.4381 21.7396C39.8109 21.7396 39.2973 21.2082 39.2973 20.5502C39.2973 19.8963 39.8109 19.3649 40.4381 19.3649C41.0654 19.3649 41.575 19.8963 41.575 20.5502Z" fill="#FF671B"/>
<path d="M46.5538 17.9957C46.5538 18.6538 46.0481 19.1851 45.417 19.1851C44.7897 19.1851 44.2801 18.6538 44.2801 17.9957C44.2801 17.3418 44.7897 16.8105 45.417 16.8105C46.0481 16.8105 46.5538 17.3418 46.5538 17.9957Z" fill="#FF671B"/>
<path d="M51.8149 15.9522C51.8149 16.6102 51.3053 17.1415 50.678 17.1415C50.0469 17.1415 49.5372 16.6102 49.5372 15.9522C49.5372 15.2982 50.0469 14.7669 50.678 14.7669C51.3053 14.7669 51.8149 15.2982 51.8149 15.9522Z" fill="#FF671B"/>
<path d="M57.3191 14.4563C57.3191 15.1102 56.8094 15.6415 56.1822 15.6415C55.5549 15.6415 55.0414 15.1102 55.0414 14.4563C55.0414 13.7982 55.5549 13.2669 56.1822 13.2669C56.8094 13.2669 57.3191 13.7982 57.3191 14.4563Z" fill="#FF671B"/>
<path d="M63.0388 13.5326C63.0388 14.1906 62.5292 14.7219 61.9019 14.7219C61.2747 14.7219 60.765 14.1906 60.765 13.5326C60.765 12.8786 61.2747 12.3473 61.9019 12.3473C62.5292 12.3473 63.0388 12.8786 63.0388 13.5326Z" fill="#FF671B"/>
<path d="M68.8958 13.2219C68.8958 13.8759 68.3862 14.4072 67.7589 14.4072C67.1277 14.4072 66.6181 13.8759 66.6181 13.2219C66.6181 12.568 67.1277 12.0367 67.7589 12.0367C68.3862 12.0367 68.8958 12.568 68.8958 13.2219Z" fill="#FF671B"/>
<path d="M74.6822 13.5203C74.6822 14.1742 74.1726 14.7056 73.5453 14.7056C72.9181 14.7056 72.4084 14.1742 72.4084 13.5203C72.4084 12.8623 72.9181 12.3309 73.5453 12.3309C74.1726 12.3309 74.6822 12.8623 74.6822 13.5203Z" fill="#FF671B"/>
<path d="M80.2843 14.399C80.2843 15.0571 79.7747 15.5884 79.1474 15.5884C78.5163 15.5884 78.0066 15.0571 78.0066 14.399C78.0066 13.7451 78.5163 13.2138 79.1474 13.2138C79.7747 13.2138 80.2843 13.7451 80.2843 14.399Z" fill="#FF671B"/>
<path d="M85.6748 15.8336C85.6748 16.4917 85.1651 17.023 84.5379 17.023C83.9106 17.023 83.401 16.4917 83.401 15.8336C83.401 15.1797 83.9106 14.6483 84.5379 14.6483C85.1651 14.6483 85.6748 15.1797 85.6748 15.8336Z" fill="#FF671B"/>
<path d="M90.83 17.7914C90.83 18.4453 90.3204 18.9766 89.6892 18.9766C89.0619 18.9766 88.5523 18.4453 88.5523 17.7914C88.5523 17.1374 89.0619 16.6061 89.6892 16.6061C90.3204 16.6061 90.83 17.1374 90.83 17.7914Z" fill="#FF671B"/>
<path d="M95.7108 20.2396C95.7108 20.8976 95.2012 21.4289 94.5739 21.4289C93.9467 21.4289 93.437 20.8976 93.437 20.2396C93.437 19.5856 93.9467 19.0543 94.5739 19.0543C95.2012 19.0543 95.7108 19.5856 95.7108 20.2396Z" fill="#FF671B"/>
<path d="M100.329 23.1496C100.329 23.8077 99.8154 24.339 99.1881 24.339C98.5609 24.339 98.0513 23.8077 98.0513 23.1496C98.0513 22.4957 98.5609 21.9644 99.1881 21.9644C99.8154 21.9644 100.329 22.4957 100.329 23.1496Z" fill="#FF671B"/>
<path d="M104.767 26.4888C104.767 27.1428 104.257 27.6741 103.63 27.6741C103.003 27.6741 102.489 27.1428 102.489 26.4888C102.489 25.8308 103.003 25.2995 103.63 25.2995C104.257 25.2995 104.767 25.8308 104.767 26.4888Z" fill="#FF671B"/>
<path d="M126.34 72.8698C126.34 73.4502 125.889 73.9243 125.329 73.9243C124.768 73.9243 124.317 73.4502 124.317 72.8698C124.317 72.2854 124.768 71.8154 125.329 71.8154C125.889 71.8154 126.34 72.2854 126.34 72.8698Z" fill="#FF671B"/>
<path d="M125.889 77.2758C125.889 77.8603 125.435 78.3344 124.878 78.3344C124.317 78.3344 123.867 77.8603 123.867 77.2758C123.867 76.6954 124.317 76.2213 124.878 76.2213C125.435 76.2213 125.889 76.6954 125.889 77.2758Z" fill="#FF671B"/>
<path d="M124.713 82.9079C124.713 83.4923 124.259 83.9624 123.698 83.9624C123.141 83.9624 122.687 83.4923 122.687 82.9079C122.687 82.3275 123.141 81.8534 123.698 81.8534C124.259 81.8534 124.713 82.3275 124.713 82.9079Z" fill="#FF671B"/>
<path d="M122.067 91.0781C122.067 91.6585 121.612 92.1326 121.052 92.1326C120.495 92.1326 120.04 91.6585 120.04 91.0781C120.04 90.4936 120.495 90.0236 121.052 90.0236C121.612 90.0236 122.067 90.4936 122.067 91.0781Z" fill="#FF671B"/>
<path d="M123.565 87.0318C123.565 87.6122 123.11 88.0863 122.553 88.0863C121.993 88.0863 121.542 87.6122 121.542 87.0318C121.542 86.4474 121.993 85.9773 122.553 85.9773C123.11 85.9773 123.565 86.4474 123.565 87.0318Z" fill="#FF671B"/>
<path d="M119.401 96.5835C119.401 97.168 118.947 97.638 118.39 97.638C117.829 97.638 117.378 97.168 117.378 96.5835C117.378 96.0031 117.829 95.529 118.39 95.529C118.947 95.529 119.401 96.0031 119.401 96.5835Z" fill="#FF671B"/>
<path d="M116.183 101.746C116.183 102.33 115.732 102.8 115.171 102.8C114.615 102.8 114.16 102.33 114.16 101.746C114.16 101.165 114.615 100.691 115.171 100.691C115.732 100.691 116.183 101.165 116.183 101.746Z" fill="#FF671B"/>
<path d="M112.451 106.528C112.451 107.112 111.996 107.582 111.435 107.582C110.879 107.582 110.424 107.112 110.424 106.528C110.424 105.947 110.879 105.473 111.435 105.473C111.996 105.473 112.451 105.947 112.451 106.528Z" fill="#FF671B"/>
<path d="M108.236 110.889C108.236 111.473 107.781 111.943 107.225 111.943C106.664 111.943 106.209 111.473 106.209 110.889C106.209 110.304 106.664 109.834 107.225 109.834C107.781 109.834 108.236 110.304 108.236 110.889Z" fill="#FF671B"/>
<path d="M103.583 114.792C103.583 115.372 103.128 115.846 102.567 115.846C102.011 115.846 101.556 115.372 101.556 114.792C101.556 114.207 102.011 113.737 102.567 113.737C103.128 113.737 103.583 114.207 103.583 114.792Z" fill="#FF671B"/>
<path d="M98.5256 118.196C98.5256 118.777 98.0748 119.251 97.5142 119.251C96.9536 119.251 96.5027 118.777 96.5027 118.196C96.5027 117.612 96.9536 117.142 97.5142 117.142C98.0748 117.142 98.5256 117.612 98.5256 118.196Z" fill="#FF671B"/>
<path d="M93.1077 121.061C93.1077 121.646 92.653 122.116 92.0963 122.116C91.5357 122.116 91.0848 121.646 91.0848 121.061C91.0848 120.481 91.5357 120.007 92.0963 120.007C92.653 120.007 93.1077 120.481 93.1077 121.061Z" fill="#FF671B"/>
<path d="M87.4429 123.35C87.4429 123.931 86.992 124.405 86.4314 124.405C85.8708 124.405 85.42 123.931 85.42 123.35C85.42 122.766 85.8708 122.296 86.4314 122.296C86.992 122.296 87.4429 122.766 87.4429 123.35Z" fill="#FF671B"/>
<path d="M81.4879 125.038C81.4879 125.623 81.0331 126.093 80.4764 126.093C79.9198 126.093 79.465 125.623 79.465 125.038C79.465 124.458 79.9198 123.984 80.4764 123.984C81.0331 123.984 81.4879 124.458 81.4879 125.038Z" fill="#FF671B"/>
<path d="M75.529 126.04C75.529 126.624 75.0742 127.094 74.5136 127.094C73.9569 127.094 73.5061 126.624 73.5061 126.04C73.5061 125.459 73.9569 124.985 74.5136 124.985C75.0742 124.985 75.529 125.459 75.529 126.04Z" fill="#FF671B"/>
<path d="M69.4407 126.436C69.4407 127.016 68.9899 127.491 68.4293 127.491C67.8726 127.491 67.4178 127.016 67.4178 126.436C67.4178 125.852 67.8726 125.382 68.4293 125.382C68.9899 125.382 69.4407 125.852 69.4407 126.436Z" fill="#FF671B"/>
<path d="M63.2153 126.199C63.2153 126.779 62.7605 127.254 62.2038 127.254C61.6432 127.254 61.1884 126.779 61.1884 126.199C61.1884 125.615 61.6432 125.145 62.2038 125.145C62.7605 125.145 63.2153 125.615 63.2153 126.199Z" fill="#FF671B"/>
<path d="M56.9349 125.292C56.9349 125.872 56.484 126.346 55.9234 126.346C55.3628 126.346 54.912 125.872 54.912 125.292C54.912 124.707 55.3628 124.237 55.9234 124.237C56.484 124.237 56.9349 124.707 56.9349 125.292Z" fill="#FF671B"/>
<path d="M50.8897 123.734C50.8897 124.319 50.4389 124.789 49.8783 124.789C49.3177 124.789 48.8669 124.319 48.8669 123.734C48.8669 123.15 49.3177 122.68 49.8783 122.68C50.4389 122.68 50.8897 123.15 50.8897 123.734Z" fill="#FF671B"/>
<path d="M45.1151 121.564C45.1151 122.145 44.6643 122.619 44.1037 122.619C43.5431 122.619 43.0922 122.145 43.0922 121.564C43.0922 120.98 43.5431 120.51 44.1037 120.51C44.6643 120.51 45.1151 120.98 45.1151 121.564Z" fill="#FF671B"/>
<path d="M39.6502 118.818C39.6502 119.398 39.1954 119.872 38.6348 119.872C38.0781 119.872 37.6234 119.398 37.6234 118.818C37.6234 118.233 38.0781 117.763 38.6348 117.763C39.1954 117.763 39.6502 118.233 39.6502 118.818Z" fill="#FF671B"/>
<path d="M34.5263 115.527C34.5263 116.112 34.0715 116.582 33.5149 116.582C32.9543 116.582 32.5034 116.112 32.5034 115.527C32.5034 114.947 32.9543 114.473 33.5149 114.473C34.0715 114.473 34.5263 114.947 34.5263 115.527Z" fill="#FF671B"/>
<path d="M29.7866 111.739C29.7866 112.323 29.3319 112.797 28.7752 112.797C28.2146 112.797 27.7637 112.323 27.7637 111.739C27.7637 111.158 28.2146 110.684 28.7752 110.684C29.3319 110.684 29.7866 111.158 29.7866 111.739Z" fill="#FF671B"/>
<path d="M25.4664 107.488C25.4664 108.068 25.0117 108.543 24.4511 108.543C23.8944 108.543 23.4396 108.068 23.4396 107.488C23.4396 106.904 23.8944 106.434 24.4511 106.434C25.0117 106.434 25.4664 106.904 25.4664 107.488Z" fill="#FF671B"/>
<path d="M21.601 102.804C21.601 103.389 21.1462 103.859 20.5895 103.859C20.0289 103.859 19.5781 103.389 19.5781 102.804C19.5781 102.22 20.0289 101.75 20.5895 101.75C21.1462 101.75 21.601 102.22 21.601 102.804Z" fill="#FF671B"/>
<path d="M18.2295 97.732C18.2295 98.3124 17.7748 98.7865 17.2181 98.7865C16.6575 98.7865 16.2066 98.3124 16.2066 97.732C16.2066 97.1475 16.6575 96.6775 17.2181 96.6775C17.7748 96.6775 18.2295 97.1475 18.2295 97.732Z" fill="#FF671B"/>
<path d="M15.3873 92.3042C15.3873 92.8887 14.9364 93.3587 14.3758 93.3587C13.8152 93.3587 13.3644 92.8887 13.3644 92.3042C13.3644 91.7198 13.8152 91.2498 14.3758 91.2498C14.9364 91.2498 15.3873 91.7198 15.3873 92.3042Z" fill="#FF671B"/>
<path d="M13.1135 86.5618C13.1135 87.1422 12.6627 87.6163 12.1021 87.6163C11.5454 87.6163 11.0906 87.1422 11.0906 86.5618C11.0906 85.9773 11.5454 85.5073 12.1021 85.5073C12.6627 85.5073 13.1135 85.9773 13.1135 86.5618Z" fill="#FF671B"/>
<path d="M11.4434 80.5373C11.4434 81.1218 10.9926 81.5918 10.432 81.5918C9.87529 81.5918 9.42053 81.1218 9.42053 80.5373C9.42053 79.957 9.87529 79.4828 10.432 79.4828C10.9926 79.4828 11.4434 79.957 11.4434 80.5373Z" fill="#FF671B"/>
<path d="M10.4163 74.2717C10.4163 74.8562 9.96545 75.3262 9.40485 75.3262C8.84816 75.3262 8.3934 74.8562 8.3934 74.2717C8.3934 73.6914 8.84816 73.2173 9.40485 73.2173C9.96545 73.2173 10.4163 73.6914 10.4163 74.2717Z" fill="#FF671B"/>
<path d="M10.0713 67.8467C10.0713 68.4271 9.61655 68.9012 9.05986 68.9012C8.49925 68.9012 8.04449 68.4271 8.04449 67.8467C8.04449 67.2623 8.49925 66.7922 9.05986 66.7922C9.61655 66.7922 10.0713 67.2623 10.0713 67.8467Z" fill="#FF671B"/>
<path d="M10.4202 61.4258C10.4202 62.0062 9.96939 62.4803 9.40878 62.4803C8.8521 62.4803 8.39734 62.0062 8.39734 61.4258C8.39734 60.8414 8.8521 60.3713 9.40878 60.3713C9.96939 60.3713 10.4202 60.8414 10.4202 61.4258Z" fill="#FF671B"/>
<path d="M11.4434 55.152C11.4434 55.7324 10.9926 56.2065 10.432 56.2065C9.87529 56.2065 9.42053 55.7324 9.42053 55.152C9.42053 54.5676 9.87529 54.0975 10.432 54.0975C10.9926 54.0975 11.4434 54.5676 11.4434 55.152Z" fill="#FF671B"/>
<path d="M13.1135 49.1153C13.1135 49.6998 12.6627 50.1739 12.1021 50.1739C11.5454 50.1739 11.0906 49.6998 11.0906 49.1153C11.0906 48.5349 11.5454 48.0608 12.1021 48.0608C12.6627 48.0608 13.1135 48.5349 13.1135 49.1153Z" fill="#FF671B"/>
<path d="M15.3912 43.3647C15.3912 43.9451 14.9404 44.4192 14.3798 44.4192C13.8192 44.4192 13.3683 43.9451 13.3683 43.3647C13.3683 42.7802 13.8192 42.3102 14.3798 42.3102C14.9404 42.3102 15.3912 42.7802 15.3912 43.3647Z" fill="#FF671B"/>
<path d="M18.2374 37.9247C18.2374 38.5092 17.7865 38.9792 17.2259 38.9792C16.6692 38.9792 16.2145 38.5092 16.2145 37.9247C16.2145 37.3443 16.6692 36.8702 17.2259 36.8702C17.7865 36.8702 18.2374 37.3443 18.2374 37.9247Z" fill="#FF671B"/>
<path d="M21.6206 32.8403C21.6206 33.4206 21.1658 33.8948 20.6092 33.8948C20.0486 33.8948 19.5977 33.4206 19.5977 32.8403C19.5977 32.2558 20.0486 31.7858 20.6092 31.7858C21.1658 31.7858 21.6206 32.2558 21.6206 32.8403Z" fill="#FF671B"/>
<path d="M25.4978 28.1441C25.4978 28.7286 25.043 29.1986 24.4863 29.1986C23.9257 29.1986 23.471 28.7286 23.471 28.1441C23.471 27.5597 23.9257 27.0896 24.4863 27.0896C25.043 27.0896 25.4978 27.5597 25.4978 28.1441Z" fill="#FF671B"/>
<path d="M29.8337 23.8771C29.8337 24.4575 29.3789 24.9316 28.8183 24.9316C28.2616 24.9316 27.8069 24.4575 27.8069 23.8771C27.8069 23.2927 28.2616 22.8227 28.8183 22.8227C29.3789 22.8227 29.8337 23.2927 29.8337 23.8771Z" fill="#FF671B"/>
<path d="M34.589 20.072C34.589 20.6565 34.1343 21.1265 33.5776 21.1265C33.017 21.1265 32.5661 20.6565 32.5661 20.072C32.5661 19.4875 33.017 19.0175 33.5776 19.0175C34.1343 19.0175 34.589 19.4875 34.589 20.072Z" fill="#FF671B"/>
<path d="M39.7325 16.7696C39.7325 17.354 39.2777 17.8241 38.7171 17.8241C38.1604 17.8241 37.7057 17.354 37.7057 16.7696C37.7057 16.1851 38.1604 15.7151 38.7171 15.7151C39.2777 15.7151 39.7325 16.1851 39.7325 16.7696Z" fill="#FF671B"/>
<path d="M45.221 14.0067C45.221 14.587 44.7662 15.0611 44.2056 15.0611C43.6489 15.0611 43.1942 14.587 43.1942 14.0067C43.1942 13.4222 43.6489 12.9522 44.2056 12.9522C44.7662 12.9522 45.221 13.4222 45.221 14.0067Z" fill="#FF671B"/>
<path d="M51.0191 11.816C51.0191 12.4004 50.5644 12.8745 50.0077 12.8745C49.4471 12.8745 48.9923 12.4004 48.9923 11.816C48.9923 11.2356 49.4471 10.7656 50.0077 10.7656C50.5644 10.7656 51.0191 11.2356 51.0191 11.816Z" fill="#FF671B"/>
<path d="M57.0878 10.2424C57.0878 10.8269 56.6369 11.2969 56.0763 11.2969C55.5196 11.2969 55.0649 10.8269 55.0649 10.2424C55.0649 9.65795 55.5196 9.18793 56.0763 9.18793C56.6369 9.18793 57.0878 9.65795 57.0878 10.2424Z" fill="#FF671B"/>
<path d="M63.3956 9.31871C63.3956 9.89908 62.9408 10.3732 62.3841 10.3732C61.8235 10.3732 61.3727 9.89908 61.3727 9.31871C61.3727 8.73424 61.8235 8.26422 62.3841 8.26422C62.9408 8.26422 63.3956 8.73424 63.3956 9.31871Z" fill="#FF671B"/>
<path d="M69.8406 9.07756C69.8406 9.66202 69.3858 10.132 68.8291 10.132C68.2685 10.132 67.8177 9.66202 67.8177 9.07756C67.8177 8.49718 68.2685 8.02307 68.8291 8.02307C69.3858 8.02307 69.8406 8.49718 69.8406 9.07756Z" fill="#FF671B"/>
<path d="M76.1602 9.51896C76.1602 10.1034 75.7093 10.5734 75.1487 10.5734C74.592 10.5734 74.1373 10.1034 74.1373 9.51896C74.1373 8.9345 74.592 8.46448 75.1487 8.46448C75.7093 8.46448 76.1602 8.9345 76.1602 9.51896Z" fill="#FF671B"/>
<path d="M82.2719 10.6062C82.2719 11.1865 81.8211 11.6606 81.2605 11.6606C80.7038 11.6606 80.2491 11.1865 80.2491 10.6062C80.2491 10.0217 80.7038 9.55167 81.2605 9.55167C81.8211 9.55167 82.2719 10.0217 82.2719 10.6062Z" fill="#FF671B"/>
<path d="M88.1446 12.3064C88.1446 12.8909 87.6938 13.3609 87.1331 13.3609C86.5765 13.3609 86.1217 12.8909 86.1217 12.3064C86.1217 11.726 86.5765 11.2519 87.1331 11.2519C87.6938 11.2519 88.1446 11.726 88.1446 12.3064Z" fill="#FF671B"/>
<path d="M93.7428 14.587C93.7428 15.1674 93.2881 15.6415 92.7274 15.6415C92.1708 15.6415 91.716 15.1674 91.716 14.587C91.716 14.0026 92.1708 13.5326 92.7274 13.5326C93.2881 13.5326 93.7428 14.0026 93.7428 14.587Z" fill="#FF671B"/>
<path d="M99.0274 17.4072C99.0274 17.9916 98.5766 18.4617 98.016 18.4617C97.4593 18.4617 97.0045 17.9916 97.0045 17.4072C97.0045 16.8268 97.4593 16.3527 98.016 16.3527C98.5766 16.3527 99.0274 16.8268 99.0274 17.4072Z" fill="#FF671B"/>
<path d="M104.014 20.7423C104.014 21.3227 103.563 21.7968 103.003 21.7968C102.446 21.7968 101.991 21.3227 101.991 20.7423C101.991 20.1578 102.446 19.6837 103.003 19.6837C103.563 19.6837 104.014 20.1578 104.014 20.7423Z" fill="#FF671B"/>
<path d="M108.828 24.5393C108.828 25.1237 108.373 25.5937 107.817 25.5937C107.256 25.5937 106.805 25.1237 106.805 24.5393C106.805 23.9548 107.256 23.4848 107.817 23.4848C108.373 23.4848 108.828 23.9548 108.828 24.5393Z" fill="#FF671B"/>
<path d="M131.158 69.126C131.158 69.6369 130.762 70.0497 130.272 70.0497C129.782 70.0497 129.386 69.6369 129.386 69.126C129.386 68.6192 129.782 68.2064 130.272 68.2064C130.762 68.2064 131.158 68.6192 131.158 69.126Z" fill="#FF671B"/>
<path d="M131.158 72.8249C131.158 73.3317 130.762 73.7445 130.272 73.7445C129.782 73.7445 129.386 73.3317 129.386 72.8249C129.386 72.314 129.782 71.9012 130.272 71.9012C130.762 71.9012 131.158 72.314 131.158 72.8249Z" fill="#FF671B"/>
<path d="M130.7 77.6886C130.7 78.1995 130.304 78.6123 129.814 78.6123C129.328 78.6123 128.932 78.1995 128.932 77.6886C128.932 77.1777 129.328 76.7649 129.814 76.7649C130.304 76.7649 130.7 77.1777 130.7 77.6886Z" fill="#FF671B"/>
<path d="M129.48 82.9651C129.48 83.476 129.085 83.8888 128.595 83.8888C128.108 83.8888 127.712 83.476 127.712 82.9651C127.712 82.4542 128.108 82.0414 128.595 82.0414C129.085 82.0414 129.48 82.4542 129.48 82.9651Z" fill="#FF671B"/>
<path d="M127.544 89.4923C127.544 89.9991 127.144 90.4119 126.658 90.4119C126.168 90.4119 125.772 89.9991 125.772 89.4923C125.772 88.9814 126.168 88.5686 126.658 88.5686C127.144 88.5686 127.544 88.9814 127.544 89.4923Z" fill="#FF671B"/>
<path d="M124.929 95.6966C124.929 96.2034 124.533 96.6203 124.043 96.6203C123.553 96.6203 123.157 96.2034 123.157 95.6966C123.157 95.1857 123.553 94.7729 124.043 94.7729C124.533 94.7729 124.929 95.1857 124.929 95.6966Z" fill="#FF671B"/>
<path d="M121.683 101.541C121.683 102.048 121.287 102.461 120.797 102.461C120.307 102.461 119.911 102.048 119.911 101.541C119.911 101.03 120.307 100.618 120.797 100.618C121.287 100.618 121.683 101.03 121.683 101.541Z" fill="#FF671B"/>
<path d="M117.845 106.977C117.845 107.488 117.449 107.901 116.959 107.901C116.473 107.901 116.073 107.488 116.073 106.977C116.073 106.466 116.473 106.053 116.959 106.053C117.449 106.053 117.845 106.466 117.845 106.977Z" fill="#FF671B"/>
<path d="M113.462 111.968C113.462 112.478 113.062 112.891 112.576 112.891C112.086 112.891 111.69 112.478 111.69 111.968C111.69 111.457 112.086 111.044 112.576 111.044C113.062 111.044 113.462 111.457 113.462 111.968Z" fill="#FF671B"/>
<path d="M108.573 116.467C108.573 116.974 108.177 117.391 107.687 117.391C107.197 117.391 106.801 116.974 106.801 116.467C106.801 115.957 107.197 115.544 107.687 115.544C108.177 115.544 108.573 115.957 108.573 116.467Z" fill="#FF671B"/>
<path d="M103.226 120.432C103.226 120.943 102.826 121.356 102.34 121.356C101.85 121.356 101.454 120.943 101.454 120.432C101.454 119.921 101.85 119.508 102.34 119.508C102.826 119.508 103.226 119.921 103.226 120.432Z" fill="#FF671B"/>
<path d="M97.4593 123.82C97.4593 124.331 97.0633 124.744 96.5733 124.744C96.0832 124.744 95.6873 124.331 95.6873 123.82C95.6873 123.309 96.0832 122.897 96.5733 122.897C97.0633 122.897 97.4593 123.309 97.4593 123.82Z" fill="#FF671B"/>
<path d="M91.3553 126.583C91.3553 127.094 90.9594 127.507 90.4733 127.507C89.9832 127.507 89.5873 127.094 89.5873 126.583C89.5873 126.072 89.9832 125.66 90.4733 125.66C90.9594 125.66 91.3553 126.072 91.3553 126.583Z" fill="#FF671B"/>
<path d="M84.9299 128.688C84.9299 129.199 84.534 129.612 84.0439 129.612C83.5578 129.612 83.1619 129.199 83.1619 128.688C83.1619 128.181 83.5578 127.768 84.0439 127.768C84.534 127.768 84.9299 128.181 84.9299 128.688Z" fill="#FF671B"/>
<path d="M78.5124 130.037C78.5124 130.548 78.1164 130.961 77.6303 130.961C77.1402 130.961 76.7443 130.548 76.7443 130.037C76.7443 129.526 77.1402 129.113 77.6303 129.113C78.1164 129.113 78.5124 129.526 78.5124 130.037Z" fill="#FF671B"/>
<path d="M71.9105 130.719C71.9105 131.226 71.5146 131.643 71.0245 131.643C70.5345 131.643 70.1385 131.226 70.1385 130.719C70.1385 130.209 70.5345 129.796 71.0245 129.796C71.5146 129.796 71.9105 130.209 71.9105 130.719Z" fill="#FF671B"/>
<path d="M65.0892 130.703C65.0892 131.214 64.6932 131.627 64.2071 131.627C63.7171 131.627 63.3211 131.214 63.3211 130.703C63.3211 130.192 63.7171 129.779 64.2071 129.779C64.6932 129.779 65.0892 130.192 65.0892 130.703Z" fill="#FF671B"/>
<path d="M58.1698 129.939C58.1698 130.45 57.7738 130.862 57.2838 130.862C56.7937 130.862 56.3978 130.45 56.3978 129.939C56.3978 129.428 56.7937 129.015 57.2838 129.015C57.7738 129.015 58.1698 129.428 58.1698 129.939Z" fill="#FF671B"/>
<path d="M51.4935 128.443C51.4935 128.954 51.0975 129.367 50.6075 129.367C50.1214 129.367 49.7254 128.954 49.7254 128.443C49.7254 127.932 50.1214 127.519 50.6075 127.519C51.0975 127.519 51.4935 127.932 51.4935 128.443Z" fill="#FF671B"/>
<path d="M45.1073 126.256C45.1073 126.767 44.7113 127.18 44.2213 127.18C43.7351 127.18 43.3353 126.767 43.3353 126.256C43.3353 125.749 43.7351 125.333 44.2213 125.333C44.7113 125.333 45.1073 125.749 45.1073 126.256Z" fill="#FF671B"/>
<path d="M39.0504 123.424C39.0504 123.935 38.6544 124.348 38.1644 124.348C37.6743 124.348 37.2784 123.935 37.2784 123.424C37.2784 122.913 37.6743 122.5 38.1644 122.5C38.6544 122.5 39.0504 122.913 39.0504 123.424Z" fill="#FF671B"/>
<path d="M33.3659 119.982C33.3659 120.493 32.966 120.906 32.4799 120.906C31.9938 120.906 31.5939 120.493 31.5939 119.982C31.5939 119.476 31.9938 119.063 32.4799 119.063C32.966 119.063 33.3659 119.476 33.3659 119.982Z" fill="#FF671B"/>
<path d="M28.0931 115.977C28.0931 116.488 27.6971 116.901 27.2071 116.901C26.7209 116.901 26.3211 116.488 26.3211 115.977C26.3211 115.47 26.7209 115.057 27.2071 115.057C27.6971 115.057 28.0931 115.47 28.0931 115.977Z" fill="#FF671B"/>
<path d="M23.275 111.453C23.275 111.959 22.879 112.372 22.389 112.372C21.9028 112.372 21.5069 111.959 21.5069 111.453C21.5069 110.942 21.9028 110.529 22.389 110.529C22.879 110.529 23.275 110.942 23.275 111.453Z" fill="#FF671B"/>
<path d="M18.9548 106.442C18.9548 106.953 18.5588 107.365 18.0688 107.365C17.5827 107.365 17.1828 106.953 17.1828 106.442C17.1828 105.931 17.5827 105.518 18.0688 105.518C18.5588 105.518 18.9548 105.931 18.9548 106.442Z" fill="#FF671B"/>
<path d="M15.1717 100.994C15.1717 101.504 14.7757 101.917 14.2857 101.917C13.7995 101.917 13.4036 101.504 13.4036 100.994C13.4036 100.483 13.7995 100.07 14.2857 100.07C14.7757 100.07 15.1717 100.483 15.1717 100.994Z" fill="#FF671B"/>
<path d="M11.9687 95.1448C11.9687 95.6557 11.5728 96.0685 11.0867 96.0685C10.5966 96.0685 10.2007 95.6557 10.2007 95.1448C10.2007 94.638 10.5966 94.2252 11.0867 94.2252C11.5728 94.2252 11.9687 94.638 11.9687 95.1448Z" fill="#FF671B"/>
<path d="M9.38917 88.9446C9.38917 89.4514 8.99322 89.8642 8.50318 89.8642C8.01706 89.8642 7.61719 89.4514 7.61719 88.9446C7.61719 88.4337 8.01706 88.0209 8.50318 88.0209C8.99322 88.0209 9.38917 88.4337 9.38917 88.9446Z" fill="#FF671B"/>
<path d="M7.47215 82.4256C7.47215 82.9324 7.0762 83.3493 6.58616 83.3493C6.09612 83.3493 5.70016 82.9324 5.70016 82.4256C5.70016 81.9147 6.09612 81.5019 6.58616 81.5019C7.0762 81.5019 7.47215 81.9147 7.47215 82.4256Z" fill="#FF671B"/>
<path d="M6.26076 75.6328C6.26076 76.1437 5.86088 76.5565 5.37476 76.5565C4.88472 76.5565 4.48877 76.1437 4.48877 75.6328C4.48877 75.126 4.88472 74.7091 5.37476 74.7091C5.86088 74.7091 6.26076 75.126 6.26076 75.6328Z" fill="#FF671B"/>
<path d="M5.79423 68.6315C5.79423 69.1424 5.39828 69.5552 4.90824 69.5552C4.4182 69.5552 4.02225 69.1424 4.02225 68.6315C4.02225 68.1247 4.4182 67.7119 4.90824 67.7119C5.39828 67.7119 5.79423 68.1247 5.79423 68.6315Z" fill="#FF671B"/>
<path d="M6.10396 61.6302C6.10396 62.1411 5.70408 62.5539 5.21796 62.5539C4.72792 62.5539 4.33197 62.1411 4.33197 61.6302C4.33197 61.1193 4.72792 60.7065 5.21796 60.7065C5.70408 60.7065 6.10396 61.1193 6.10396 61.6302Z" fill="#FF671B"/>
<path d="M7.15851 54.7801C7.15851 55.2869 6.76256 55.7038 6.27251 55.7038C5.78639 55.7038 5.39044 55.2869 5.39044 54.7801C5.39044 54.2692 5.78639 53.8564 6.27251 53.8564C6.76256 53.8564 7.15851 54.2692 7.15851 54.7801Z" fill="#FF671B"/>
<path d="M8.93051 48.1916C8.93051 48.7025 8.53456 49.1153 8.04844 49.1153C7.5584 49.1153 7.16245 48.7025 7.16245 48.1916C7.16245 47.6848 7.5584 47.272 8.04844 47.272C8.53456 47.272 8.93051 47.6848 8.93051 48.1916Z" fill="#FF671B"/>
<path d="M11.3807 41.9137C11.3807 42.4206 10.9847 42.8334 10.4947 42.8334C10.0047 42.8334 9.6087 42.4206 9.6087 41.9137C9.6087 41.4029 10.0047 40.9901 10.4947 40.9901C10.9847 40.9901 11.3807 41.4029 11.3807 41.9137Z" fill="#FF671B"/>
<path d="M14.4582 35.9792C14.4582 36.4901 14.0622 36.9029 13.5722 36.9029C13.086 36.9029 12.6901 36.4901 12.6901 35.9792C12.6901 35.4683 13.086 35.0555 13.5722 35.0555C14.0622 35.0555 14.4582 35.4683 14.4582 35.9792Z" fill="#FF671B"/>
<path d="M18.1315 30.437C18.1315 30.9438 17.7316 31.3566 17.2455 31.3566C16.7555 31.3566 16.3595 30.9438 16.3595 30.437C16.3595 29.9261 16.7555 29.5133 17.2455 29.5133C17.7316 29.5133 18.1315 29.9261 18.1315 30.437Z" fill="#FF671B"/>
<path d="M22.3498 25.324C22.3498 25.8308 21.9538 26.2436 21.4638 26.2436C20.9737 26.2436 20.5778 25.8308 20.5778 25.324C20.5778 24.8131 20.9737 24.4003 21.4638 24.4003C21.9538 24.4003 22.3498 24.8131 22.3498 25.324Z" fill="#FF671B"/>
<path d="M27.0777 20.681C27.0777 21.1919 26.6778 21.6047 26.1917 21.6047C25.7016 21.6047 25.3057 21.1919 25.3057 20.681C25.3057 20.1742 25.7016 19.7614 26.1917 19.7614C26.6778 19.7614 27.0777 20.1742 27.0777 20.681Z" fill="#FF671B"/>
<path d="M32.2682 16.5571C32.2682 17.068 31.8722 17.4808 31.3822 17.4808C30.8961 17.4808 30.5001 17.068 30.5001 16.5571C30.5001 16.0462 30.8961 15.6334 31.3822 15.6334C31.8722 15.6334 32.2682 16.0462 32.2682 16.5571Z" fill="#FF671B"/>
<path d="M37.886 12.989C37.886 13.4958 37.4862 13.9086 37 13.9086C36.51 13.9086 36.114 13.4958 36.114 12.989C36.114 12.4781 36.51 12.0653 37 12.0653C37.4862 12.0653 37.886 12.4781 37.886 12.989Z" fill="#FF671B"/>
<path d="M43.8841 10.0135C43.8841 10.5244 43.4842 10.9372 42.9981 10.9372C42.5081 10.9372 42.1121 10.5244 42.1121 10.0135C42.1121 9.5067 42.5081 9.08981 42.9981 9.08981C43.4842 9.08981 43.8841 9.5067 43.8841 10.0135Z" fill="#FF671B"/>
<path d="M50.2194 7.68386C50.2194 8.19067 49.8234 8.60347 49.3334 8.60347C48.8472 8.60347 48.4513 8.19067 48.4513 7.68386C48.4513 7.17296 48.8472 6.76016 49.3334 6.76016C49.8234 6.76016 50.2194 7.17296 50.2194 7.68386Z" fill="#FF671B"/>
<path d="M56.8565 6.02856C56.8565 6.53945 56.4605 6.95225 55.9705 6.95225C55.4843 6.95225 55.0845 6.53945 55.0845 6.02856C55.0845 5.52175 55.4843 5.10895 55.9705 5.10895C56.4605 5.10895 56.8565 5.52175 56.8565 6.02856Z" fill="#FF671B"/>
<path d="M63.7484 5.10076C63.7484 5.61165 63.3525 6.02446 62.8624 6.02446C62.3763 6.02446 61.9803 5.61165 61.9803 5.10076C61.9803 4.59395 62.3763 4.17706 62.8624 4.17706C63.3525 4.17706 63.7484 4.59395 63.7484 5.10076Z" fill="#FF671B"/>
<path d="M70.7815 4.93319C70.7815 5.44408 70.3855 5.85688 69.8994 5.85688C69.4094 5.85688 69.0134 5.44408 69.0134 4.93319C69.0134 4.42229 69.4094 4.00949 69.8994 4.00949C70.3855 4.00949 70.7815 4.42229 70.7815 4.93319Z" fill="#FF671B"/>
<path d="M77.6381 5.51766C77.6381 6.02447 77.2422 6.44136 76.756 6.44136C76.266 6.44136 75.8701 6.02447 75.8701 5.51766C75.8701 5.00677 76.266 4.59396 76.756 4.59396C77.2422 4.59396 77.6381 5.00677 77.6381 5.51766Z" fill="#FF671B"/>
<path d="M84.2635 6.81328C84.2635 7.32009 83.8636 7.73289 83.3775 7.73289C82.8874 7.73289 82.4915 7.32009 82.4915 6.81328C82.4915 6.30239 82.8874 5.88959 83.3775 5.88959C83.8636 5.88959 84.2635 6.30239 84.2635 6.81328Z" fill="#FF671B"/>
<path d="M90.6144 8.7792C90.6144 9.29009 90.2145 9.70289 89.7284 9.70289C89.2384 9.70289 88.8424 9.29009 88.8424 8.7792C88.8424 8.2683 89.2384 7.8555 89.7284 7.8555C90.2145 7.8555 90.6144 8.2683 90.6144 8.7792Z" fill="#FF671B"/>
<path d="M96.6517 11.3786C96.6517 11.8895 96.2558 12.3023 95.7696 12.3023C95.2796 12.3023 94.8836 11.8895 94.8836 11.3786C94.8836 10.8677 95.2796 10.4549 95.7696 10.4549C96.2558 10.4549 96.6517 10.8677 96.6517 11.3786Z" fill="#FF671B"/>
<path d="M102.344 14.5748C102.344 15.0857 101.948 15.4985 101.458 15.4985C100.972 15.4985 100.572 15.0857 100.572 14.5748C100.572 14.0639 100.972 13.6511 101.458 13.6511C101.948 13.6511 102.344 14.0639 102.344 14.5748Z" fill="#FF671B"/>
<path d="M107.703 18.3268C107.703 18.8377 107.307 19.2505 106.817 19.2505C106.327 19.2505 105.931 18.8377 105.931 18.3268C105.931 17.82 106.327 17.4072 106.817 17.4072C107.307 17.4072 107.703 17.82 107.703 18.3268Z" fill="#FF671B"/>
<path d="M112.89 22.5897C112.89 23.1006 112.494 23.5134 112.004 23.5134C111.514 23.5134 111.118 23.1006 111.118 22.5897C111.118 22.0788 111.514 21.666 112.004 21.666C112.494 21.666 112.89 22.0788 112.89 22.5897Z" fill="#FF671B"/>
<path d="M136 64.859C136 65.2964 135.663 65.6519 135.243 65.6519C134.824 65.6519 134.483 65.2964 134.483 64.859C134.483 64.4258 134.824 64.0702 135.243 64.0702C135.663 64.0702 136 64.4258 136 64.859Z" fill="#FF671B"/>
<path d="M135.827 73.1437C135.827 73.581 135.49 73.9366 135.071 73.9366C134.651 73.9366 134.31 73.581 134.31 73.1437C134.31 72.7104 134.651 72.3549 135.071 72.3549C135.49 72.3549 135.827 72.7104 135.827 73.1437Z" fill="#FF671B"/>
<path d="M135.827 68.9789C135.827 69.4121 135.49 69.7677 135.071 69.7677C134.651 69.7677 134.31 69.4121 134.31 68.9789C134.31 68.5416 134.651 68.186 135.071 68.186C135.49 68.186 135.827 68.5416 135.827 68.9789Z" fill="#FF671B"/>
<path d="M134.193 83.5577C134.193 83.9951 133.852 84.3506 133.436 84.3506C133.017 84.3506 132.676 83.9951 132.676 83.5577C132.676 83.1245 133.017 82.7689 133.436 82.7689C133.852 82.7689 134.193 83.1245 134.193 83.5577Z" fill="#FF671B"/>
<path d="M135.228 78.2771C135.228 78.7104 134.891 79.066 134.471 79.066C134.052 79.066 133.711 78.7104 133.711 78.2771C133.711 77.8398 134.052 77.4842 134.471 77.4842C134.891 77.4842 135.228 77.8398 135.228 78.2771Z" fill="#FF671B"/>
<path d="M133.024 87.9024C133.024 88.3397 132.683 88.6953 132.264 88.6953C131.844 88.6953 131.503 88.3397 131.503 87.9024C131.503 87.4692 131.844 87.1136 132.264 87.1136C132.683 87.1136 133.024 87.4692 133.024 87.9024Z" fill="#FF671B"/>
<path d="M130.457 94.8097C130.457 95.2429 130.116 95.5985 129.696 95.5985C129.277 95.5985 128.939 95.2429 128.939 94.8097C128.939 94.3724 129.277 94.0168 129.696 94.0168C130.116 94.0168 130.457 94.3724 130.457 94.8097Z" fill="#FF671B"/>
<path d="M127.179 101.333C127.179 101.766 126.842 102.122 126.423 102.122C126.003 102.122 125.662 101.766 125.662 101.333C125.662 100.895 126.003 100.54 126.423 100.54C126.842 100.54 127.179 100.895 127.179 101.333Z" fill="#FF671B"/>
<path d="M123.243 107.427C123.243 107.864 122.902 108.22 122.483 108.22C122.063 108.22 121.722 107.864 121.722 107.427C121.722 106.989 122.063 106.638 122.483 106.638C122.902 106.638 123.243 106.989 123.243 107.427Z" fill="#FF671B"/>
<path d="M118.688 113.047C118.688 113.484 118.347 113.835 117.931 113.835C117.512 113.835 117.171 113.484 117.171 113.047C117.171 112.609 117.512 112.254 117.931 112.254C118.347 112.254 118.688 112.609 118.688 113.047Z" fill="#FF671B"/>
<path d="M113.564 118.143C113.564 118.581 113.227 118.932 112.807 118.932C112.388 118.932 112.047 118.581 112.047 118.143C112.047 117.706 112.388 117.35 112.807 117.35C113.227 117.35 113.564 117.706 113.564 118.143Z" fill="#FF671B"/>
<path d="M107.923 122.668C107.923 123.105 107.585 123.461 107.166 123.461C106.747 123.461 106.405 123.105 106.405 122.668C106.405 122.234 106.747 121.879 107.166 121.879C107.585 121.879 107.923 122.234 107.923 122.668Z" fill="#FF671B"/>
<path d="M101.811 126.575C101.811 127.012 101.47 127.368 101.05 127.368C100.631 127.368 100.294 127.012 100.294 126.575C100.294 126.138 100.631 125.786 101.05 125.786C101.47 125.786 101.811 126.138 101.811 126.575Z" fill="#FF671B"/>
<path d="M95.2717 129.82C95.2717 130.253 94.9307 130.609 94.5112 130.609C94.0956 130.609 93.7546 130.253 93.7546 129.82C93.7546 129.383 94.0956 129.027 94.5112 129.027C94.9307 129.027 95.2717 129.383 95.2717 129.82Z" fill="#FF671B"/>
<path d="M88.372 132.342C88.372 132.779 88.0348 133.131 87.6153 133.131C87.1959 133.131 86.8548 132.779 86.8548 132.342C86.8548 131.905 87.1959 131.549 87.6153 131.549C88.0348 131.549 88.372 131.905 88.372 132.342Z" fill="#FF671B"/>
<path d="M81.4996 134.034C81.4996 134.467 81.1586 134.823 80.743 134.823C80.3236 134.823 79.9825 134.467 79.9825 134.034C79.9825 133.597 80.3236 133.241 80.743 133.241C81.1586 133.241 81.4996 133.597 81.4996 134.034Z" fill="#FF671B"/>
<path d="M74.3764 135.003C74.3764 135.44 74.0354 135.792 73.6198 135.792C73.2003 135.792 72.8593 135.44 72.8593 135.003C72.8593 134.565 73.2003 134.21 73.6198 134.21C74.0354 134.21 74.3764 134.565 74.3764 135.003Z" fill="#FF671B"/>
<path d="M66.967 135.207C66.967 135.644 66.6298 136 66.2104 136C65.7909 136 65.4498 135.644 65.4498 135.207C65.4498 134.774 65.7909 134.418 66.2104 134.418C66.6298 134.418 66.967 134.774 66.967 135.207Z" fill="#FF671B"/>
<path d="M59.4047 134.586C59.4047 135.023 59.0636 135.379 58.6441 135.379C58.2247 135.379 57.8875 135.023 57.8875 134.586C57.8875 134.149 58.2247 133.797 58.6441 133.797C59.0636 133.797 59.4047 134.149 59.4047 134.586Z" fill="#FF671B"/>
<path d="M52.0972 133.151C52.0972 133.589 51.7601 133.944 51.3406 133.944C50.9211 133.944 50.58 133.589 50.58 133.151C50.58 132.714 50.9211 132.362 51.3406 132.362C51.7601 132.362 52.0972 132.714 52.0972 133.151Z" fill="#FF671B"/>
<path d="M45.0994 130.952C45.0994 131.386 44.7583 131.741 44.3389 131.741C43.9233 131.741 43.5822 131.386 43.5822 130.952C43.5822 130.515 43.9233 130.159 44.3389 130.159C44.7583 130.159 45.0994 130.515 45.0994 130.952Z" fill="#FF671B"/>
<path d="M38.4505 128.03C38.4505 128.467 38.1134 128.823 37.6939 128.823C37.2744 128.823 36.9334 128.467 36.9334 128.03C36.9334 127.597 37.2744 127.241 37.6939 127.241C38.1134 127.241 38.4505 127.597 38.4505 128.03Z" fill="#FF671B"/>
<path d="M32.2055 124.437C32.2055 124.875 31.8644 125.23 31.4449 125.23C31.0255 125.23 30.6844 124.875 30.6844 124.437C30.6844 124 31.0255 123.649 31.4449 123.649C31.8644 123.649 32.2055 124 32.2055 124.437Z" fill="#FF671B"/>
<path d="M26.3995 120.22C26.3995 120.653 26.0584 121.008 25.6428 121.008C25.2234 121.008 24.8823 120.653 24.8823 120.22C24.8823 119.782 25.2234 119.427 25.6428 119.427C26.0584 119.427 26.3995 119.782 26.3995 120.22Z" fill="#FF671B"/>
<path d="M21.0874 115.417C21.0874 115.854 20.7463 116.206 20.3269 116.206C19.9074 116.206 19.5703 115.854 19.5703 115.417C19.5703 114.98 19.9074 114.624 20.3269 114.624C20.7463 114.624 21.0874 114.98 21.0874 115.417Z" fill="#FF671B"/>
<path d="M16.3085 110.079C16.3085 110.517 15.9714 110.872 15.5519 110.872C15.1324 110.872 14.7914 110.517 14.7914 110.079C14.7914 109.642 15.1324 109.29 15.5519 109.29C15.9714 109.29 16.3085 109.642 16.3085 110.079Z" fill="#FF671B"/>
<path d="M12.1177 104.255C12.1177 104.692 11.7767 105.048 11.3572 105.048C10.9377 105.048 10.6006 104.692 10.6006 104.255C10.6006 103.818 10.9377 103.466 11.3572 103.466C11.7767 103.466 12.1177 103.818 12.1177 104.255Z" fill="#FF671B"/>
<path d="M8.55415 97.9895C8.55415 98.4227 8.21309 98.7783 7.79361 98.7783C7.37414 98.7783 7.03699 98.4227 7.03699 97.9895C7.03699 97.5521 7.37414 97.1966 7.79361 97.1966C8.21309 97.1966 8.55415 97.5521 8.55415 97.9895Z" fill="#FF671B"/>
<path d="M5.66487 91.3233C5.66487 91.7607 5.32772 92.1162 4.90825 92.1162C4.48877 92.1162 4.14771 91.7607 4.14771 91.3233C4.14771 90.8901 4.48877 90.5345 4.90825 90.5345C5.32772 90.5345 5.66487 90.8901 5.66487 91.3233Z" fill="#FF671B"/>
<path d="M3.50084 84.3098C3.50084 84.7471 3.15977 85.1027 2.7403 85.1027C2.32082 85.1027 1.98367 84.7471 1.98367 84.3098C1.98367 83.8765 2.32082 83.521 2.7403 83.521C3.15977 83.521 3.50084 83.8765 3.50084 84.3098Z" fill="#FF671B"/>
<path d="M2.1013 76.9938C2.1013 77.4311 1.76023 77.7867 1.34076 77.7867C0.921285 77.7867 0.584137 77.4311 0.584137 76.9938C0.584137 76.5565 0.921285 76.205 1.34076 76.205C1.76023 76.205 2.1013 76.5565 2.1013 76.9938Z" fill="#FF671B"/>
<path d="M1.51717 69.4203C1.51717 69.8576 1.1761 70.2091 0.756623 70.2091C0.341068 70.2091 0 69.8576 0 69.4203C0 68.983 0.341068 68.6274 0.756623 68.6274C1.1761 68.6274 1.51717 68.983 1.51717 69.4203Z" fill="#FF671B"/>
<path d="M1.78374 61.8345C1.78374 62.2719 1.44659 62.6274 1.02711 62.6274C0.607639 62.6274 0.266571 62.2719 0.266571 61.8345C0.266571 61.4013 0.607639 61.0457 1.02711 61.0457C1.44659 61.0457 1.78374 61.4013 1.78374 61.8345Z" fill="#FF671B"/>
<path d="M2.87361 54.4082C2.87361 54.8455 2.53254 55.2011 2.11699 55.2011C1.69751 55.2011 1.35645 54.8455 1.35645 54.4082C1.35645 53.9708 1.69751 53.6194 2.11699 53.6194C2.53254 53.6194 2.87361 53.9708 2.87361 54.4082Z" fill="#FF671B"/>
<path d="M4.75142 47.2679C4.75142 47.7052 4.41035 48.0608 3.99088 48.0608C3.5714 48.0608 3.23425 47.7052 3.23425 47.2679C3.23425 46.8306 3.5714 46.4791 3.99088 46.4791C4.41035 46.4791 4.75142 46.8306 4.75142 47.2679Z" fill="#FF671B"/>
<path d="M7.36629 40.4628C7.36629 40.8961 7.02914 41.2516 6.60966 41.2516C6.19019 41.2516 5.84912 40.8961 5.84912 40.4628C5.84912 40.0255 6.19019 39.6699 6.60966 39.6699C7.02914 39.6699 7.36629 40.0255 7.36629 40.4628Z" fill="#FF671B"/>
<path d="M10.679 34.0337C10.679 34.471 10.3418 34.8266 9.92235 34.8266C9.50287 34.8266 9.1618 34.471 9.1618 34.0337C9.1618 33.5964 9.50287 33.2408 9.92235 33.2408C10.3418 33.2408 10.679 33.5964 10.679 34.0337Z" fill="#FF671B"/>
<path d="M14.6424 28.0297C14.6424 28.467 14.3014 28.8226 13.8819 28.8226C13.4624 28.8226 13.1213 28.467 13.1213 28.0297C13.1213 27.5965 13.4624 27.2409 13.8819 27.2409C14.3014 27.2409 14.6424 27.5965 14.6424 28.0297Z" fill="#FF671B"/>
<path d="M19.2018 22.4998C19.2018 22.9371 18.8646 23.2927 18.4451 23.2927C18.0257 23.2927 17.6846 22.9371 17.6846 22.4998C17.6846 22.0665 18.0257 21.711 18.4451 21.711C18.8646 21.711 19.2018 22.0665 19.2018 22.4998Z" fill="#FF671B"/>
<path d="M24.3217 17.4889C24.3217 17.9262 23.9806 18.2818 23.5612 18.2818C23.1417 18.2818 22.8045 17.9262 22.8045 17.4889C22.8045 17.0516 23.1417 16.7001 23.5612 16.7001C23.9806 16.7001 24.3217 17.0516 24.3217 17.4889Z" fill="#FF671B"/>
<path d="M29.9474 13.0421C29.9474 13.4794 29.6102 13.8309 29.1907 13.8309C28.7713 13.8309 28.4302 13.4794 28.4302 13.0421C28.4302 12.6048 28.7713 12.2492 29.1907 12.2492C29.6102 12.2492 29.9474 12.6048 29.9474 13.0421Z" fill="#FF671B"/>
<path d="M36.0396 9.20425C36.0396 9.64158 35.6985 9.99307 35.279 9.99307C34.8595 9.99307 34.5224 9.64158 34.5224 9.20425C34.5224 8.76693 34.8595 8.41135 35.279 8.41135C35.6985 8.41135 36.0396 8.76693 36.0396 9.20425Z" fill="#FF671B"/>
<path d="M42.5473 6.02448C42.5473 6.4618 42.2062 6.8133 41.7868 6.8133C41.3673 6.8133 41.0262 6.4618 41.0262 6.02448C41.0262 5.58715 41.3673 5.23157 41.7868 5.23157C42.2062 5.23157 42.5473 5.58715 42.5473 6.02448Z" fill="#FF671B"/>
<path d="M49.4235 3.54764C49.4235 3.98088 49.0825 4.33646 48.663 4.33646C48.2435 4.33646 47.9064 3.98088 47.9064 3.54764C47.9064 3.11031 48.2435 2.75473 48.663 2.75473C49.0825 2.75473 49.4235 3.11031 49.4235 3.54764Z" fill="#FF671B"/>
<path d="M56.6252 1.81879C56.6252 2.25611 56.2841 2.60761 55.8646 2.60761C55.4451 2.60761 55.108 2.25611 55.108 1.81879C55.108 1.38146 55.4451 1.02588 55.8646 1.02588C56.2841 1.02588 56.6252 1.38146 56.6252 1.81879Z" fill="#FF671B"/>
<path d="M64.1051 0.882815C64.1051 1.32014 63.7641 1.67572 63.3446 1.67572C62.9251 1.67572 62.588 1.32014 62.588 0.882815C62.588 0.449576 62.9251 0.0939941 63.3446 0.0939941C63.7641 0.0939941 64.1051 0.449576 64.1051 0.882815Z" fill="#FF671B"/>
<path d="M71.7263 0.78882C71.7263 1.22615 71.3891 1.58173 70.9696 1.58173C70.5502 1.58173 70.2091 1.22615 70.2091 0.78882C70.2091 0.355582 70.5502 0 70.9696 0C71.3891 0 71.7263 0.355582 71.7263 0.78882Z" fill="#FF671B"/>
<path d="M79.12 1.51633C79.12 1.95365 78.7789 2.30923 78.3595 2.30923C77.94 2.30923 77.5989 1.95365 77.5989 1.51633C77.5989 1.079 77.94 0.723419 78.3595 0.723419C78.7789 0.723419 79.12 1.079 79.12 1.51633Z" fill="#FF671B"/>
<path d="M86.2511 3.01633C86.2511 3.45365 85.91 3.80924 85.4905 3.80924C85.075 3.80924 84.7339 3.45365 84.7339 3.01633C84.7339 2.579 85.075 2.22751 85.4905 2.22751C85.91 2.22751 86.2511 2.579 86.2511 3.01633Z" fill="#FF671B"/>
<path d="M93.0803 5.2479C93.0803 5.68522 92.7431 6.0408 92.3236 6.0408C91.9042 6.0408 91.5631 5.68522 91.5631 5.2479C91.5631 4.81466 91.9042 4.45908 92.3236 4.45908C92.7431 4.45908 93.0803 4.81466 93.0803 5.2479Z" fill="#FF671B"/>
<path d="M99.5645 8.17023C99.5645 8.60755 99.2274 8.96314 98.8079 8.96314C98.3884 8.96314 98.0473 8.60755 98.0473 8.17023C98.0473 7.73699 98.3884 7.38141 98.8079 7.38141C99.2274 7.38141 99.5645 7.73699 99.5645 8.17023Z" fill="#FF671B"/>
<path d="M105.661 11.7424C105.661 12.1797 105.32 12.5312 104.9 12.5312C104.485 12.5312 104.143 12.1797 104.143 11.7424C104.143 11.3051 104.485 10.9495 104.9 10.9495C105.32 10.9495 105.661 11.3051 105.661 11.7424Z" fill="#FF671B"/>
<path d="M111.388 15.9154C111.388 16.3527 111.051 16.7083 110.632 16.7083C110.212 16.7083 109.871 16.3527 109.871 15.9154C109.871 15.4821 110.212 15.1266 110.632 15.1266C111.051 15.1266 111.388 15.4821 111.388 15.9154Z" fill="#FF671B"/>
<path d="M116.951 20.6401C116.951 21.0774 116.61 21.433 116.191 21.433C115.771 21.433 115.434 21.0774 115.434 20.6401C115.434 20.2069 115.771 19.8513 116.191 19.8513C116.61 19.8513 116.951 20.2069 116.951 20.6401Z" fill="#FF671B"/>
<path d="M107.746 83.9011C107.746 84.6858 107.135 85.3234 106.378 85.3234C105.625 85.3234 105.014 84.6858 105.014 83.9011C105.014 83.1163 105.625 82.4787 106.378 82.4787C107.135 82.4787 107.746 83.1163 107.746 83.9011Z" fill="#FF671B"/>
<path d="M107.966 80.0959C107.966 80.8807 107.358 81.5183 106.601 81.5183C105.849 81.5183 105.237 80.8807 105.237 80.0959C105.237 79.3071 105.849 78.6695 106.601 78.6695C107.358 78.6695 107.966 79.3071 107.966 80.0959Z" fill="#FF671B"/>
<path d="M102.924 80.0959C102.924 80.8807 102.313 81.5183 101.556 81.5183C100.803 81.5183 100.192 80.8807 100.192 80.0959C100.192 79.3071 100.803 78.6695 101.556 78.6695C102.313 78.6695 102.924 79.3071 102.924 80.0959Z" fill="#FF671B"/>
<path d="M98.5609 80.0959C98.5609 80.8807 97.9493 81.5183 97.1966 81.5183C96.44 81.5183 95.8284 80.8807 95.8284 80.0959C95.8284 79.3071 96.44 78.6695 97.1966 78.6695C97.9493 78.6695 98.5609 79.3071 98.5609 80.0959Z" fill="#FF671B"/>
<path d="M107.966 76.2908C107.966 77.0755 107.358 77.7131 106.601 77.7131C105.849 77.7131 105.237 77.0755 105.237 76.2908C105.237 75.502 105.849 74.8644 106.601 74.8644C107.358 74.8644 107.966 75.502 107.966 76.2908Z" fill="#FF671B"/>
<path d="M103.026 76.2908C103.026 77.0755 102.415 77.7131 101.662 77.7131C100.905 77.7131 100.294 77.0755 100.294 76.2908C100.294 75.502 100.905 74.8644 101.662 74.8644C102.415 74.8644 103.026 75.502 103.026 76.2908Z" fill="#FF671B"/>
<path d="M98.4668 76.2908C98.4668 77.0755 97.8552 77.7131 97.1025 77.7131C96.3498 77.7131 95.7343 77.0755 95.7343 76.2908C95.7343 75.502 96.3498 74.8644 97.1025 74.8644C97.8552 74.8644 98.4668 75.502 98.4668 76.2908Z" fill="#FF671B"/>
<path d="M107.966 72.4816C107.966 73.2704 107.358 73.908 106.601 73.908C105.849 73.908 105.237 73.2704 105.237 72.4816C105.237 71.6968 105.849 71.0592 106.601 71.0592C107.358 71.0592 107.966 71.6968 107.966 72.4816Z" fill="#FF671B"/>
<path d="M103.136 72.5633C103.136 73.3521 102.524 73.9897 101.772 73.9897C101.019 73.9897 100.407 73.3521 100.407 72.5633C100.407 71.7786 101.019 71.141 101.772 71.141C102.524 71.141 103.136 71.7786 103.136 72.5633Z" fill="#FF671B"/>
<path d="M98.459 72.5633C98.459 73.3521 97.8474 73.9897 97.0947 73.9897C96.3381 73.9897 95.7304 73.3521 95.7304 72.5633C95.7304 71.7786 96.3381 71.141 97.0947 71.141C97.8474 71.141 98.459 71.7786 98.459 72.5633Z" fill="#FF671B"/>
<path d="M107.966 68.6764C107.966 69.4611 107.358 70.1028 106.601 70.1028C105.849 70.1028 105.237 69.4611 105.237 68.6764C105.237 67.8917 105.849 67.2541 106.601 67.2541C107.358 67.2541 107.966 67.8917 107.966 68.6764Z" fill="#FF671B"/>
<path d="M103.093 68.6764C103.093 69.4611 102.481 70.1028 101.729 70.1028C100.972 70.1028 100.36 69.4611 100.36 68.6764C100.36 67.8917 100.972 67.2541 101.729 67.2541C102.481 67.2541 103.093 67.8917 103.093 68.6764Z" fill="#FF671B"/>
<path d="M98.455 68.6764C98.455 69.4611 97.8435 70.1028 97.0908 70.1028C96.3342 70.1028 95.7226 69.4611 95.7226 68.6764C95.7226 67.8917 96.3342 67.2541 97.0908 67.2541C97.8435 67.2541 98.455 67.8917 98.455 68.6764Z" fill="#FF671B"/>
<path d="M107.966 64.8713C107.966 65.656 107.358 66.2936 106.601 66.2936C105.849 66.2936 105.237 65.656 105.237 64.8713C105.237 64.0866 105.849 63.449 106.601 63.449C107.358 63.449 107.966 64.0866 107.966 64.8713Z" fill="#FF671B"/>
<path d="M103.148 64.8713C103.148 65.656 102.536 66.2936 101.783 66.2936C101.027 66.2936 100.415 65.656 100.415 64.8713C100.415 64.0866 101.027 63.449 101.783 63.449C102.536 63.449 103.148 64.0866 103.148 64.8713Z" fill="#FF671B"/>
<path d="M98.5883 64.8713C98.5883 65.656 97.9768 66.2936 97.2201 66.2936C96.4674 66.2936 95.8559 65.656 95.8559 64.8713C95.8559 64.0866 96.4674 63.449 97.2201 63.449C97.9768 63.449 98.5883 64.0866 98.5883 64.8713Z" fill="#FF671B"/>
<path d="M112.635 64.8713C112.635 65.5988 112.07 66.1873 111.373 66.1873C110.675 66.1873 110.11 65.5988 110.11 64.8713C110.11 64.1438 110.675 63.5552 111.373 63.5552C112.07 63.5552 112.635 64.1438 112.635 64.8713Z" fill="#FF671B"/>
<path d="M112.635 68.8399C112.635 69.5674 112.07 70.1601 111.373 70.1601C110.675 70.1601 110.11 69.5674 110.11 68.8399C110.11 68.1165 110.675 67.5238 111.373 67.5238C112.07 67.5238 112.635 68.1165 112.635 68.8399Z" fill="#FF671B"/>
<path d="M112.635 72.6124C112.635 73.3399 112.07 73.9284 111.373 73.9284C110.675 73.9284 110.11 73.3399 110.11 72.6124C110.11 71.8848 110.675 71.2963 111.373 71.2963C112.07 71.2963 112.635 71.8848 112.635 72.6124Z" fill="#FF671B"/>
<path d="M112.635 76.2867C112.635 77.0142 112.07 77.6028 111.373 77.6028C110.675 77.6028 110.11 77.0142 110.11 76.2867C110.11 75.5592 110.675 74.9706 111.373 74.9706C112.07 74.9706 112.635 75.5592 112.635 76.2867Z" fill="#FF671B"/>
<path d="M112.635 79.8589C112.635 80.5864 112.07 81.1749 111.373 81.1749C110.675 81.1749 110.11 80.5864 110.11 79.8589C110.11 79.1314 110.675 78.5428 111.373 78.5428C112.07 78.5428 112.635 79.1314 112.635 79.8589Z" fill="#FF671B"/>
<path d="M117.304 64.8713C117.304 65.5416 116.783 66.0811 116.144 66.0811C115.505 66.0811 114.983 65.5416 114.983 64.8713C114.983 64.2051 115.505 63.6615 116.144 63.6615C116.783 63.6615 117.304 64.2051 117.304 64.8713Z" fill="#FF671B"/>
<path d="M117.304 69.0892C117.304 69.7595 116.783 70.299 116.144 70.299C115.505 70.299 114.983 69.7595 114.983 69.0892C114.983 68.423 115.505 67.8794 116.144 67.8794C116.783 67.8794 117.304 68.423 117.304 69.0892Z" fill="#FF671B"/>
<path d="M117.304 72.7145C117.304 73.3807 116.783 73.9243 116.144 73.9243C115.505 73.9243 114.983 73.3807 114.983 72.7145C114.983 72.0442 115.505 71.5047 116.144 71.5047C116.783 71.5047 117.304 72.0442 117.304 72.7145Z" fill="#FF671B"/>
<path d="M117.304 76.0864C117.304 76.7567 116.783 77.2962 116.144 77.2962C115.505 77.2962 114.983 76.7567 114.983 76.0864C114.983 75.4202 115.505 74.8807 116.144 74.8807C116.783 74.8807 117.304 75.4202 117.304 76.0864Z" fill="#FF671B"/>
<path d="M121.973 64.8754C121.973 65.4844 121.499 65.9748 120.915 65.9748C120.33 65.9748 119.856 65.4844 119.856 64.8754C119.856 64.2623 120.33 63.7718 120.915 63.7718C121.499 63.7718 121.973 64.2623 121.973 64.8754Z" fill="#FF671B"/>
<path d="M121.973 69.2404C121.973 69.8494 121.499 70.344 120.915 70.344C120.33 70.344 119.856 69.8494 119.856 69.2404C119.856 68.6315 120.33 68.1369 120.915 68.1369C121.499 68.1369 121.973 68.6315 121.973 69.2404Z" fill="#FF671B"/>
<path d="M121.973 72.8617C121.973 73.4747 121.499 73.9652 120.915 73.9652C120.33 73.9652 119.856 73.4747 119.856 72.8617C119.856 72.2527 120.33 71.7581 120.915 71.7581C121.499 71.7581 121.973 72.2527 121.973 72.8617Z" fill="#FF671B"/>
<path d="M126.638 64.8754C126.638 65.4231 126.211 65.8686 125.686 65.8686C125.156 65.8686 124.729 65.4231 124.729 64.8754C124.729 64.3236 125.156 63.8781 125.686 63.8781C126.211 63.8781 126.638 64.3236 126.638 64.8754Z" fill="#FF671B"/>
<path d="M126.638 69.0933C126.638 69.641 126.211 70.0906 125.686 70.0906C125.156 70.0906 124.729 69.641 124.729 69.0933C124.729 68.5415 125.156 68.096 125.686 68.096C126.211 68.096 126.638 68.5415 126.638 69.0933Z" fill="#FF671B"/>
<path d="M131.307 64.8754C131.307 65.3658 130.927 65.7664 130.457 65.7664C129.986 65.7664 129.602 65.3658 129.602 64.8754C129.602 64.3849 129.986 63.9844 130.457 63.9844C130.927 63.9844 131.307 64.3849 131.307 64.8754Z" fill="#FF671B"/>
<path d="M135.976 64.8754C135.976 65.3086 135.639 65.6601 135.224 65.6601C134.812 65.6601 134.475 65.3086 134.475 64.8754C134.475 64.4421 134.812 64.0947 135.224 64.0947C135.639 64.0947 135.976 64.4421 135.976 64.8754Z" fill="#FF671B"/>
</svg>
